MulatAbay-Regular.ufo
<glyph name="numbersign" format="2">
  <advance width="1261"/>
  <unicode hex="0023"/>
  <note>
uni0023
</note>
  <outline>
    <contour>
      <point x="278" y="0" type="line"/>
      <point x="421" y="0" type="line"/>
      <point x="501" y="410" type="line"/>
      <point x="765" y="410" type="line"/>
      <point x="685" y="0" type="line"/>
      <point x="829" y="0" type="line"/>
      <point x="909" y="410" type="line"/>
      <point x="1160" y="410" type="line"/>
      <point x="1160" y="547" type="line"/>
      <point x="935" y="547" type="line"/>
      <point x="1004" y="901" type="line"/>
      <point x="1235" y="901" type="line"/>
      <point x="1235" y="1040" type="line"/>
      <point x="1031" y="1040" type="line"/>
      <point x="1113" y="1456" type="line"/>
      <point x="969" y="1456" type="line"/>
      <point x="887" y="1040" type="line"/>
      <point x="623" y="1040" type="line"/>
      <point x="705" y="1456" type="line"/>
      <point x="562" y="1456" type="line"/>
      <point x="480" y="1040" type="line"/>
      <point x="195" y="1040" type="line"/>
      <point x="195" y="901" type="line"/>
      <point x="453" y="901" type="line"/>
      <point x="384" y="547" type="line"/>
      <point x="119" y="547" type="line"/>
      <point x="119" y="410" type="line"/>
      <point x="358" y="410" type="line"/>
    </contour>
    <contour>
      <point x="527" y="547" type="line"/>
      <point x="596" y="901" type="line"/>
      <point x="860" y="901" type="line"/>
      <point x="791" y="547" type="line"/>
    </contour>
  </outline>
</glyph>
<glyph name="dollar" format="2">
  <advance width="1150"/>
  <unicode hex="0024"/>
  <note>
uni0024
</note>
  <outline>
    <contour>
      <point x="507" y="-208" type="line"/>
      <point x="655" y="-208" type="line"/>
      <point x="655" y="-17" type="line"/>
      <point x="899" y="8.333"/>
      <point x="1041" y="151.667"/>
      <point x="1041" y="377" type="curve" smooth="yes"/>
      <point x="1041" y="592.853"/>
      <point x="919.514" y="718.988"/>
      <point x="636.5" y="809.5" type="curve" smooth="yes"/>
      <point x="433.167" y="875.5"/>
      <point x="351" y="946"/>
      <point x="351" y="1082" type="curve" smooth="yes"/>
      <point x="351" y="1228.667"/>
      <point x="437.333" y="1315"/>
      <point x="596" y="1315" type="curve" smooth="yes"/>
      <point x="748" y="1315"/>
      <point x="844" y="1196"/>
      <point x="844" y="1008" type="curve"/>
      <point x="1028" y="1008" type="line"/>
      <point x="1028" y="1281.333"/>
      <point x="897" y="1441.333"/>
      <point x="673" y="1472" type="curve"/>
      <point x="673" y="1692" type="line"/>
      <point x="524" y="1692" type="line"/>
      <point x="524" y="1473" type="line"/>
      <point x="301.333" y="1446.333"/>
      <point x="166" y="1297.667"/>
      <point x="166" y="1079" type="curve" smooth="yes"/>
      <point x="166" y="864.333"/>
      <point x="290" y="730.667"/>
      <point x="574" y="644" type="curve" smooth="yes"/>
      <point x="778" y="576"/>
      <point x="856" y="497.667"/>
      <point x="856" y="375" type="curve" smooth="yes"/>
      <point x="856" y="229.667"/>
      <point x="749.667" y="140"/>
      <point x="575" y="140" type="curve" smooth="yes"/>
      <point x="396.333" y="140"/>
      <point x="295" y="243.667"/>
      <point x="295" y="429" type="curve"/>
      <point x="110" y="429" type="line"/>
      <point x="110" y="165"/>
      <point x="259" y="5.667"/>
      <point x="507" y="-17" type="curve"/>
    </contour>
  </outline>
</glyph>
<glyph name="percent" format="2">
  <advance width="1500"/>
  <unicode hex="0025"/>
  <note>
uni0025
</note>
  <outline>
    <contour>
      <point x="447" y="110" type="line"/>
      <point x="1158" y="1248" type="line"/>
      <point x="1053" y="1314" type="line"/>
      <point x="342" y="176" type="line"/>
    </contour>
    <contour>
      <point x="1114" y="-21" type="curve" smooth="yes"/>
      <point x="1287.333" y="-21"/>
      <point x="1411" y="104.333"/>
      <point x="1411" y="279" type="curve" smooth="yes"/>
      <point x="1411" y="350" type="line" smooth="yes"/>
      <point x="1411" y="535.333"/>
      <point x="1286.667" y="657"/>
      <point x="1112" y="657" type="curve" smooth="yes"/>
      <point x="937.333" y="657"/>
      <point x="814" y="531.667"/>
      <point x="814" y="357" type="curve" smooth="yes"/>
      <point x="814" y="285" type="line" smooth="yes"/>
      <point x="814" y="99.667"/>
      <point x="940.667" y="-21"/>
    </contour>
    <contour>
      <point x="1114" y="99" type="curve" smooth="yes"/>
      <point x="1015.333" y="99"/>
      <point x="952" y="173.667"/>
      <point x="952" y="279" type="curve" smooth="yes"/>
      <point x="952" y="353" type="line" smooth="yes"/>
      <point x="952" y="465"/>
      <point x="1017.333" y="536"/>
      <point x="1112" y="536" type="curve" smooth="yes"/>
      <point x="1209.333" y="536"/>
      <point x="1272" y="462.333"/>
      <point x="1272" y="357" type="curve" smooth="yes"/>
      <point x="1272" y="283" type="line" smooth="yes"/>
      <point x="1272" y="169.667"/>
      <point x="1210" y="99"/>
    </contour>
    <contour>
      <point x="405" y="800" type="curve" smooth="yes"/>
      <point x="577" y="800"/>
      <point x="701" y="923"/>
      <point x="701" y="1099" type="curve" smooth="yes"/>
      <point x="701" y="1170" type="line" smooth="yes"/>
      <point x="701" y="1351.333"/>
      <point x="580.333" y="1477"/>
      <point x="403" y="1477" type="curve" smooth="yes"/>
      <point x="228.333" y="1477"/>
      <point x="105" y="1350.667"/>
      <point x="105" y="1176" type="curve" smooth="yes"/>
      <point x="105" y="1106" type="line" smooth="yes"/>
      <point x="105" y="920.667"/>
      <point x="231.667" y="800"/>
    </contour>
    <contour>
      <point x="405" y="920" type="curve" smooth="yes"/>
      <point x="306.333" y="920"/>
      <point x="243" y="995"/>
      <point x="243" y="1099" type="curve" smooth="yes"/>
      <point x="243" y="1172" type="line" smooth="yes"/>
      <point x="243" y="1281.333"/>
      <point x="304.333" y="1356"/>
      <point x="403" y="1356" type="curve" smooth="yes"/>
      <point x="501.667" y="1356"/>
      <point x="563" y="1280"/>
      <point x="563" y="1176" type="curve" smooth="yes"/>
      <point x="563" y="1103" type="line" smooth="yes"/>
      <point x="563" y="989.667"/>
      <point x="499.667" y="920"/>
    </contour>
  </outline>
</glyph>
<glyph name="ampersand" format="2">
  <advance width="1273"/>
  <unicode hex="0026"/>
  <note>
uni0026
</note>
  <outline>
    <contour>
      <point x="572" y="-20" type="curve" smooth="yes"/>
      <point x="709.333" y="-20"/>
      <point x="849.333" y="27"/>
      <point x="948" y="115" type="curve"/>
      <point x="1045" y="0" type="line"/>
      <point x="1267" y="0" type="line"/>
      <point x="1059" y="249" type="line"/>
      <point x="1141" y="361"/>
      <point x="1182" y="502"/>
      <point x="1182" y="672" type="curve"/>
      <point x="1015" y="672" type="line"/>
      <point x="1015" y="566"/>
      <point x="992.333" y="469.667"/>
      <point x="947" y="383" type="curve"/>
      <point x="623" y="770" type="line"/>
      <point x="730" y="849" type="line" smooth="yes"/>
      <point x="878" y="958.333"/>
      <point x="930" y="1050.667"/>
      <point x="930" y="1168" type="curve" smooth="yes"/>
      <point x="930" y="1345.333"/>
      <point x="784" y="1476"/>
      <point x="584" y="1476" type="curve" smooth="yes"/>
      <point x="360" y="1476"/>
      <point x="220" y="1343.333"/>
      <point x="220" y="1122" type="curve" smooth="yes"/>
      <point x="220" y="1027.333"/>
      <point x="253.667" y="946.333"/>
      <point x="383" y="789" type="curve"/>
      <point x="163" y="633"/>
      <point x="101" y="531"/>
      <point x="101" y="391" type="curve" smooth="yes"/>
      <point x="101" y="144.333"/>
      <point x="288" y="-20"/>
    </contour>
    <contour>
      <point x="572" y="131" type="curve" smooth="yes"/>
      <point x="394.667" y="131"/>
      <point x="286" y="233.667"/>
      <point x="286" y="391" type="curve" smooth="yes"/>
      <point x="286" y="477.667"/>
      <point x="341.667" y="562"/>
      <point x="453" y="644" type="curve" smooth="yes"/>
      <point x="486" y="668" type="line"/>
      <point x="841" y="243" type="line"/>
      <point x="759.667" y="168.333"/>
      <point x="670" y="131"/>
    </contour>
    <contour>
      <point x="523" y="888" type="line"/>
      <point x="444.333" y="984"/>
      <point x="405" y="1064"/>
      <point x="405" y="1128" type="curve" smooth="yes"/>
      <point x="405" y="1241.333"/>
      <point x="473.667" y="1324"/>
      <point x="583" y="1324" type="curve" smooth="yes"/>
      <point x="684.333" y="1324"/>
      <point x="759" y="1257.333"/>
      <point x="759" y="1168" type="curve" smooth="yes"/>
      <point x="759" y="1085.333"/>
      <point x="731.667" y="1035"/>
      <point x="641" y="971" type="curve" smooth="yes"/>
    </contour>
  </outline>
</glyph>
<glyph name="quotesingle" format="2">
  <advance width="357"/>
  <unicode hex="0027"/>
  <note>
uni0027
</note>
  <outline>
    <contour>
      <point x="103" y="1057" type="line"/>
      <point x="232" y="1057" type="line"/>
      <point x="253" y="1425" type="line"/>
      <point x="253" y="1536" type="line"/>
      <point x="104" y="1536" type="line"/>
    </contour>
  </outline>
</glyph>
<glyph name="parenleft" format="2">
  <advance width="700"/>
  <unicode hex="0028"/>
  <note>
uni0028
</note>
  <outline>
    <contour>
      <point x="623" y="-470" type="curve"/>
      <point x="661" y="-357" type="line"/>
      <point x="583" y="-293"/>
      <point x="515.667" y="-204.333"/>
      <point x="459" y="-91" type="curve" smooth="yes"/>
      <point x="365" y="98.333"/>
      <point x="318" y="321.667"/>
      <point x="318" y="579" type="curve" smooth="yes"/>
      <point x="319" y="664" type="line" smooth="yes"/>
      <point x="331" y="1044"/>
      <point x="466.333" y="1371.667"/>
      <point x="661" y="1521" type="curve"/>
      <point x="623" y="1643" type="line"/>
      <point x="451" y="1549.667"/>
      <point x="274.167" y="1302.333"/>
      <point x="193.5" y="1025" type="curve" smooth="yes"/>
      <point x="153.167" y="886.333"/>
      <point x="133" y="741.667"/>
      <point x="133" y="591" type="curve" smooth="yes"/>
      <point x="133" y="275.667"/>
      <point x="211.667" y="4.667"/>
      <point x="369" y="-222" type="curve" smooth="yes"/>
      <point x="449.667" y="-338"/>
      <point x="534.333" y="-420.667"/>
    </contour>
  </outline>
</glyph>
<glyph name="six" format="2">
  <advance width="1150"/>
  <unicode hex="0036"/>
  <note>
uni0036
</note>
  <outline>
    <contour>
      <point x="601" y="-20" type="curve" smooth="yes"/>
      <point x="875.667" y="-20"/>
      <point x="1052" y="175"/>
      <point x="1052" y="475" type="curve" smooth="yes"/>
      <point x="1052" y="757.667"/>
      <point x="888.333" y="955"/>
      <point x="635" y="955" type="curve" smooth="yes"/>
      <point x="502.333" y="955"/>
      <point x="397.667" y="911"/>
      <point x="321" y="823" type="curve"/>
      <point x="347.667" y="1123"/>
      <point x="525" y="1294.667"/>
      <point x="847" y="1300" type="curve"/>
      <point x="847" y="1457" type="line"/>
      <point x="362" y="1450.333"/>
      <point x="132" y="1161"/>
      <point x="132" y="625" type="curve" smooth="yes"/>
      <point x="132" y="554" type="line" smooth="yes"/>
      <point x="132" y="216.667"/>
      <point x="322.333" y="-20"/>
    </contour>
    <contour>
      <point x="601" y="133" type="curve" smooth="yes"/>
      <point x="439.667" y="133"/>
      <point x="318" y="293"/>
      <point x="318" y="533" type="curve" smooth="yes"/>
      <point x="318" y="601" type="line"/>
      <point x="359.333" y="715.667"/>
      <point x="477.333" y="801"/>
      <point x="604" y="801" type="curve" smooth="yes"/>
      <point x="764" y="801"/>
      <point x="869" y="666"/>
      <point x="869" y="466" type="curve" smooth="yes"/>
      <point x="869" y="267.333"/>
      <point x="767.667" y="133"/>
    </contour>
  </outline>
</glyph>
<glyph name="eight" format="2">
  <advance width="1150"/>
  <unicode hex="0038"/>
  <note>
uni0038
</note>
  <outline>
    <contour>
      <point x="575" y="-20" type="curve" smooth="yes"/>
      <point x="852.333" y="-20"/>
      <point x="1038" y="141"/>
      <point x="1038" y="393" type="curve" smooth="yes"/>
      <point x="1038" y="551.667"/>
      <point x="943" y="683.667"/>
      <point x="791" y="749" type="curve"/>
      <point x="921.667" y="813"/>
      <point x="1004" y="930.667"/>
      <point x="1004" y="1076" type="curve" smooth="yes"/>
      <point x="1004" y="1321.333"/>
      <point x="831" y="1476"/>
      <point x="575" y="1476" type="curve" smooth="yes"/>
      <point x="317.667" y="1476"/>
      <point x="146" y="1321.333"/>
      <point x="146" y="1076" type="curve" smooth="yes"/>
      <point x="146" y="932"/>
      <point x="225.667" y="814"/>
      <point x="355" y="750" type="curve"/>
      <point x="203" y="684.667"/>
      <point x="112" y="550.333"/>
      <point x="112" y="393" type="curve" smooth="yes"/>
      <point x="112" y="142.333"/>
      <point x="295" y="-20"/>
    </contour>
    <contour>
      <point x="575" y="131" type="curve" smooth="yes"/>
      <point x="400.333" y="131"/>
      <point x="297" y="231.667"/>
      <point x="297" y="397" type="curve" smooth="yes"/>
      <point x="297" y="562.333"/>
      <point x="406.333" y="673"/>
      <point x="573" y="673" type="curve" smooth="yes"/>
      <point x="739.667" y="673"/>
      <point x="853" y="559.667"/>
      <point x="853" y="397" type="curve" smooth="yes"/>
      <point x="853" y="233"/>
      <point x="748.333" y="131"/>
    </contour>
    <contour>
      <point x="575" y="825" type="curve" smooth="yes"/>
      <point x="427" y="825"/>
      <point x="331" y="925"/>
      <point x="331" y="1073" type="curve" smooth="yes"/>
      <point x="331" y="1227.667"/>
      <point x="429.667" y="1324"/>
      <point x="575" y="1324" type="curve" smooth="yes"/>
      <point x="716.333" y="1324"/>
      <point x="819" y="1221"/>
      <point x="819" y="1073" type="curve" smooth="yes"/>
      <point x="819" y="925"/>
      <point x="723" y="825"/>
    </contour>
  </outline>
</glyph>
<glyph name="less" format="2">
  <advance width="1041"/>
  <unicode hex="003C"/>
  <note>
uni003C
</note>
  <outline>
    <contour>
      <point x="890" y="195" type="line"/>
      <point x="890" y="391" type="line"/>
      <point x="264" y="644" type="line"/>
      <point x="890" y="902" type="line"/>
      <point x="890" y="1098" type="line"/>
      <point x="72" y="720" type="line"/>
      <point x="72" y="574" type="line"/>
    </contour>
  </outline>
</glyph>
<glyph name="equal" format="2">
  <advance width="1124"/>
  <unicode hex="003D"/>
  <note>
uni003D
</note>
  <outline>
    <contour>
      <point x="152" y="814" type="line"/>
      <point x="986" y="814" type="line"/>
      <point x="986" y="975" type="line"/>
      <point x="152" y="975" type="line"/>
    </contour>
    <contour>
      <point x="152" y="399" type="line"/>
      <point x="986" y="399" type="line"/>
      <point x="986" y="559" type="line"/>
      <point x="152" y="559" type="line"/>
    </contour>
  </outline>
</glyph>
<glyph name="question" format="2">
  <advance width="967"/>
  <unicode hex="003F"/>
  <note>
uni003F
</note>
  <outline>
    <contour>
      <point x="357" y="410" type="curve"/>
      <point x="542" y="410" type="line"/>
      <point x="542" y="511.333"/>
      <point x="566.333" y="589"/>
      <point x="724" y="751" type="curve" smooth="yes"/>
      <point x="832" y="864"/>
      <point x="886" y="979.333"/>
      <point x="886" y="1096" type="curve" smooth="yes"/>
      <point x="886" y="1332"/>
      <point x="738" y="1476"/>
      <point x="486" y="1476" type="curve" smooth="yes"/>
      <point x="243.333" y="1476"/>
      <point x="77.667" y="1331"/>
      <point x="75" y="1115" type="curve"/>
      <point x="260" y="1115" type="line"/>
      <point x="260" y="1236.333"/>
      <point x="350" y="1314"/>
      <point x="486" y="1314" type="curve" smooth="yes"/>
      <point x="626" y="1314"/>
      <point x="701" y="1230"/>
      <point x="701" y="1090" type="curve" smooth="yes"/>
      <point x="701" y="1017.333"/>
      <point x="673" y="949.333"/>
      <point x="486" y="751" type="curve" smooth="yes"/>
      <point x="383" y="639"/>
      <point x="359.667" y="568.667"/>
    </contour>
    <contour>
      <point x="349" y="93" type="curve" smooth="yes"/>
      <point x="349" y="33"/>
      <point x="386" y="-11"/>
      <point x="458" y="-11" type="curve" smooth="yes"/>
      <point x="530" y="-11"/>
      <point x="568" y="33"/>
      <point x="568" y="93" type="curve" smooth="yes"/>
      <point x="568" y="153"/>
      <point x="530" y="199"/>
      <point x="458" y="199" type="curve" smooth="yes"/>
      <point x="386" y="199"/>
      <point x="349" y="153"/>
    </contour>
  </outline>
</glyph>
<glyph name="C" format="2">
  <advance width="1333"/>
  <unicode hex="0043"/>
  <note>
uni0043
</note>
  <outline>
    <contour>
      <point x="669" y="-20" type="curve" smooth="yes"/>
      <point x="986" y="-20"/>
      <point x="1185" y="154"/>
      <point x="1221" y="462" type="curve"/>
      <point x="1028" y="462" type="line"/>
      <point x="991" y="222"/>
      <point x="882" y="137"/>
      <point x="669" y="137" type="curve" smooth="yes"/>
      <point x="432" y="137"/>
      <point x="293" y="338"/>
      <point x="293" y="654" type="curve" smooth="yes"/>
      <point x="293" y="795" type="line" smooth="yes"/>
      <point x="293" y="1130"/>
      <point x="441" y="1318"/>
      <point x="686" y="1318" type="curve" smooth="yes"/>
      <point x="886" y="1318"/>
      <point x="995" y="1220"/>
      <point x="1028" y="988" type="curve"/>
      <point x="1221" y="988" type="line"/>
      <point x="1190" y="1293"/>
      <point x="995" y="1476"/>
      <point x="686" y="1476" type="curve" smooth="yes"/>
      <point x="307" y="1476"/>
      <point x="100" y="1183"/>
      <point x="100" y="660" type="curve" smooth="yes"/>
      <point x="100" y="247"/>
      <point x="325" y="-20"/>
    </contour>
  </outline>
</glyph>
<glyph name="D" format="2">
  <advance width="1343"/>
  <unicode hex="0044"/>
  <note>
uni0044
</note>
  <outline>
    <contour>
      <point x="169" y="0" type="line"/>
      <point x="572" y="0" type="line" smooth="yes"/>
      <point x="1089.696" y="4.742"/>
      <point x="1222" y="514"/>
      <point x="1222" y="684" type="curve" smooth="yes"/>
      <point x="1222" y="777" type="line" smooth="yes"/>
      <point x="1217.775" y="1297.611"/>
      <point x="759" y="1456"/>
      <point x="580" y="1456" type="curve" smooth="yes"/>
      <point x="169" y="1456" type="line"/>
    </contour>
    <contour>
      <point x="361" y="157" type="line"/>
      <point x="361" y="1298" type="line"/>
      <point x="585" y="1298" type="line" smooth="yes"/>
      <point x="870.333" y="1295.333"/>
      <point x="1032" y="1103.667"/>
      <point x="1032" y="773" type="curve" smooth="yes"/>
      <point x="1032" y="688" type="line" smooth="yes"/>
      <point x="1032" y="348"/>
      <point x="859" y="157"/>
      <point x="563" y="157" type="curve" smooth="yes"/>
    </contour>
  </outline>
</glyph>
<glyph name="G" format="2">
  <advance width="1395"/>
  <unicode hex="0047"/>
  <note>
uni0047
</note>
  <outline>
    <contour>
      <point x="720" y="-20" type="curve" smooth="yes"/>
      <point x="955" y="-20"/>
      <point x="1136" y="50"/>
      <point x="1235" y="191" type="curve"/>
      <point x="1235" y="725" type="line"/>
      <point x="707" y="725" type="line"/>
      <point x="707" y="569" type="line"/>
      <point x="1044" y="569" type="line"/>
      <point x="1044" y="242" type="line"/>
      <point x="973" y="166"/>
      <point x="865" y="137"/>
      <point x="721" y="137" type="curve" smooth="yes"/>
      <point x="466" y="137"/>
      <point x="306" y="344"/>
      <point x="306" y="671" type="curve" smooth="yes"/>
      <point x="306" y="790" type="line" smooth="yes"/>
      <point x="307" y="1133"/>
      <point x="442" y="1318"/>
      <point x="699" y="1318" type="curve" smooth="yes"/>
      <point x="892" y="1318"/>
      <point x="1007" y="1222"/>
      <point x="1043" y="1029" type="curve"/>
      <point x="1235" y="1029" type="line"/>
      <point x="1194" y="1314"/>
      <point x="1002" y="1476"/>
      <point x="698" y="1476" type="curve" smooth="yes"/>
      <point x="327" y="1476"/>
      <point x="113" y="1224"/>
      <point x="113" y="785" type="curve" smooth="yes"/>
      <point x="113" y="658" type="line" smooth="yes"/>
      <point x="117" y="262"/>
      <point x="344" y="-20"/>
    </contour>
  </outline>
</glyph>
<glyph name="O" format="2">
  <advance width="1408"/>
  <unicode hex="004F"/>
  <note>
uni004F
</note>
  <outline>
    <contour>
      <point x="705" y="-20" type="curve" smooth="yes"/>
      <point x="939.667" y="-20"/>
      <point x="1121" y="94.833"/>
      <point x="1217" y="307.5" type="curve" smooth="yes"/>
      <point x="1265" y="413.833"/>
      <point x="1289" y="538.333"/>
      <point x="1289" y="681" type="curve" smooth="yes"/>
      <point x="1289" y="773" type="line" smooth="yes"/>
      <point x="1289" y="1057"/>
      <point x="1189.5" y="1278.833"/>
      <point x="1011.5" y="1391.5" type="curve" smooth="yes"/>
      <point x="922.5" y="1447.833"/>
      <point x="819.667" y="1476"/>
      <point x="703" y="1476" type="curve" smooth="yes"/>
      <point x="473.667" y="1476"/>
      <point x="288.333" y="1358.667"/>
      <point x="191" y="1144" type="curve" smooth="yes"/>
      <point x="142.333" y="1036.667"/>
      <point x="118" y="913"/>
      <point x="118" y="773" type="curve" smooth="yes"/>
      <point x="118" y="668" type="line" smooth="yes"/>
      <point x="120.667" y="393.333"/>
      <point x="222.667" y="177.167"/>
      <point x="400" y="64.5" type="curve" smooth="yes"/>
      <point x="488.667" y="8.167"/>
      <point x="590.333" y="-20"/>
    </contour>
    <contour>
      <point x="705" y="143" type="curve" smooth="yes"/>
      <point x="458.333" y="143"/>
      <point x="309" y="346.333"/>
      <point x="309" y="681" type="curve" smooth="yes"/>
      <point x="309" y="788" type="line" smooth="yes"/>
      <point x="313" y="1116"/>
      <point x="460.333" y="1311"/>
      <point x="703" y="1311" type="curve" smooth="yes"/>
      <point x="952.333" y="1311"/>
      <point x="1098" y="1120.333"/>
      <point x="1098" y="775" type="curve" smooth="yes"/>
      <point x="1098" y="667" type="line" smooth="yes"/>
      <point x="1094" y="329.667"/>
      <point x="953" y="143"/>
    </contour>
  </outline>
</glyph>
<glyph name="P" format="2">
  <advance width="1292"/>
  <unicode hex="0050"/>
  <note>
uni0050
</note>
  <outline>
    <contour>
      <point x="169" y="0" type="line"/>
      <point x="361" y="0" type="line"/>
      <point x="361" y="570" type="line"/>
      <point x="704" y="570" type="line" smooth="yes"/>
      <point x="1033.333" y="570"/>
      <point x="1216" y="728.333"/>
      <point x="1216" y="1011" type="curve" smooth="yes"/>
      <point x="1216" y="1279"/>
      <point x="1024.667" y="1456"/>
      <point x="706" y="1456" type="curve" smooth="yes"/>
      <point x="169" y="1456" type="line"/>
    </contour>
    <contour>
      <point x="361" y="727" type="line"/>
      <point x="361" y="1298" type="line"/>
      <point x="717" y="1298" type="line" smooth="yes"/>
      <point x="907.667" y="1294"/>
      <point x="1024" y="1182.333"/>
      <point x="1024" y="1009" type="curve" smooth="yes"/>
      <point x="1024" y="826.333"/>
      <point x="911.333" y="727"/>
      <point x="706" y="727" type="curve" smooth="yes"/>
    </contour>
  </outline>
</glyph>
<glyph name="Q" format="2">
  <advance width="1408"/>
  <unicode hex="0051"/>
  <note>
uni0051
</note>
  <outline>
    <contour>
      <point x="1147" y="-246" type="line"/>
      <point x="1278" y="-125" type="line"/>
      <point x="1018" y="79" type="line"/>
      <point x="1179" y="194"/>
      <point x="1273" y="400"/>
      <point x="1273" y="681" type="curve" smooth="yes"/>
      <point x="1273" y="774" type="line" smooth="yes"/>
      <point x="1273" y="1058"/>
      <point x="1174" y="1278"/>
      <point x="996" y="1391" type="curve" smooth="yes"/>
      <point x="907" y="1448"/>
      <point x="803" y="1476"/>
      <point x="686" y="1476" type="curve" smooth="yes"/>
      <point x="457" y="1476"/>
      <point x="271" y="1359"/>
      <point x="174" y="1144" type="curve" smooth="yes"/>
      <point x="125" y="1037"/>
      <point x="101" y="913"/>
      <point x="101" y="773" type="curve" smooth="yes"/>
      <point x="101" y="668" type="line" smooth="yes"/>
      <point x="105" y="282"/>
      <point x="314" y="-20"/>
      <point x="688" y="-20" type="curve" smooth="yes"/>
      <point x="741" y="-20"/>
      <point x="792" y="-14"/>
      <point x="840" y="-2" type="curve"/>
    </contour>
    <contour>
      <point x="688" y="143" type="curve" smooth="yes"/>
      <point x="440" y="143"/>
      <point x="293" y="348"/>
      <point x="293" y="681" type="curve" smooth="yes"/>
      <point x="293" y="788" type="line" smooth="yes"/>
      <point x="297" y="1116"/>
      <point x="445" y="1311"/>
      <point x="686" y="1311" type="curve" smooth="yes"/>
      <point x="939" y="1311"/>
      <point x="1081" y="1118"/>
      <point x="1081" y="775" type="curve" smooth="yes"/>
      <point x="1081" y="667" type="line" smooth="yes"/>
      <point x="1077" y="330"/>
      <point x="936" y="143"/>
    </contour>
  </outline>
</glyph>
<glyph name="R" format="2">
  <advance width="1261"/>
  <unicode hex="0052"/>
  <note>
uni0052
</note>
  <outline>
    <contour>
      <point x="168" y="0" type="line"/>
      <point x="361" y="0" type="line"/>
      <point x="361" y="589" type="line"/>
      <point x="703" y="589" type="line"/>
      <point x="1019" y="0" type="line"/>
      <point x="1225" y="0" type="line"/>
      <point x="1225" y="12" type="line"/>
      <point x="883" y="630" type="line"/>
      <point x="1057.667" y="696.667"/>
      <point x="1161" y="836.667"/>
      <point x="1161" y="1018" type="curve" smooth="yes"/>
      <point x="1161" y="1303.333"/>
      <point x="978" y="1456"/>
      <point x="650" y="1456" type="curve" smooth="yes"/>
      <point x="168" y="1456" type="line"/>
    </contour>
    <contour>
      <point x="361" y="746" type="line"/>
      <point x="361" y="1298" type="line"/>
      <point x="655" y="1298" type="line" smooth="yes"/>
      <point x="857.667" y="1296.667"/>
      <point x="968" y="1198"/>
      <point x="968" y="1018" type="curve" smooth="yes"/>
      <point x="968" y="852.667"/>
      <point x="846.667" y="746"/>
      <point x="656" y="746" type="curve" smooth="yes"/>
    </contour>
  </outline>
</glyph>
<glyph name="S" format="2">
  <advance width="1215"/>
  <unicode hex="0053"/>
  <note>
uni0053
</note>
  <outline>
    <contour>
      <point x="631" y="-20" type="curve" smooth="yes"/>
      <point x="939" y="-20"/>
      <point x="1138" y="134"/>
      <point x="1138" y="370" type="curve" smooth="yes"/>
      <point x="1138" y="518"/>
      <point x="1073" y="625"/>
      <point x="937" y="707" type="curve" smooth="yes"/>
      <point x="868" y="748"/>
      <point x="774" y="785"/>
      <point x="653" y="819" type="curve" smooth="yes"/>
      <point x="411" y="887"/>
      <point x="320" y="963"/>
      <point x="320" y="1082" type="curve" smooth="yes"/>
      <point x="320" y="1230"/>
      <point x="432" y="1318"/>
      <point x="621" y="1318" type="curve" smooth="yes"/>
      <point x="825" y="1318"/>
      <point x="942" y="1211"/>
      <point x="942" y="1035" type="curve"/>
      <point x="1135" y="1035" type="line"/>
      <point x="1135" y="1196"/>
      <point x="1045" y="1341"/>
      <point x="889" y="1418" type="curve" smooth="yes"/>
      <point x="810" y="1457"/>
      <point x="721" y="1476"/>
      <point x="621" y="1476" type="curve" smooth="yes"/>
      <point x="328" y="1476"/>
      <point x="126" y="1308"/>
      <point x="126" y="1079" type="curve" smooth="yes"/>
      <point x="126" y="876"/>
      <point x="269" y="744"/>
      <point x="598" y="649" type="curve" smooth="yes"/>
      <point x="861" y="573"/>
      <point x="945" y="511"/>
      <point x="945" y="368" type="curve" smooth="yes"/>
      <point x="945" y="225"/>
      <point x="834" y="137"/>
      <point x="631" y="137" type="curve" smooth="yes"/>
      <point x="414" y="137"/>
      <point x="273" y="246"/>
      <point x="273" y="422" type="curve"/>
      <point x="80" y="422" type="line"/>
      <point x="80" y="253"/>
      <point x="178" y="114"/>
      <point x="351" y="38" type="curve" smooth="yes"/>
      <point x="438" y="-1"/>
      <point x="531" y="-20"/>
    </contour>
  </outline>
</glyph>
<glyph name="V" format="2">
  <advance width="1303"/>
  <unicode hex="0056"/>
  <note>
uni0056
</note>
  <outline>
    <contour>
      <point x="567" y="0" type="line"/>
      <point x="737" y="0" type="line"/>
      <point x="1277" y="1456" type="line"/>
      <point x="1067" y="1456" type="line"/>
      <point x="651" y="255" type="line"/>
      <point x="237" y="1456" type="line"/>
      <point x="28" y="1456" type="line"/>
    </contour>
  </outline>
</glyph>
<glyph name="W" format="2">
  <advance width="1817"/>
  <unicode hex="0057"/>
  <note>
uni0057
</note>
  <outline>
    <contour>
      <point x="413" y="0" type="line"/>
      <point x="588" y="0" type="line"/>
      <point x="922" y="1172" type="line"/>
      <point x="1245" y="0" type="line"/>
      <point x="1420" y="0" type="line"/>
      <point x="1773" y="1456" type="line"/>
      <point x="1580" y="1456" type="line"/>
      <point x="1323" y="264" type="line"/>
      <point x="1002" y="1456" type="line"/>
      <point x="840" y="1456" type="line"/>
      <point x="511" y="267" type="line"/>
      <point x="253" y="1456" type="line"/>
      <point x="61" y="1456" type="line"/>
    </contour>
  </outline>
</glyph>
<glyph name="c" format="2">
  <advance width="1072"/>
  <unicode hex="0063"/>
  <note>
uni0063
</note>
  <outline>
    <contour>
      <point x="584" y="-20" type="curve" smooth="yes"/>
      <point x="795" y="-20"/>
      <point x="1004" y="136"/>
      <point x="1014" y="341" type="curve"/>
      <point x="839" y="341" type="line"/>
      <point x="828" y="221"/>
      <point x="716" y="131"/>
      <point x="584" y="131" type="curve" smooth="yes"/>
      <point x="393" y="131"/>
      <point x="287" y="271"/>
      <point x="287" y="520" type="curve" smooth="yes"/>
      <point x="287" y="555" type="line" smooth="yes"/>
      <point x="287" y="811"/>
      <point x="395" y="950"/>
      <point x="583" y="950" type="curve" smooth="yes"/>
      <point x="723" y="950"/>
      <point x="828" y="850"/>
      <point x="839" y="710" type="curve"/>
      <point x="1014" y="710" type="line"/>
      <point x="1003" y="942"/>
      <point x="826" y="1102"/>
      <point x="583" y="1102" type="curve" smooth="yes"/>
      <point x="293" y="1102"/>
      <point x="103" y="894"/>
      <point x="102" y="562" type="curve" smooth="yes"/>
      <point x="102" y="531" type="line" smooth="yes"/>
      <point x="102" y="190"/>
      <point x="289" y="-20"/>
    </contour>
  </outline>
</glyph>
<glyph name="e" format="2">
  <advance width="1085"/>
  <unicode hex="0065"/>
  <note>
uni0065
</note>
  <outline>
    <contour>
      <point x="599" y="-20" type="curve" smooth="yes"/>
      <point x="780" y="-20"/>
      <point x="916" y="50"/>
      <point x="1007" y="189" type="curve"/>
      <point x="894" y="277" type="line"/>
      <point x="826" y="189"/>
      <point x="740" y="131"/>
      <point x="609" y="131" type="curve" smooth="yes"/>
      <point x="425" y="131"/>
      <point x="293" y="275"/>
      <point x="288" y="488" type="curve"/>
      <point x="1021" y="488" type="line"/>
      <point x="1021" y="565" type="line" smooth="yes"/>
      <point x="1021" y="910"/>
      <point x="857" y="1102"/>
      <point x="576" y="1102" type="curve" smooth="yes"/>
      <point x="404" y="1102"/>
      <point x="247" y="1001"/>
      <point x="165" y="833" type="curve" smooth="yes"/>
      <point x="124" y="748"/>
      <point x="103" y="652"/>
      <point x="103" y="511" type="curve" smooth="yes"/>
      <point x="103" y="188"/>
      <point x="306" y="-20"/>
    </contour>
    <contour>
      <point x="294" y="640" type="line"/>
      <point x="318" y="836"/>
      <point x="427" y="950"/>
      <point x="576" y="950" type="curve" smooth="yes"/>
      <point x="731" y="950"/>
      <point x="825" y="842"/>
      <point x="836" y="654" type="curve" smooth="yes"/>
      <point x="836" y="640" type="line"/>
    </contour>
  </outline>
</glyph>
<glyph name="j" format="2">
  <advance width="489"/>
  <unicode hex="006A"/>
  <note>
uni006A
</note>
  <outline>
    <contour>
      <point x="48" y="-437" type="curve" smooth="yes"/>
      <point x="236.667" y="-437"/>
      <point x="331" y="-333"/>
      <point x="331" y="-125" type="curve" smooth="yes"/>
      <point x="331" y="1082" type="line"/>
      <point x="146" y="1082" type="line"/>
      <point x="146" y="-129" type="line" smooth="yes"/>
      <point x="146" y="-239.667"/>
      <point x="101.667" y="-279"/>
      <point x="19" y="-279" type="curve" smooth="yes"/>
      <point x="-15.667" y="-279"/>
      <point x="-43.667" y="-276.333"/>
      <point x="-65" y="-271" type="curve"/>
      <point x="-65" y="-419" type="line"/>
      <point x="-30.333" y="-431"/>
      <point x="7.333" y="-437"/>
    </contour>
    <contour>
      <point x="127" y="1369" type="curve" smooth="yes"/>
      <point x="127" y="1309"/>
      <point x="163" y="1264"/>
      <point x="235" y="1264" type="curve" smooth="yes"/>
      <point x="307" y="1264"/>
      <point x="345" y="1309"/>
      <point x="345" y="1369" type="curve" smooth="yes"/>
      <point x="345" y="1429"/>
      <point x="307" y="1476"/>
      <point x="235" y="1476" type="curve" smooth="yes"/>
      <point x="164.333" y="1476"/>
      <point x="127" y="1427.667"/>
    </contour>
  </outline>
</glyph>
<glyph name="m" format="2">
  <advance width="1795"/>
  <unicode hex="006D"/>
  <note>
uni006D
</note>
  <outline>
    <contour>
      <point x="140" y="0" type="line"/>
      <point x="325" y="0" type="line"/>
      <point x="325" y="790" type="line"/>
      <point x="370" y="893"/>
      <point x="453" y="945"/>
      <point x="574" y="945" type="curve" smooth="yes"/>
      <point x="728" y="945"/>
      <point x="805" y="866"/>
      <point x="805" y="709" type="curve" smooth="yes"/>
      <point x="805" y="0" type="line"/>
      <point x="991" y="0" type="line"/>
      <point x="991" y="718" type="line"/>
      <point x="1006" y="857"/>
      <point x="1104" y="945"/>
      <point x="1241" y="945" type="curve" smooth="yes"/>
      <point x="1408" y="945"/>
      <point x="1472" y="869"/>
      <point x="1472" y="714" type="curve" smooth="yes"/>
      <point x="1472" y="0" type="line"/>
      <point x="1657" y="0" type="line"/>
      <point x="1657" y="725" type="line" smooth="yes"/>
      <point x="1653" y="976"/>
      <point x="1532" y="1102"/>
      <point x="1295" y="1102" type="curve" smooth="yes"/>
      <point x="1138" y="1102"/>
      <point x="1022" y="1032"/>
      <point x="950" y="928" type="curve"/>
      <point x="895" y="1044"/>
      <point x="792" y="1102"/>
      <point x="641" y="1102" type="curve" smooth="yes"/>
      <point x="506" y="1102"/>
      <point x="399" y="1055"/>
      <point x="320" y="962" type="curve"/>
      <point x="315" y="1082" type="line"/>
      <point x="140" y="1082" type="line"/>
    </contour>
  </outline>
</glyph>
<glyph name="o" format="2">
  <advance width="1168"/>
  <unicode hex="006F"/>
  <note>
uni006F
</note>
  <outline>
    <contour>
      <point x="584" y="-20" type="curve" smooth="yes"/>
      <point x="778.667" y="-20"/>
      <point x="934.833" y="78.167"/>
      <point x="1015.5" y="245.5" type="curve" smooth="yes"/>
      <point x="1055.833" y="329.167"/>
      <point x="1076" y="423.667"/>
      <point x="1076" y="529" type="curve" smooth="yes"/>
      <point x="1076" y="542" type="line" smooth="yes"/>
      <point x="1076" y="880.667"/>
      <point x="876.667" y="1102"/>
      <point x="582" y="1102" type="curve" smooth="yes"/>
      <point x="391.333" y="1102"/>
      <point x="236.833" y="1006.333"/>
      <point x="153.5" y="837" type="curve" smooth="yes"/>
      <point x="111.833" y="752.333"/>
      <point x="91" y="657"/>
      <point x="91" y="551" type="curve" smooth="yes"/>
      <point x="91" y="538" type="line" smooth="yes"/>
      <point x="91" y="202"/>
      <point x="290.667" y="-20"/>
    </contour>
    <contour>
      <point x="584" y="131" type="curve" smooth="yes"/>
      <point x="397.333" y="131"/>
      <point x="277" y="289"/>
      <point x="277" y="529" type="curve" smooth="yes"/>
      <point x="277" y="799.667"/>
      <point x="399.333" y="950"/>
      <point x="582" y="950" type="curve" smooth="yes"/>
      <point x="768.667" y="950"/>
      <point x="891" y="788.333"/>
      <point x="891" y="551" type="curve" smooth="yes"/>
      <point x="891" y="285.667"/>
      <point x="772" y="131"/>
    </contour>
  </outline>
</glyph>
<glyph name="q" format="2">
  <advance width="1164"/>
  <unicode hex="0071"/>
  <note>
uni0071
</note>
  <outline>
    <contour>
      <point x="822" y="-416" type="line"/>
      <point x="1007" y="-416" type="line"/>
      <point x="1007" y="1082" type="line"/>
      <point x="837" y="1082" type="line"/>
      <point x="829" y="973" type="line"/>
      <point x="755" y="1059"/>
      <point x="654" y="1102"/>
      <point x="526" y="1102" type="curve" smooth="yes"/>
      <point x="263.333" y="1102"/>
      <point x="95" y="890"/>
      <point x="95" y="537" type="curve" smooth="yes"/>
      <point x="95" y="201"/>
      <point x="262.667" y="-20"/>
      <point x="524" y="-20" type="curve" smooth="yes"/>
      <point x="648" y="-20"/>
      <point x="747.333" y="20"/>
      <point x="822" y="100" type="curve"/>
    </contour>
    <contour>
      <point x="570" y="131" type="curve" smooth="yes"/>
      <point x="392.667" y="131"/>
      <point x="280" y="281"/>
      <point x="280" y="529" type="curve" smooth="yes"/>
      <point x="280" y="806.333"/>
      <point x="393.333" y="950"/>
      <point x="572" y="950" type="curve" smooth="yes"/>
      <point x="680" y="950"/>
      <point x="763.333" y="902.333"/>
      <point x="822" y="807" type="curve"/>
      <point x="822" y="277" type="line"/>
      <point x="764" y="179.667"/>
      <point x="680" y="131"/>
    </contour>
  </outline>
</glyph>
<glyph name="r" format="2">
  <advance width="693"/>
  <unicode hex="0072"/>
  <note>
uni0072
</note>
  <outline>
    <contour>
      <point x="140" y="0" type="line"/>
      <point x="325" y="0" type="line"/>
      <point x="325" y="768" type="line"/>
      <point x="368.333" y="871.333"/>
      <point x="450.667" y="923"/>
      <point x="572" y="923" type="curve"/>
      <point x="663" y="916" type="line"/>
      <point x="663" y="1088" type="line"/>
      <point x="644.333" y="1097.333"/>
      <point x="617" y="1102"/>
      <point x="581" y="1102" type="curve" smooth="yes"/>
      <point x="469.667" y="1102"/>
      <point x="383.667" y="1053.667"/>
      <point x="323" y="957" type="curve"/>
      <point x="320" y="1082" type="line"/>
      <point x="140" y="1082" type="line"/>
    </contour>
  </outline>
</glyph>
<glyph name="y" format="2">
  <advance width="969"/>
  <unicode hex="0079"/>
  <note>
uni0079
</note>
  <outline>
    <contour>
      <point x="187" y="-428" type="curve" smooth="yes"/>
      <point x="247" y="-427"/>
      <point x="460" y="-364"/>
      <point x="529" y="-167" type="curve" smooth="yes"/>
      <point x="964" y="1082" type="line"/>
      <point x="766" y="1082" type="line"/>
      <point x="514" y="271" type="line"/>
      <point x="244" y="1082" type="line"/>
      <point x="42" y="1082" type="line"/>
      <point x="428" y="12" type="line"/>
      <point x="387" y="-98" type="line" smooth="yes"/>
      <point x="346" y="-209"/>
      <point x="300" y="-266"/>
      <point x="186" y="-269" type="curve" smooth="yes"/>
      <point x="104" y="-271" type="line"/>
      <point x="104" y="-421" type="line"/>
      <point x="133" y="-425"/>
      <point x="161" y="-428"/>
    </contour>
  </outline>
</glyph>
<glyph name="asciitilde" format="2">
  <advance width="1393"/>
  <unicode hex="007E"/>
  <note>
uni007E
</note>
  <outline>
    <contour>
      <point x="939" y="402" type="curve" smooth="yes"/>
      <point x="1121.667" y="402"/>
      <point x="1263" y="566.333"/>
      <point x="1263" y="777" type="curve"/>
      <point x="1110" y="776" type="line"/>
      <point x="1110" y="649.333"/>
      <point x="1040" y="560"/>
      <point x="910" y="567" type="curve" smooth="yes"/>
      <point x="867" y="569"/>
      <point x="816.667" y="603.833"/>
      <point x="758" y="657.5" type="curve" smooth="yes"/>
      <point x="640.667" y="764.833"/>
      <point x="555.333" y="802"/>
      <point x="454" y="802" type="curve" smooth="yes"/>
      <point x="268.667" y="802"/>
      <point x="131" y="649.333"/>
      <point x="131" y="436" type="curve"/>
      <point x="292" y="438" type="line"/>
      <point x="292" y="563.333"/>
      <point x="350" y="639"/>
      <point x="454" y="639" type="curve" smooth="yes"/>
      <point x="536" y="639"/>
      <point x="594" y="582"/>
      <point x="654.5" y="529" type="curve" smooth="yes"/>
      <point x="767.167" y="430.333"/>
      <point x="843" y="402"/>
    </contour>
  </outline>
</glyph>
<glyph name="sterling" format="2">
  <advance width="1190"/>
  <unicode hex="00A3"/>
  <note>
uni00A3
</note>
  <outline>
    <contour>
      <point x="95" y="0" type="line"/>
      <point x="1127" y="0" type="line"/>
      <point x="1128" y="157" type="line"/>
      <point x="395" y="157" type="line"/>
      <point x="436.333" y="217.667"/>
      <point x="457" y="299.333"/>
      <point x="457" y="402" type="curve"/>
      <point x="449" y="622" type="line"/>
      <point x="763" y="622" type="line"/>
      <point x="763" y="779" type="line"/>
      <point x="444" y="779" type="line"/>
      <point x="435" y="1039" type="line"/>
      <point x="435" y="1205.667"/>
      <point x="530" y="1318"/>
      <point x="670" y="1318" type="curve" smooth="yes"/>
      <point x="818" y="1318"/>
      <point x="908" y="1229.667"/>
      <point x="908" y="1087" type="curve"/>
      <point x="1099" y="1087" type="line"/>
      <point x="1099" y="1323"/>
      <point x="940.333" y="1476"/>
      <point x="687" y="1476" type="curve" smooth="yes"/>
      <point x="420.333" y="1476"/>
      <point x="242" y="1304.333"/>
      <point x="242" y="1039" type="curve"/>
      <point x="251" y="779" type="line"/>
      <point x="91" y="779" type="line"/>
      <point x="91" y="622" type="line"/>
      <point x="256" y="622" type="line"/>
      <point x="264" y="393" type="line" smooth="yes"/>
      <point x="261.333" y="265"/>
      <point x="225.333" y="169"/>
      <point x="172" y="157" type="curve"/>
      <point x="95" y="157" type="line"/>
    </contour>
  </outline>
</glyph>
<glyph name="currency" format="2">
  <advance width="1460"/>
  <unicode hex="00A4"/>
  <note>
uni00A4
</note>
  <outline>
    <contour>
      <point x="1239" y="-27" type="line"/>
      <point x="1371" y="109" type="line"/>
      <point x="1228" y="253" type="line"/>
      <point x="1296" y="359"/>
      <point x="1330" y="477.333"/>
      <point x="1330" y="608" type="curve" smooth="yes"/>
      <point x="1330" y="743.333"/>
      <point x="1293.333" y="865.333"/>
      <point x="1220" y="974" type="curve"/>
      <point x="1371" y="1128" type="line"/>
      <point x="1239" y="1265" type="line"/>
      <point x="1090" y="1113" type="line"/>
      <point x="984" y="1193.667"/>
      <point x="865.667" y="1234"/>
      <point x="735" y="1234" type="curve" smooth="yes"/>
      <point x="605" y="1234"/>
      <point x="487.333" y="1194"/>
      <point x="382" y="1114" type="curve"/>
      <point x="235" y="1264" type="line"/>
      <point x="105" y="1128" type="line"/>
      <point x="252" y="977" type="line"/>
      <point x="177.333" y="868.333"/>
      <point x="140" y="745.333"/>
      <point x="140" y="608" type="curve" smooth="yes"/>
      <point x="140" y="473.333"/>
      <point x="174.667" y="354"/>
      <point x="244" y="250" type="curve"/>
      <point x="105" y="109" type="line"/>
      <point x="235" y="-26" type="line"/>
      <point x="369" y="110" type="line"/>
      <point x="475" y="23.333"/>
      <point x="597" y="-20"/>
      <point x="735" y="-20" type="curve" smooth="yes"/>
      <point x="874.333" y="-20"/>
      <point x="997" y="24"/>
      <point x="1103" y="112" type="curve"/>
    </contour>
    <contour>
      <point x="735" y="151" type="curve" smooth="yes"/>
      <point x="503" y="151"/>
      <point x="311" y="355"/>
      <point x="311" y="608" type="curve" smooth="yes"/>
      <point x="311" y="855"/>
      <point x="498" y="1062"/>
      <point x="735" y="1062" type="curve" smooth="yes"/>
      <point x="1090.073" y="1057.542"/>
      <point x="1157" y="660"/>
      <point x="1157" y="608" type="curve" smooth="yes"/>
      <point x="1157" y="362"/>
      <point x="972" y="151"/>
    </contour>
  </outline>
</glyph>
<glyph name="section" format="2">
  <advance width="1256"/>
  <unicode hex="00A7"/>
  <outline>
    <contour>
      <point x="612" y="-495" type="curve" smooth="yes"/>
      <point x="916" y="-495"/>
      <point x="1100" y="-352"/>
      <point x="1100" y="-128" type="curve" smooth="yes"/>
      <point x="1100" y="5.333"/>
      <point x="1051" y="91.667"/>
      <point x="959" y="157" type="curve"/>
      <point x="1083" y="213.667"/>
      <point x="1145" y="305"/>
      <point x="1145" y="431" type="curve" smooth="yes"/>
      <point x="1145" y="706"/>
      <point x="925" y="784"/>
      <point x="661.5" y="858" type="curve" smooth="yes"/>
      <point x="526" y="896"/>
      <point x="327" y="933"/>
      <point x="327" y="1112" type="curve" smooth="yes"/>
      <point x="327" y="1242.667"/>
      <point x="440.667" y="1325"/>
      <point x="630" y="1325" type="curve" smooth="yes"/>
      <point x="815.333" y="1325"/>
      <point x="937" y="1211.667"/>
      <point x="937" y="1045" type="curve"/>
      <point x="1122" y="1045" type="line"/>
      <point x="1122" y="1318.333"/>
      <point x="939.333" y="1476"/>
      <point x="630" y="1476" type="curve" smooth="yes"/>
      <point x="334" y="1476"/>
      <point x="141" y="1331.333"/>
      <point x="141" y="1110" type="curve" smooth="yes"/>
      <point x="141" y="976.667"/>
      <point x="190" y="890.333"/>
      <point x="278" y="825" type="curve"/>
      <point x="156.667" y="766.333"/>
      <point x="96" y="675"/>
      <point x="96" y="551" type="curve" smooth="yes"/>
      <point x="96" y="281"/>
      <point x="331" y="235"/>
      <point x="563" y="126" type="curve" smooth="yes"/>
      <point x="763" y="32"/>
      <point x="914" y="0"/>
      <point x="914" y="-130" type="curve" smooth="yes"/>
      <point x="914" y="-258"/>
      <point x="793.333" y="-343"/>
      <point x="612" y="-343" type="curve" smooth="yes"/>
      <point x="404" y="-343"/>
      <point x="276" y="-235.333"/>
      <point x="276" y="-62" type="curve"/>
      <point x="90" y="-64" type="line"/>
      <point x="90" y="-364"/>
      <point x="321" y="-495"/>
    </contour>
    <contour>
      <point x="786" y="208" type="curve"/>
      <point x="683" y="248"/>
      <point x="525" y="309"/>
      <point x="403" y="370" type="curve" smooth="yes"/>
      <point x="314" y="414"/>
      <point x="282" y="459.667"/>
      <point x="282" y="553" type="curve" smooth="yes"/>
      <point x="282" y="645"/>
      <point x="330" y="717"/>
      <point x="437" y="742" type="curve"/>
      <point x="673" y="666" type="line" smooth="yes"/>
      <point x="812" y="621"/>
      <point x="959" y="578"/>
      <point x="959" y="428" type="curve" smooth="yes"/>
      <point x="959" y="336"/>
      <point x="890" y="235"/>
    </contour>
  </outline>
</glyph>
<glyph name="ordfeminine" format="2">
  <advance width="915"/>
  <unicode hex="00AA"/>
  <note>
uni00AA
</note>
  <outline>
    <contour>
      <point x="396" y="691" type="curve" smooth="yes"/>
      <point x="481.333" y="691"/>
      <point x="549.333" y="719.667"/>
      <point x="600" y="777" type="curve"/>
      <point x="604" y="751.667"/>
      <point x="610" y="727.667"/>
      <point x="618" y="705" type="curve"/>
      <point x="783" y="705" type="line"/>
      <point x="765.667" y="759"/>
      <point x="757" y="818.333"/>
      <point x="757" y="883" type="curve" smooth="yes"/>
      <point x="757" y="1199" type="line" smooth="yes"/>
      <point x="757" y="1377.667"/>
      <point x="647.333" y="1476"/>
      <point x="470" y="1476" type="curve" smooth="yes"/>
      <point x="287.333" y="1476"/>
      <point x="161" y="1380.333"/>
      <point x="161" y="1243" type="curve"/>
      <point x="322" y="1231" type="line"/>
      <point x="322" y="1299"/>
      <point x="378" y="1336"/>
      <point x="470" y="1336" type="curve" smooth="yes"/>
      <point x="552.667" y="1336"/>
      <point x="594" y="1291"/>
      <point x="594" y="1201" type="curve" smooth="yes"/>
      <point x="594" y="1149" type="line"/>
      <point x="486" y="1149" type="line" smooth="yes"/>
      <point x="256.667" y="1149"/>
      <point x="147" y="1066"/>
      <point x="147" y="918" type="curve" smooth="yes"/>
      <point x="147" y="780.667"/>
      <point x="237.333" y="691"/>
    </contour>
    <contour>
      <point x="435" y="828" type="curve" smooth="yes"/>
      <point x="351.667" y="828"/>
      <point x="310" y="859.333"/>
      <point x="310" y="922" type="curve" smooth="yes"/>
      <point x="310" y="990"/>
      <point x="371.333" y="1035.667"/>
      <point x="482" y="1037" type="curve" smooth="yes"/>
      <point x="594" y="1037" type="line"/>
      <point x="594" y="895" type="line"/>
      <point x="556.667" y="859"/>
      <point x="492.333" y="828"/>
    </contour>
  </outline>
</glyph>
<glyph name="degree" format="2">
  <advance width="765"/>
  <unicode hex="00B0"/>
  <note>
uni00B0
</note>
  <outline>
    <contour>
      <point x="385" y="960" type="curve" smooth="yes"/>
      <point x="523.667" y="960"/>
      <point x="636" y="1074.667"/>
      <point x="636" y="1216" type="curve" smooth="yes"/>
      <point x="636" y="1356"/>
      <point x="523.667" y="1476"/>
      <point x="385" y="1476" type="curve" smooth="yes"/>
      <point x="243.667" y="1476"/>
      <point x="130" y="1354.667"/>
      <point x="130" y="1216" type="curve" smooth="yes"/>
      <point x="130" y="1074.667"/>
      <point x="245" y="960"/>
    </contour>
    <contour>
      <point x="255" y="1216" type="curve" smooth="yes"/>
      <point x="255" y="1288"/>
      <point x="311.667" y="1349"/>
      <point x="385" y="1349" type="curve" smooth="yes"/>
      <point x="457" y="1349"/>
      <point x="513" y="1293.333"/>
      <point x="513" y="1216" type="curve" smooth="yes"/>
      <point x="513" y="1140"/>
      <point x="457" y="1088"/>
      <point x="385" y="1088" type="curve" smooth="yes"/>
      <point x="311.667" y="1088"/>
      <point x="255" y="1144"/>
    </contour>
  </outline>
</glyph>
<glyph name="twosuperior" format="2">
  <advance width="751"/>
  <unicode hex="00B2"/>
  <note>
uni00B2
</note>
  <outline>
    <contour>
      <point x="84" y="667" type="line"/>
      <point x="683" y="667" type="line"/>
      <point x="683" y="795" type="line"/>
      <point x="284" y="795" type="line"/>
      <point x="460" y="940" type="line"/>
      <point x="615.333" y="1090.333"/>
      <point x="651" y="1160.667"/>
      <point x="651" y="1230" type="curve" smooth="yes"/>
      <point x="651" y="1376.667"/>
      <point x="541" y="1467"/>
      <point x="365" y="1467" type="curve" smooth="yes"/>
      <point x="189" y="1467"/>
      <point x="66" y="1357"/>
      <point x="66" y="1205" type="curve"/>
      <point x="223" y="1205" type="line"/>
      <point x="223" y="1281"/>
      <point x="269" y="1338"/>
      <point x="369" y="1338" type="curve" smooth="yes"/>
      <point x="449" y="1338"/>
      <point x="493" y="1293.333"/>
      <point x="493" y="1228" type="curve" smooth="yes"/>
      <point x="493" y="1182"/>
      <point x="456.667" y="1125"/>
      <point x="384" y="1057" type="curve" smooth="yes"/>
      <point x="84" y="775" type="line"/>
    </contour>
  </outline>
</glyph>
<glyph name="threesuperior" format="2">
  <advance width="751"/>
  <unicode hex="00B3"/>
  <note>
uni00B3
</note>
  <outline>
    <contour>
      <point x="360" y="656" type="curve" smooth="yes"/>
      <point x="541.333" y="656"/>
      <point x="666" y="745.667"/>
      <point x="666" y="887" type="curve" smooth="yes"/>
      <point x="666" y="982.333"/>
      <point x="616.333" y="1043.667"/>
      <point x="517" y="1071" type="curve"/>
      <point x="605" y="1104.333"/>
      <point x="653" y="1168.667"/>
      <point x="653" y="1242" type="curve" smooth="yes"/>
      <point x="653" y="1380.667"/>
      <point x="542.667" y="1467"/>
      <point x="360" y="1467" type="curve" smooth="yes"/>
      <point x="194.667" y="1467"/>
      <point x="73" y="1376.667"/>
      <point x="73" y="1246" type="curve"/>
      <point x="230" y="1246" type="line"/>
      <point x="230" y="1300.667"/>
      <point x="286" y="1338"/>
      <point x="362" y="1338" type="curve" smooth="yes"/>
      <point x="455.333" y="1338"/>
      <point x="495" y="1295"/>
      <point x="495" y="1235" type="curve" smooth="yes"/>
      <point x="495" y="1171"/>
      <point x="447.667" y="1126"/>
      <point x="349" y="1126" type="curve" smooth="yes"/>
      <point x="265" y="1126" type="line"/>
      <point x="265" y="1010" type="line"/>
      <point x="353" y="1010" type="line" smooth="yes"/>
      <point x="457" y="1008.667"/>
      <point x="509" y="970.333"/>
      <point x="509" y="895" type="curve" smooth="yes"/>
      <point x="509" y="827"/>
      <point x="459.333" y="784"/>
      <point x="366" y="784" type="curve" smooth="yes"/>
      <point x="276.667" y="784"/>
      <point x="220" y="829"/>
      <point x="220" y="889" type="curve"/>
      <point x="62" y="889" type="line"/>
      <point x="62" y="746.333"/>
      <point x="184" y="656"/>
    </contour>
  </outline>
</glyph>
<glyph name="micro" format="2">
  <advance width="1160"/>
  <unicode hex="00B5"/>
  <note>
uni00B5
</note>
  <outline>
    <contour>
      <point x="154" y="-416" type="line"/>
      <point x="339" y="-416" type="line"/>
      <point x="339" y="53" type="line"/>
      <point x="393" y="4.333"/>
      <point x="469" y="-20"/>
      <point x="567" y="-20" type="curve" smooth="yes"/>
      <point x="680.333" y="-20"/>
      <point x="768" y="25"/>
      <point x="830" y="115" type="curve"/>
      <point x="839" y="0" type="line"/>
      <point x="1006" y="0" type="line"/>
      <point x="1006" y="1082" type="line"/>
      <point x="820" y="1082" type="line"/>
      <point x="820" y="282" type="line"/>
      <point x="778.667" y="180.667"/>
      <point x="691.667" y="130"/>
      <point x="559" y="130" type="curve" smooth="yes"/>
      <point x="404.333" y="130"/>
      <point x="340.333" y="231.667"/>
      <point x="339" y="449" type="curve" smooth="yes"/>
      <point x="339" y="1082" type="line"/>
      <point x="154" y="1082" type="line"/>
    </contour>
  </outline>
</glyph>
<glyph name="questiondown" format="2">
  <advance width="969"/>
  <unicode hex="00BF"/>
  <note>
uni00BF
</note>
  <outline>
    <contour>
      <point x="478" y="-385" type="curve" smooth="yes"/>
      <point x="722" y="-385"/>
      <point x="885.333" y="-234.667"/>
      <point x="888" y="-20" type="curve"/>
      <point x="703" y="-20" type="line"/>
      <point x="703" y="-141.333"/>
      <point x="611.333" y="-224"/>
      <point x="478" y="-224" type="curve" smooth="yes"/>
      <point x="332.667" y="-224"/>
      <point x="253" y="-145.333"/>
      <point x="255" y="37" type="curve" smooth="yes"/>
      <point x="262.333" y="103"/>
      <point x="296.667" y="168.167"/>
      <point x="358" y="232.5" type="curve" smooth="yes"/>
      <point x="484" y="364"/>
      <point x="586" y="444"/>
      <point x="588" y="680" type="curve"/>
      <point x="403" y="680" type="line"/>
      <point x="403" y="582.667"/>
      <point x="384" y="506"/>
      <point x="337" y="456" type="curve"/>
      <point x="121" y="226"/>
      <point x="68" y="110.333"/>
      <point x="68" y="-5" type="curve" smooth="yes"/>
      <point x="68" y="-243.667"/>
      <point x="216.667" y="-385"/>
    </contour>
    <contour>
      <point x="487" y="890" type="curve" smooth="yes"/>
      <point x="559" y="890"/>
      <point x="596" y="937"/>
      <point x="596" y="997" type="curve" smooth="yes"/>
      <point x="596" y="1055.667"/>
      <point x="559" y="1101"/>
      <point x="487" y="1101" type="curve" smooth="yes"/>
      <point x="415" y="1101"/>
      <point x="377" y="1055.667"/>
      <point x="377" y="997" type="curve" smooth="yes"/>
      <point x="377" y="937"/>
      <point x="415" y="890"/>
    </contour>
  </outline>
</glyph>
<glyph name="multiply" format="2">
  <advance width="1092"/>
  <unicode hex="00D7"/>
  <note>
uni00D7
</note>
  <outline>
    <contour>
      <point x="208" y="206" type="line"/>
      <point x="539" y="543" type="line"/>
      <point x="870" y="206" type="line"/>
      <point x="989" y="329" type="line"/>
      <point x="659" y="665" type="line"/>
      <point x="987" y="1000" type="line"/>
      <point x="868" y="1123" type="line"/>
      <point x="539" y="788" type="line"/>
      <point x="210" y="1123" type="line"/>
      <point x="91" y="1000" type="line"/>
      <point x="419" y="665" type="line"/>
      <point x="89" y="329" type="line"/>
    </contour>
  </outline>
</glyph>
<glyph name="germandbls" format="2">
  <advance width="1218"/>
  <unicode hex="00DF"/>
  <note>
uni00DF
</note>
  <outline>
    <contour>
      <point x="745" y="-20" type="curve" smooth="yes"/>
      <point x="987.667" y="-20"/>
      <point x="1130" y="105"/>
      <point x="1130" y="317" type="curve" smooth="yes"/>
      <point x="1130" y="418.333"/>
      <point x="1075.333" y="505"/>
      <point x="950" y="601" type="curve" smooth="yes"/>
      <point x="824.667" y="697"/>
      <point x="781" y="751"/>
      <point x="781" y="819" type="curve" smooth="yes"/>
      <point x="781" y="865"/>
      <point x="802.333" y="921.833"/>
      <point x="845" y="989.5" type="curve" smooth="yes"/>
      <point x="887.667" y="1057.167"/>
      <point x="909" y="1132.667"/>
      <point x="909" y="1216" type="curve" smooth="yes"/>
      <point x="909" y="1428"/>
      <point x="772" y="1554"/>
      <point x="532" y="1554" type="curve" smooth="yes"/>
      <point x="284" y="1554"/>
      <point x="139" y="1388.333"/>
      <point x="139" y="1111" type="curve" smooth="yes"/>
      <point x="139" y="0" type="line"/>
      <point x="324" y="0" type="line"/>
      <point x="324" y="1109" type="line" smooth="yes"/>
      <point x="324" y="1304.333"/>
      <point x="396.667" y="1402"/>
      <point x="542" y="1402" type="curve" smooth="yes"/>
      <point x="659.333" y="1402"/>
      <point x="734" y="1326.333"/>
      <point x="734" y="1201" type="curve" smooth="yes"/>
      <point x="734" y="1145"/>
      <point x="710.833" y="1082.5"/>
      <point x="664.5" y="1013.5" type="curve" smooth="yes"/>
      <point x="618.167" y="944.5"/>
      <point x="595" y="880.333"/>
      <point x="595" y="821" type="curve" smooth="yes"/>
      <point x="595" y="713"/>
      <point x="650.5" y="626.5"/>
      <point x="776.5" y="528.5" type="curve" smooth="yes"/>
      <point x="902.5" y="430.5"/>
      <point x="945" y="376.333"/>
      <point x="945" y="307" type="curve" smooth="yes"/>
      <point x="945" y="197.667"/>
      <point x="867.667" y="131"/>
      <point x="725" y="131" type="curve" smooth="yes"/>
      <point x="654.333" y="131"/>
      <point x="553.333" y="164.333"/>
      <point x="488" y="207" type="curve"/>
      <point x="445" y="52" type="line"/>
      <point x="495.667" y="14.667"/>
      <point x="637" y="-20"/>
    </contour>
  </outline>
</glyph>
<glyph name="ae" format="2">
  <advance width="1729"/>
  <unicode hex="00E6"/>
  <note>
uni00E6
</note>
  <outline>
    <contour>
      <point x="433" y="-20" type="curve" smooth="yes"/>
      <point x="621" y="-20"/>
      <point x="778.333" y="45.333"/>
      <point x="865" y="160" type="curve"/>
      <point x="955.667" y="40"/>
      <point x="1088" y="-20"/>
      <point x="1262" y="-20" type="curve" smooth="yes"/>
      <point x="1410" y="-20"/>
      <point x="1536.667" y="20.333"/>
      <point x="1642" y="101" type="curve"/>
      <point x="1578" y="237" type="line"/>
      <point x="1450.333" y="155.333"/>
      <point x="1360.667" y="130"/>
      <point x="1262" y="130" type="curve" smooth="yes"/>
      <point x="1063.333" y="130"/>
      <point x="941.333" y="262.333"/>
      <point x="932" y="497" type="curve"/>
      <point x="1660" y="497" type="line"/>
      <point x="1660" y="612" type="line" smooth="yes"/>
      <point x="1660" y="922.667"/>
      <point x="1498" y="1102"/>
      <point x="1218" y="1102" type="curve" smooth="yes"/>
      <point x="1078" y="1102"/>
      <point x="960" y="1041.333"/>
      <point x="876" y="936" type="curve"/>
      <point x="809.333" y="1046.667"/>
      <point x="688.333" y="1102"/>
      <point x="535" y="1102" type="curve" smooth="yes"/>
      <point x="285.667" y="1102"/>
      <point x="106" y="968.667"/>
      <point x="106" y="778" type="curve"/>
      <point x="290" y="759" type="line"/>
      <point x="290" y="867"/>
      <point x="395" y="950"/>
      <point x="535" y="950" type="curve" smooth="yes"/>
      <point x="673.667" y="950"/>
      <point x="749" y="862.667"/>
      <point x="749" y="720" type="curve" smooth="yes"/>
      <point x="749" y="635" type="line"/>
      <point x="526" y="635" type="line" smooth="yes"/>
      <point x="231.333" y="635"/>
      <point x="78" y="513.333"/>
      <point x="78" y="304" type="curve" smooth="yes"/>
      <point x="78" y="102.667"/>
      <point x="210.333" y="-20"/>
    </contour>
    <contour>
      <point x="469" y="130" type="curve" smooth="yes"/>
      <point x="337" y="130"/>
      <point x="264" y="197.333"/>
      <point x="264" y="300" type="curve" smooth="yes"/>
      <point x="264" y="410.667"/>
      <point x="365" y="492.333"/>
      <point x="521" y="495" type="curve" smooth="yes"/>
      <point x="749" y="495" type="line"/>
      <point x="749" y="258" type="line"/>
      <point x="682.333" y="186"/>
      <point x="565" y="130"/>
    </contour>
    <contour>
      <point x="937" y="640" type="line"/>
      <point x="959.667" y="825.333"/>
      <point x="1064.667" y="950"/>
      <point x="1218" y="950" type="curve" smooth="yes"/>
      <point x="1382" y="950"/>
      <point x="1475" y="847"/>
      <point x="1475" y="671" type="curve" smooth="yes"/>
      <point x="1475" y="640" type="line"/>
    </contour>
  </outline>
</glyph>
<glyph name="oslash" format="2">
  <advance width="1160"/>
  <unicode hex="00F8"/>
  <note>
uni00F8
</note>
  <outline>
    <contour>
      <point x="196" y="-134" type="line"/>
      <point x="320" y="-134" type="line"/>
      <point x="394" y="15" type="line"/>
      <point x="451.333" y="-8.333"/>
      <point x="514.667" y="-20"/>
      <point x="584" y="-20" type="curve" smooth="yes"/>
      <point x="895" y="-20"/>
      <point x="1076" y="225"/>
      <point x="1076" y="529" type="curve" smooth="yes"/>
      <point x="1076" y="742.333"/>
      <point x="1011" y="900.333"/>
      <point x="881" y="1003" type="curve"/>
      <point x="983" y="1208" type="line"/>
      <point x="859" y="1208" type="line"/>
      <point x="786" y="1060" type="line"/>
      <point x="723.333" y="1088"/>
      <point x="655.333" y="1102"/>
      <point x="582" y="1102" type="curve" smooth="yes"/>
      <point x="229.07" y="1100.835"/>
      <point x="91" y="806"/>
      <point x="91" y="551" type="curve" smooth="yes"/>
      <point x="91" y="329"/>
      <point x="159.333" y="168.333"/>
      <point x="296" y="69" type="curve"/>
    </contour>
    <contour>
      <point x="373" y="224" type="line"/>
      <point x="308.333" y="298"/>
      <point x="276" y="399.667"/>
      <point x="276" y="529" type="curve" smooth="yes"/>
      <point x="276" y="799.667"/>
      <point x="398" y="950"/>
      <point x="582" y="950" type="curve" smooth="yes"/>
      <point x="630" y="950"/>
      <point x="674.667" y="939.333"/>
      <point x="716" y="918" type="curve"/>
    </contour>
    <contour>
      <point x="584" y="131" type="curve" smooth="yes"/>
      <point x="540" y="131"/>
      <point x="499.667" y="139.333"/>
      <point x="463" y="156" type="curve"/>
      <point x="803" y="844" type="line"/>
      <point x="861" y="770"/>
      <point x="890" y="672.333"/>
      <point x="890" y="535" type="curve" smooth="yes"/>
      <point x="890" y="288.333"/>
      <point x="769.333" y="131"/>
    </contour>
  </outline>
</glyph>
<glyph name="dcroat" format="2">
  <advance width="1223"/>
  <unicode hex="0111"/>
  <note>
uni0111
</note>
  <outline>
    <contour>
      <point x="520" y="-20" type="curve" smooth="yes"/>
      <point x="652" y="-20"/>
      <point x="755" y="25.333"/>
      <point x="829" y="116" type="curve"/>
      <point x="838" y="0" type="line"/>
      <point x="1008" y="0" type="line"/>
      <point x="1008" y="1233" type="line"/>
      <point x="1196" y="1233" type="line"/>
      <point x="1196" y="1384" type="line"/>
      <point x="1008" y="1384" type="line"/>
      <point x="1008" y="1536" type="line"/>
      <point x="823" y="1536" type="line"/>
      <point x="823" y="1384" type="line"/>
      <point x="559" y="1384" type="line"/>
      <point x="559" y="1233" type="line"/>
      <point x="823" y="1233" type="line"/>
      <point x="823" y="972" type="line"/>
      <point x="749" y="1058.667"/>
      <point x="648.667" y="1102"/>
      <point x="522" y="1102" type="curve" smooth="yes"/>
      <point x="267" y="1102"/>
      <point x="95" y="882"/>
      <point x="95" y="550" type="curve" smooth="yes"/>
      <point x="95" y="205"/>
      <point x="269" y="-20"/>
    </contour>
    <contour>
      <point x="566" y="137" type="curve" smooth="yes"/>
      <point x="387.333" y="137"/>
      <point x="280" y="283.667"/>
      <point x="280" y="529" type="curve" smooth="yes"/>
      <point x="280" y="803.667"/>
      <point x="386.667" y="945"/>
      <point x="568" y="945" type="curve" smooth="yes"/>
      <point x="682.667" y="945"/>
      <point x="767.667" y="894"/>
      <point x="823" y="792" type="curve"/>
      <point x="823" y="295" type="line"/>
      <point x="769" y="189.667"/>
      <point x="683.333" y="137"/>
    </contour>
  </outline>
</glyph>
<glyph name="Hbar" format="2">
  <advance width="1434"/>
  <unicode hex="0126"/>
  <note>
uni0126
</note>
  <outline>
    <contour>
      <point x="163" y="0" type="line"/>
      <point x="356" y="0" type="line"/>
      <point x="356" y="673" type="line"/>
      <point x="1089" y="673" type="line"/>
      <point x="1089" y="0" type="line"/>
      <point x="1282" y="0" type="line"/>
      <point x="1282" y="1024" type="line"/>
      <point x="1416" y="1024" type="line"/>
      <point x="1416" y="1166" type="line"/>
      <point x="1282" y="1166" type="line"/>
      <point x="1282" y="1456" type="line"/>
      <point x="1089" y="1456" type="line"/>
      <point x="1089" y="1166" type="line"/>
      <point x="356" y="1166" type="line"/>
      <point x="356" y="1456" type="line"/>
      <point x="163" y="1456" type="line"/>
      <point x="163" y="1166" type="line"/>
      <point x="29" y="1166" type="line"/>
      <point x="29" y="1024" type="line"/>
      <point x="163" y="1024" type="line"/>
    </contour>
    <contour>
      <point x="356" y="830" type="line"/>
      <point x="356" y="1024" type="line"/>
      <point x="1089" y="1024" type="line"/>
      <point x="1089" y="830" type="line"/>
    </contour>
  </outline>
</glyph>
<glyph name="kgreenlandic" format="2">
  <advance width="1139"/>
  <unicode hex="0138"/>
  <note>
uni0138
</note>
  <outline>
    <contour>
      <point x="154" y="0" type="line"/>
      <point x="340" y="0" type="line"/>
      <point x="340" y="461" type="line"/>
      <point x="447" y="461" type="line"/>
      <point x="854" y="0" type="line"/>
      <point x="1087" y="0" type="line"/>
      <point x="599" y="557" type="line"/>
      <point x="1051" y="1082" type="line"/>
      <point x="828" y="1082" type="line"/>
      <point x="431" y="624" type="line"/>
      <point x="340" y="624" type="line"/>
      <point x="340" y="1082" type="line"/>
      <point x="154" y="1082" type="line"/>
    </contour>
  </outline>
</glyph>
<glyph name="Lslash" format="2">
  <advance width="1103"/>
  <unicode hex="0141"/>
  <note>
uni0141
</note>
  <outline>
    <contour>
      <point x="168" y="0" type="line"/>
      <point x="1051" y="0" type="line"/>
      <point x="1051" y="157" type="line"/>
      <point x="361" y="157" type="line"/>
      <point x="361" y="718" type="line"/>
      <point x="624" y="802" type="line"/>
      <point x="624" y="927" type="line"/>
      <point x="361" y="843" type="line"/>
      <point x="361" y="1456" type="line"/>
      <point x="168" y="1456" type="line"/>
      <point x="168" y="782" type="line"/>
      <point x="34" y="740" type="line"/>
      <point x="34" y="615" type="line"/>
      <point x="168" y="657" type="line"/>
    </contour>
  </outline>
</glyph>
<glyph name="lslash" format="2">
  <advance width="553"/>
  <unicode hex="0142"/>
  <note>
uni0142
</note>
  <outline>
    <contour>
      <point x="178" y="0" type="line"/>
      <point x="364" y="0" type="line"/>
      <point x="364" y="746" type="line"/>
      <point x="522" y="807" type="line"/>
      <point x="522" y="930" type="line"/>
      <point x="364" y="869" type="line"/>
      <point x="364" y="1536" type="line"/>
      <point x="178" y="1536" type="line"/>
      <point x="178" y="798" type="line"/>
      <point x="34" y="743" type="line"/>
      <point x="34" y="620" type="line"/>
      <point x="178" y="675" type="line"/>
    </contour>
  </outline>
</glyph>
<glyph name="Eng" format="2">
  <advance width="1419"/>
  <unicode hex="014A"/>
  <note>
uni014A
</note>
  <outline>
    <contour>
      <point x="938" y="-437" type="curve" smooth="yes"/>
      <point x="1146" y="-437"/>
      <point x="1265" y="-307"/>
      <point x="1265" y="-83" type="curve" smooth="yes"/>
      <point x="1265" y="1456" type="line"/>
      <point x="1071" y="1456" type="line"/>
      <point x="1071" y="328" type="line"/>
      <point x="354" y="1456" type="line"/>
      <point x="162" y="1456" type="line"/>
      <point x="162" y="0" type="line"/>
      <point x="354" y="0" type="line"/>
      <point x="354" y="1130" type="line"/>
      <point x="1071" y="0" type="line"/>
      <point x="1071" y="-71" type="line" smooth="yes"/>
      <point x="1071" y="-209.667"/>
      <point x="1025.667" y="-279"/>
      <point x="935" y="-279" type="curve" smooth="yes"/>
      <point x="894.333" y="-279"/>
      <point x="861.667" y="-274.333"/>
      <point x="837" y="-265" type="curve"/>
      <point x="823" y="-419" type="line"/>
      <point x="859" y="-431"/>
      <point x="897.333" y="-437"/>
    </contour>
  </outline>
</glyph>
<glyph name="eng" format="2">
  <advance width="1160"/>
  <unicode hex="014B"/>
  <note>
uni014B
</note>
  <outline>
    <contour>
      <point x="686" y="-437" type="curve" smooth="yes"/>
      <point x="892.667" y="-437"/>
      <point x="1008" y="-307.667"/>
      <point x="1008" y="-89" type="curve" smooth="yes"/>
      <point x="1008" y="691" type="line" smooth="yes"/>
      <point x="1005.333" y="961.667"/>
      <point x="881.667" y="1102"/>
      <point x="643" y="1102" type="curve" smooth="yes"/>
      <point x="507.667" y="1102"/>
      <point x="401.333" y="1044"/>
      <point x="324" y="928" type="curve"/>
      <point x="311" y="1082" type="line"/>
      <point x="145" y="1082" type="line"/>
      <point x="145" y="0" type="line"/>
      <point x="331" y="0" type="line"/>
      <point x="331" y="812" type="line"/>
      <point x="385" y="900.667"/>
      <point x="470.333" y="945"/>
      <point x="587" y="945" type="curve" smooth="yes"/>
      <point x="753.667" y="945"/>
      <point x="823" y="863.333"/>
      <point x="823" y="678" type="curve" smooth="yes"/>
      <point x="823" y="-81" type="line" smooth="yes"/>
      <point x="823" y="-210.333"/>
      <point x="777.333" y="-275"/>
      <point x="686" y="-275" type="curve" smooth="yes"/>
      <point x="642" y="-275"/>
      <point x="608.333" y="-270.667"/>
      <point x="585" y="-262" type="curve"/>
      <point x="571" y="-419" type="line"/>
      <point x="607" y="-431"/>
      <point x="645.333" y="-437"/>
    </contour>
  </outline>
</glyph>
<glyph name="longs" format="2">
  <advance width="508"/>
  <unicode hex="017F"/>
  <note>
uni017F
</note>
  <outline>
    <contour>
      <point x="160" y="0" type="line"/>
      <point x="345" y="0" type="line"/>
      <point x="345" y="1184" type="line" smooth="yes"/>
      <point x="345" y="1331.333"/>
      <point x="406" y="1405"/>
      <point x="528" y="1405" type="curve" smooth="yes"/>
      <point x="562" y="1405"/>
      <point x="592.333" y="1401.333"/>
      <point x="619" y="1394" type="curve"/>
      <point x="642" y="1536" type="line"/>
      <point x="586" y="1550"/>
      <point x="538.333" y="1557"/>
      <point x="499" y="1557" type="curve" smooth="yes"/>
      <point x="283" y="1557"/>
      <point x="161.333" y="1423.333"/>
      <point x="160" y="1198" type="curve" smooth="yes"/>
    </contour>
  </outline>
</glyph>
<glyph name="Schwa" format="2">
  <advance width="1415"/>
  <unicode hex="018F"/>
  <note>
uni018F
</note>
  <outline>
    <contour>
      <point x="697" y="-20" type="curve" smooth="yes"/>
      <point x="919.667" y="-20"/>
      <point x="1116" y="108.5"/>
      <point x="1220" y="322.5" type="curve" smooth="yes"/>
      <point x="1272" y="429.5"/>
      <point x="1298" y="548.667"/>
      <point x="1298" y="680" type="curve" smooth="yes"/>
      <point x="1298" y="764" type="line" smooth="yes"/>
      <point x="1298" y="1210.667"/>
      <point x="1042.667" y="1476"/>
      <point x="640" y="1476" type="curve" smooth="yes"/>
      <point x="485.333" y="1476"/>
      <point x="355.333" y="1446.667"/>
      <point x="228" y="1375" type="curve"/>
      <point x="275" y="1232" type="line"/>
      <point x="428.667" y="1296.667"/>
      <point x="530" y="1316"/>
      <point x="640" y="1316" type="curve" smooth="yes"/>
      <point x="934.667" y="1316"/>
      <point x="1105" y="1118"/>
      <point x="1105" y="767" type="curve"/>
      <point x="93" y="767" type="line"/>
      <point x="93" y="216.667"/>
      <point x="317" y="-20"/>
    </contour>
    <contour>
      <point x="697" y="138" type="curve" smooth="yes"/>
      <point x="430.333" y="138"/>
      <point x="286" y="293.333"/>
      <point x="286" y="584" type="curve" smooth="yes"/>
      <point x="286" y="618" type="line"/>
      <point x="1103" y="618" type="line"/>
      <point x="1083" y="326"/>
      <point x="922.333" y="138"/>
    </contour>
  </outline>
</glyph>
<glyph name="florin" format="2">
  <advance width="697"/>
  <unicode hex="0192"/>
  <note>
uni0192
</note>
  <outline>
    <contour>
      <point x="83" y="-437" type="curve" smooth="yes"/>
      <point x="288.333" y="-437"/>
      <point x="405" y="-309.667"/>
      <point x="405" y="-87" type="curve" smooth="yes"/>
      <point x="405" y="939" type="line"/>
      <point x="608" y="939" type="line"/>
      <point x="608" y="1082" type="line"/>
      <point x="405" y="1082" type="line"/>
      <point x="405" y="1204" type="line" smooth="yes"/>
      <point x="407.667" y="1334"/>
      <point x="466" y="1399"/>
      <point x="580" y="1399" type="curve" smooth="yes"/>
      <point x="620" y="1399"/>
      <point x="652.667" y="1395.667"/>
      <point x="678" y="1389" type="curve"/>
      <point x="700" y="1536" type="line"/>
      <point x="644" y="1550"/>
      <point x="596.333" y="1557"/>
      <point x="557" y="1557" type="curve" smooth="yes"/>
      <point x="342.333" y="1557"/>
      <point x="221.667" y="1424.667"/>
      <point x="219" y="1202" type="curve" smooth="yes"/>
      <point x="219" y="1082" type="line"/>
      <point x="48" y="1082" type="line"/>
      <point x="48" y="939" type="line"/>
      <point x="219" y="939" type="line"/>
      <point x="219" y="-89" type="line" smooth="yes"/>
      <point x="219" y="-211.667"/>
      <point x="169.667" y="-285"/>
      <point x="83" y="-285" type="curve" smooth="yes"/>
      <point x="38.333" y="-285"/>
      <point x="6" y="-280.667"/>
      <point x="-14" y="-272" type="curve"/>
      <point x="-28" y="-419" type="line"/>
      <point x="5.333" y="-431"/>
      <point x="42.333" y="-437"/>
    </contour>
  </outline>
</glyph>
<glyph name="jdotless" format="2">
  <advance width="515"/>
  <unicode hex="0237"/>
  <note>
uni0237
</note>
  <outline>
    <contour>
      <point x="35" y="-437" type="curve" smooth="yes"/>
      <point x="237.667" y="-437"/>
      <point x="357" y="-315.667"/>
      <point x="357" y="-89" type="curve" smooth="yes"/>
      <point x="357" y="1082" type="line"/>
      <point x="172" y="1082" type="line"/>
      <point x="172" y="-89" type="line" smooth="yes"/>
      <point x="172" y="-211.667"/>
      <point x="121.667" y="-285"/>
      <point x="35" y="-285" type="curve" smooth="yes"/>
      <point x="-9.667" y="-285"/>
      <point x="-42" y="-280.667"/>
      <point x="-62" y="-272" type="curve"/>
      <point x="-76" y="-419" type="line"/>
      <point x="-41.333" y="-431"/>
      <point x="-4.333" y="-437"/>
    </contour>
  </outline>
</glyph>
<glyph name="dotaccent" format="2">
  <advance width="497"/>
  <unicode hex="02D9"/>
  <note>
uni02D9
</note>
  <outline>
    <contour>
      <point x="250" y="1262" type="curve" smooth="yes"/>
      <point x="322" y="1262"/>
      <point x="360" y="1307"/>
      <point x="360" y="1367" type="curve" smooth="yes"/>
      <point x="360" y="1427"/>
      <point x="322" y="1474"/>
      <point x="250" y="1474" type="curve" smooth="yes"/>
      <point x="178" y="1474"/>
      <point x="141" y="1427"/>
      <point x="141" y="1367" type="curve" smooth="yes"/>
      <point x="141" y="1307"/>
      <point x="178" y="1262"/>
    </contour>
  </outline>
</glyph>
<glyph name="ring" format="2">
  <advance width="685"/>
  <unicode hex="02DA"/>
  <note>
uni02DA
</note>
  <outline>
    <contour>
      <point x="330" y="1181" type="curve" smooth="yes"/>
      <point x="427.333" y="1181"/>
      <point x="499" y="1250.667"/>
      <point x="499" y="1344" type="curve" smooth="yes"/>
      <point x="499" y="1438.667"/>
      <point x="424.667" y="1511"/>
      <point x="330" y="1511" type="curve" smooth="yes"/>
      <point x="231.333" y="1511"/>
      <point x="156" y="1437.333"/>
      <point x="156" y="1344" type="curve" smooth="yes"/>
      <point x="156" y="1252"/>
      <point x="228.667" y="1181"/>
    </contour>
    <contour>
      <point x="243" y="1344" type="curve" smooth="yes"/>
      <point x="243" y="1389.333"/>
      <point x="280.667" y="1430"/>
      <point x="330" y="1430" type="curve" smooth="yes"/>
      <point x="376.667" y="1430"/>
      <point x="413" y="1392"/>
      <point x="413" y="1344" type="curve" smooth="yes"/>
      <point x="413" y="1290"/>
      <point x="371" y="1263"/>
      <point x="328" y="1262" type="curve" smooth="yes"/>
      <point x="286" y="1262"/>
      <point x="243" y="1289"/>
    </contour>
  </outline>
</glyph>
<glyph name="ogonek" format="2">
  <advance width="554"/>
  <unicode hex="02DB"/>
  <note>
uni02DB
</note>
  <outline>
    <contour>
      <point x="242" y="-433" type="curve" smooth="yes"/>
      <point x="302" y="-433"/>
      <point x="355.333" y="-418.333"/>
      <point x="402" y="-389" type="curve"/>
      <point x="389" y="-268" type="line"/>
      <point x="354.333" y="-285.333"/>
      <point x="321" y="-294"/>
      <point x="289" y="-294" type="curve" smooth="yes"/>
      <point x="237" y="-294"/>
      <point x="211" y="-270"/>
      <point x="211" y="-222" type="curve" smooth="yes"/>
      <point x="211" y="-164.667"/>
      <point x="248.667" y="-105.667"/>
      <point x="382" y="0" type="curve"/>
      <point x="307" y="56" type="line"/>
      <point x="143" y="-18.667"/>
      <point x="50" y="-124.333"/>
      <point x="50" y="-243" type="curve" smooth="yes"/>
      <point x="50" y="-357.667"/>
      <point x="123.333" y="-433"/>
    </contour>
  </outline>
</glyph>
<glyph name="tilde" format="2">
  <advance width="966"/>
  <unicode hex="02DC"/>
  <note>
uni02DC
</note>
  <outline>
    <contour>
      <point x="247" y="1241" type="line"/>
      <point x="247" y="1306.333"/>
      <point x="291.333" y="1353"/>
      <point x="346" y="1353" type="curve" smooth="yes"/>
      <point x="473" y="1353"/>
      <point x="468" y="1258"/>
      <point x="615" y="1258" type="curve" smooth="yes"/>
      <point x="737.667" y="1258"/>
      <point x="830" y="1356"/>
      <point x="830" y="1500" type="curve"/>
      <point x="706" y="1512" type="line"/>
      <point x="706" y="1452"/>
      <point x="663.333" y="1399"/>
      <point x="606" y="1399" type="curve" smooth="yes"/>
      <point x="495.176" y="1399"/>
      <point x="456.819" y="1495"/>
      <point x="337" y="1495" type="curve" smooth="yes"/>
      <point x="213" y="1495"/>
      <point x="123" y="1390.667"/>
      <point x="123" y="1248" type="curve"/>
    </contour>
  </outline>
</glyph>
<glyph name="lowringmod" format="2">
  <advance width="602"/>
  <unicode hex="02F3"/>
  <note>
uni02F3
</note>
  <outline>
    <contour>
      <point x="300" y="-405" type="curve" smooth="yes"/>
      <point x="397.333" y="-405"/>
      <point x="469" y="-335.333"/>
      <point x="469" y="-242" type="curve" smooth="yes"/>
      <point x="469" y="-147.333"/>
      <point x="394.667" y="-75"/>
      <point x="300" y="-75" type="curve" smooth="yes"/>
      <point x="201.333" y="-75"/>
      <point x="126" y="-148.667"/>
      <point x="126" y="-242" type="curve" smooth="yes"/>
      <point x="126" y="-334"/>
      <point x="198.667" y="-405"/>
    </contour>
    <contour>
      <point x="295" y="-324" type="curve" smooth="yes"/>
      <point x="254" y="-323"/>
      <point x="213" y="-296"/>
      <point x="213" y="-242" type="curve" smooth="yes"/>
      <point x="213" y="-196.667"/>
      <point x="250.667" y="-156"/>
      <point x="300" y="-156" type="curve" smooth="yes"/>
      <point x="346.667" y="-156"/>
      <point x="383" y="-194"/>
      <point x="383" y="-242" type="curve" smooth="yes"/>
      <point x="383" y="-297"/>
      <point x="339" y="-325"/>
    </contour>
  </outline>
</glyph>
<glyph name="hookabovecomb" format="2">
  <unicode hex="0309"/>
  <note>
uni0309
</note>
  <outline>
    <contour>
      <point x="-652" y="1241" type="line"/>
      <point x="-520" y="1241" type="line"/>
      <point x="-519" y="1312" type="line"/>
      <point x="-416.333" y="1326.667"/>
      <point x="-364" y="1382.667"/>
      <point x="-364" y="1464" type="curve" smooth="yes"/>
      <point x="-364" y="1577.333"/>
      <point x="-468.333" y="1652"/>
      <point x="-667" y="1652" type="curve"/>
      <point x="-674" y="1546" type="line"/>
      <point x="-574" y="1546"/>
      <point x="-508" y="1520"/>
      <point x="-508" y="1468" type="curve" smooth="yes"/>
      <point x="-508" y="1415.318"/>
      <point x="-556.052" y="1400.463"/>
      <point x="-653" y="1394" type="curve"/>
    </contour>
  </outline>
</glyph>
<glyph name="dotbelowcomb" format="2">
  <unicode hex="0323"/>
  <note>
uni0323
</note>
  <outline>
    <contour>
      <point x="269" y="-562" type="curve" smooth="yes"/>
      <point x="336" y="-562"/>
      <point x="393" y="-507"/>
      <point x="393" y="-439" type="curve" smooth="yes"/>
      <point x="393" y="-372"/>
      <point x="336" y="-315"/>
      <point x="269" y="-315" type="curve" smooth="yes"/>
      <point x="201" y="-315"/>
      <point x="146" y="-372"/>
      <point x="146" y="-439" type="curve" smooth="yes"/>
      <point x="146" y="-507"/>
      <point x="201" y="-562"/>
    </contour>
  </outline>
</glyph>
<glyph name="dieresistonos" format="2">
  <advance width="1035"/>
  <unicode hex="0385"/>
  <note>
uni0385
</note>
  <outline>
    <contour>
      <point x="433" y="1408" type="line"/>
      <point x="568" y="1408" type="line"/>
      <point x="669" y="1672" type="line"/>
      <point x="481" y="1672" type="line"/>
    </contour>
    <contour>
      <point x="113" y="1371" type="curve" smooth="yes"/>
      <point x="113" y="1311"/>
      <point x="150" y="1266"/>
      <point x="222" y="1266" type="curve" smooth="yes"/>
      <point x="294" y="1266"/>
      <point x="332" y="1311"/>
      <point x="332" y="1371" type="curve" smooth="yes"/>
      <point x="332" y="1431"/>
      <point x="294" y="1477"/>
      <point x="222" y="1477" type="curve" smooth="yes"/>
      <point x="150" y="1477"/>
      <point x="113" y="1431"/>
    </contour>
    <contour>
      <point x="680" y="1369" type="curve" smooth="yes"/>
      <point x="680" y="1309"/>
      <point x="717" y="1264"/>
      <point x="789" y="1264" type="curve" smooth="yes"/>
      <point x="861" y="1264"/>
      <point x="899" y="1309"/>
      <point x="899" y="1369" type="curve" smooth="yes"/>
      <point x="899" y="1429"/>
      <point x="861" y="1476"/>
      <point x="789" y="1476" type="curve" smooth="yes"/>
      <point x="717" y="1476"/>
      <point x="680" y="1429"/>
    </contour>
  </outline>
</glyph>
<glyph name="Delta" format="2">
  <advance width="1444"/>
  <unicode hex="0394"/>
  <unicode hex="2206"/>
  <note>
uni0394
</note>
  <outline>
    <contour>
      <point x="31" y="0" type="line"/>
      <point x="1395" y="0" type="line"/>
      <point x="816" y="1456" type="line"/>
      <point x="646" y="1456" type="line"/>
    </contour>
    <contour>
      <point x="293" y="157" type="line"/>
      <point x="728" y="1221" type="line"/>
      <point x="1137" y="157" type="line"/>
    </contour>
  </outline>
</glyph>
<glyph name="Theta" format="2">
  <advance width="1393"/>
  <unicode hex="0398"/>
  <note>
uni0398
</note>
  <outline>
    <contour>
      <point x="697" y="-20" type="curve" smooth="yes"/>
      <point x="1088" y="-20"/>
      <point x="1281" y="290"/>
      <point x="1281" y="681" type="curve" smooth="yes"/>
      <point x="1281" y="786" type="line" smooth="yes"/>
      <point x="1277" y="1175"/>
      <point x="1076" y="1476"/>
      <point x="695" y="1476" type="curve" smooth="yes"/>
      <point x="310" y="1476"/>
      <point x="110" y="1158"/>
      <point x="110" y="773" type="curve" smooth="yes"/>
      <point x="110" y="668" type="line" smooth="yes"/>
      <point x="114" y="282"/>
      <point x="323" y="-20"/>
    </contour>
    <contour>
      <point x="697" y="143" type="curve" smooth="yes"/>
      <point x="448" y="143"/>
      <point x="301" y="348"/>
      <point x="301" y="681" type="curve" smooth="yes"/>
      <point x="301" y="788" type="line" smooth="yes"/>
      <point x="305" y="1116"/>
      <point x="452" y="1311"/>
      <point x="695" y="1311" type="curve" smooth="yes"/>
      <point x="944" y="1311"/>
      <point x="1090" y="1120"/>
      <point x="1090" y="775" type="curve" smooth="yes"/>
      <point x="1090" y="667" type="line" smooth="yes"/>
      <point x="1086" y="330"/>
      <point x="945" y="143"/>
    </contour>
    <contour>
      <point x="450" y="659" type="line"/>
      <point x="967" y="659" type="line"/>
      <point x="967" y="811" type="line"/>
      <point x="450" y="811" type="line"/>
    </contour>
  </outline>
</glyph>
<glyph name="Xi" format="2">
  <advance width="1169"/>
  <unicode hex="039E"/>
  <note>
uni039E
</note>
  <outline>
    <contour>
      <point x="120" y="0" type="line"/>
      <point x="1057" y="0" type="line"/>
      <point x="1057" y="157" type="line"/>
      <point x="120" y="157" type="line"/>
    </contour>
    <contour>
      <point x="124" y="1298" type="line"/>
      <point x="1040" y="1298" type="line"/>
      <point x="1040" y="1456" type="line"/>
      <point x="124" y="1456" type="line"/>
    </contour>
    <contour>
      <point x="207" y="674" type="line"/>
      <point x="961" y="674" type="line"/>
      <point x="961" y="831" type="line"/>
      <point x="207" y="831" type="line"/>
    </contour>
  </outline>
</glyph>
<glyph name="Phi" format="2">
  <advance width="1467"/>
  <unicode hex="03A6"/>
  <note>
uni03A6
</note>
  <outline>
    <contour>
      <point x="640" y="0" type="line"/>
      <point x="834" y="0" type="line"/>
      <point x="834" y="175" type="line"/>
      <point x="1052.667" y="180.333"/>
      <point x="1229.167" y="274.333"/>
      <point x="1324.5" y="441" type="curve" smooth="yes"/>
      <point x="1372.167" y="524.333"/>
      <point x="1396" y="618.667"/>
      <point x="1396" y="724" type="curve" smooth="yes"/>
      <point x="1396" y="932"/>
      <point x="1294.833" y="1107"/>
      <point x="1123.5" y="1199" type="curve" smooth="yes"/>
      <point x="1037.833" y="1245"/>
      <point x="941.333" y="1269"/>
      <point x="834" y="1271" type="curve"/>
      <point x="834" y="1456" type="line"/>
      <point x="640" y="1456" type="line"/>
      <point x="640" y="1271" type="line"/>
      <point x="518" y="1269"/>
      <point x="410.667" y="1239"/>
      <point x="318" y="1181" type="curve" smooth="yes"/>
      <point x="163.333" y="1083.667"/>
      <point x="77" y="919.333"/>
      <point x="77" y="722" type="curve" smooth="yes"/>
      <point x="77" y="522"/>
      <point x="166" y="361"/>
      <point x="315" y="266" type="curve" smooth="yes"/>
      <point x="404" y="209"/>
      <point x="514" y="177"/>
      <point x="640" y="175" type="curve"/>
    </contour>
    <contour>
      <point x="640" y="334" type="line"/>
      <point x="402.667" y="339.333"/>
      <point x="268" y="476.667"/>
      <point x="268" y="722" type="curve" smooth="yes"/>
      <point x="268" y="966"/>
      <point x="400" y="1105.667"/>
      <point x="640" y="1111" type="curve"/>
    </contour>
    <contour>
      <point x="834" y="334" type="curve"/>
      <point x="834" y="1111" type="line"/>
      <point x="1071.333" y="1105.667"/>
      <point x="1205" y="965.333"/>
      <point x="1205" y="724" type="curve" smooth="yes"/>
      <point x="1205" y="480"/>
      <point x="1074" y="339.333"/>
    </contour>
  </outline>
</glyph>
<glyph name="Psi" format="2">
  <advance width="1417"/>
  <unicode hex="03A8"/>
  <note>
uni03A8
</note>
  <outline>
    <contour>
      <point x="597" y="0" type="line"/>
      <point x="790" y="0" type="line"/>
      <point x="790" y="362" type="line"/>
      <point x="1114" y="393"/>
      <point x="1313" y="610"/>
      <point x="1313" y="928" type="curve" smooth="yes"/>
      <point x="1313" y="1456" type="line"/>
      <point x="1120" y="1456" type="line"/>
      <point x="1120" y="931" type="line" smooth="yes"/>
      <point x="1120" y="704.333"/>
      <point x="998" y="553.667"/>
      <point x="790" y="523" type="curve"/>
      <point x="790" y="1456" type="line"/>
      <point x="597" y="1456" type="line"/>
      <point x="597" y="524" type="line"/>
      <point x="398.333" y="557.333"/>
      <point x="283.333" y="709.667"/>
      <point x="282" y="927" type="curve" smooth="yes"/>
      <point x="282" y="1456" type="line"/>
      <point x="90" y="1456" type="line"/>
      <point x="90" y="920" type="line" smooth="yes"/>
      <point x="94" y="604"/>
      <point x="289" y="392.667"/>
      <point x="597" y="362" type="curve"/>
    </contour>
  </outline>
</glyph>
<glyph name="alpha" format="2">
  <advance width="1157"/>
  <unicode hex="03B1"/>
  <note>
uni03B1
</note>
  <outline>
    <contour>
      <point x="528" y="-21" type="curve" smooth="yes"/>
      <point x="667" y="-21"/>
      <point x="773" y="34"/>
      <point x="844" y="144" type="curve"/>
      <point x="869" y="34"/>
      <point x="931" y="-21"/>
      <point x="1029" y="-21" type="curve" smooth="yes"/>
      <point x="1078" y="-21"/>
      <point x="1119" y="-10"/>
      <point x="1151" y="13" type="curve"/>
      <point x="1128" y="150" type="line"/>
      <point x="1118" y="147"/>
      <point x="1107" y="145"/>
      <point x="1094" y="145" type="curve" smooth="yes"/>
      <point x="1042" y="145"/>
      <point x="1014" y="192"/>
      <point x="1014" y="285" type="curve" smooth="yes"/>
      <point x="1014" y="1082" type="line"/>
      <point x="857" y="1082" type="line"/>
      <point x="840" y="941" type="line"/>
      <point x="769" y="1048"/>
      <point x="665" y="1102"/>
      <point x="530" y="1102" type="curve" smooth="yes"/>
      <point x="269" y="1102"/>
      <point x="108" y="903"/>
      <point x="108" y="551" type="curve" smooth="yes"/>
      <point x="108" y="506" type="line" smooth="yes"/>
      <point x="108" y="181"/>
      <point x="272" y="-21"/>
    </contour>
    <contour>
      <point x="574" y="130" type="curve" smooth="yes"/>
      <point x="394" y="130"/>
      <point x="293" y="267"/>
      <point x="293" y="500" type="curve" smooth="yes"/>
      <point x="293" y="797"/>
      <point x="397" y="950"/>
      <point x="576" y="950" type="curve" smooth="yes"/>
      <point x="688" y="950"/>
      <point x="772" y="887"/>
      <point x="829" y="762" type="curve"/>
      <point x="829" y="316" type="line"/>
      <point x="774" y="192"/>
      <point x="689" y="130"/>
    </contour>
  </outline>
</glyph>
<glyph name="beta" format="2">
  <advance width="1213"/>
  <unicode hex="03B2"/>
  <note>
uni03B2
</note>
  <outline>
    <contour>
      <point x="160" y="-384" type="line"/>
      <point x="346" y="-384" type="line"/>
      <point x="346" y="75" type="line"/>
      <point x="426" y="11.667"/>
      <point x="526.333" y="-20"/>
      <point x="647" y="-20" type="curve" smooth="yes"/>
      <point x="920.333" y="-20"/>
      <point x="1101" y="150.667"/>
      <point x="1101" y="424" type="curve" smooth="yes"/>
      <point x="1101" y="597.333"/>
      <point x="1011" y="734"/>
      <point x="847" y="794" type="curve"/>
      <point x="964.333" y="855.333"/>
      <point x="1033" y="961.667"/>
      <point x="1033" y="1083" type="curve" smooth="yes"/>
      <point x="1033" y="1315"/>
      <point x="862.333" y="1476"/>
      <point x="605" y="1476" type="curve" smooth="yes"/>
      <point x="450.333" y="1476"/>
      <point x="302.333" y="1400.333"/>
      <point x="221" y="1275" type="curve" smooth="yes"/>
      <point x="180.333" y="1212.333"/>
      <point x="160" y="1145"/>
      <point x="160" y="1073" type="curve" smooth="yes"/>
    </contour>
    <contour>
      <point x="628" y="131" type="curve" smooth="yes"/>
      <point x="502.667" y="131"/>
      <point x="404.667" y="176.667"/>
      <point x="346" y="246" type="curve"/>
      <point x="346" y="1075" type="line" smooth="yes"/>
      <point x="347.333" y="1217.667"/>
      <point x="461" y="1324"/>
      <point x="605" y="1324" type="curve" smooth="yes"/>
      <point x="747.667" y="1324"/>
      <point x="848" y="1223"/>
      <point x="848" y="1087" type="curve" smooth="yes"/>
      <point x="848" y="940.333"/>
      <point x="762" y="858"/>
      <point x="602" y="858" type="curve" smooth="yes"/>
      <point x="517" y="858" type="line"/>
      <point x="517" y="706" type="line"/>
      <point x="667" y="706" type="line" smooth="yes"/>
      <point x="812.333" y="702"/>
      <point x="916" y="577.333"/>
      <point x="916" y="420" type="curve" smooth="yes"/>
      <point x="916" y="248"/>
      <point x="806.667" y="131"/>
    </contour>
  </outline>
</glyph>
<glyph name="gamma" format="2">
  <advance width="1026"/>
  <unicode hex="03B3"/>
  <note>
uni03B3
</note>
  <outline>
    <contour>
      <point x="426" y="-416" type="line"/>
      <point x="612" y="-416" type="line"/>
      <point x="612" y="57" type="line"/>
      <point x="991" y="1082" type="line"/>
      <point x="802" y="1082" type="line"/>
      <point x="522" y="276" type="line"/>
      <point x="235" y="1082" type="line"/>
      <point x="46" y="1082" type="line"/>
      <point x="426" y="64" type="line"/>
    </contour>
  </outline>
</glyph>
<glyph name="delta" format="2">
  <advance width="1160"/>
  <unicode hex="03B4"/>
  <note>
uni03B4
</note>
  <outline>
    <contour>
      <point x="581" y="-20" type="curve" smooth="yes"/>
      <point x="934.881" y="-20.47"/>
      <point x="1063" y="363"/>
      <point x="1063" y="548" type="curve" smooth="yes"/>
      <point x="1056.333" y="809.333"/>
      <point x="924.833" y="987.5"/>
      <point x="629.5" y="1089.5" type="curve" smooth="yes"/>
      <point x="481.833" y="1140.5"/>
      <point x="408" y="1202"/>
      <point x="408" y="1274" type="curve" smooth="yes"/>
      <point x="408" y="1356.667"/>
      <point x="480.333" y="1408"/>
      <point x="595" y="1408" type="curve" smooth="yes"/>
      <point x="677.667" y="1408"/>
      <point x="769.333" y="1388.333"/>
      <point x="870" y="1349" type="curve"/>
      <point x="872" y="1509" type="line"/>
      <point x="783" y="1546"/>
      <point x="692" y="1564"/>
      <point x="599" y="1564" type="curve" smooth="yes"/>
      <point x="365.667" y="1564"/>
      <point x="221" y="1450.333"/>
      <point x="221" y="1269" type="curve" smooth="yes"/>
      <point x="221" y="1148"/>
      <point x="295" y="1051"/>
      <point x="428" y="994" type="curve"/>
      <point x="236" y="947"/>
      <point x="96" y="750"/>
      <point x="96" y="530" type="curve" smooth="yes"/>
      <point x="96" y="194.333"/>
      <point x="285" y="-20"/>
    </contour>
    <contour>
      <point x="581" y="130" type="curve" smooth="yes"/>
      <point x="398.333" y="130"/>
      <point x="283" y="274.333"/>
      <point x="283" y="509" type="curve" smooth="yes"/>
      <point x="283" y="770.333"/>
      <point x="401.667" y="910"/>
      <point x="583" y="910" type="curve"/>
      <point x="753" y="876"/>
      <point x="877" y="706"/>
      <point x="877" y="530" type="curve" smooth="yes"/>
      <point x="877" y="266"/>
      <point x="762.333" y="130"/>
    </contour>
  </outline>
</glyph>
<glyph name="epsilon" format="2">
  <advance width="1104"/>
  <unicode hex="03B5"/>
  <note>
uni03B5
</note>
  <outline>
    <contour>
      <point x="551" y="-20" type="curve" smooth="yes"/>
      <point x="815" y="-20"/>
      <point x="1004" y="113.333"/>
      <point x="1004" y="320" type="curve"/>
      <point x="819" y="320" type="line"/>
      <point x="819" y="212"/>
      <point x="701.667" y="129"/>
      <point x="551" y="129" type="curve" smooth="yes"/>
      <point x="393.667" y="129"/>
      <point x="286" y="201.333"/>
      <point x="286" y="304" type="curve" smooth="yes"/>
      <point x="286" y="416"/>
      <point x="364" y="474"/>
      <point x="520" y="478" type="curve" smooth="yes"/>
      <point x="744" y="478" type="line"/>
      <point x="744" y="626" type="line"/>
      <point x="548" y="626" type="line" smooth="yes"/>
      <point x="385.333" y="626"/>
      <point x="304" y="679.333"/>
      <point x="304" y="786" type="curve" smooth="yes"/>
      <point x="304" y="884.667"/>
      <point x="401.667" y="951"/>
      <point x="551" y="951" type="curve" smooth="yes"/>
      <point x="693.667" y="951"/>
      <point x="801" y="873.333"/>
      <point x="801" y="780" type="curve"/>
      <point x="986" y="780" type="line"/>
      <point x="986" y="969.333"/>
      <point x="799" y="1101"/>
      <point x="551" y="1101" type="curve" smooth="yes"/>
      <point x="281.667" y="1101"/>
      <point x="118" y="984.333"/>
      <point x="118" y="787" type="curve" smooth="yes"/>
      <point x="118" y="689.667"/>
      <point x="186.667" y="604"/>
      <point x="304" y="556" type="curve"/>
      <point x="167.333" y="512"/>
      <point x="99" y="428"/>
      <point x="99" y="304" type="curve" smooth="yes"/>
      <point x="99" y="108"/>
      <point x="279" y="-20"/>
    </contour>
  </outline>
</glyph>
<glyph name="zeta" format="2">
  <advance width="1061"/>
  <unicode hex="03B6"/>
  <note>
uni03B6
</note>
  <outline>
    <contour>
      <point x="744" y="-383" type="line"/>
      <point x="833.333" y="-311"/>
      <point x="918.333" y="-180"/>
      <point x="921" y="-88" type="curve" smooth="yes"/>
      <point x="921" y="-40"/>
      <point x="818" y="40"/>
      <point x="677" y="94" type="curve" smooth="yes"/>
      <point x="487" y="166"/>
      <point x="373" y="182"/>
      <point x="373" y="386" type="curve" smooth="yes"/>
      <point x="373" y="563.333"/>
      <point x="434" y="690"/>
      <point x="613" y="909" type="curve" smooth="yes"/>
      <point x="963" y="1336" type="line"/>
      <point x="963" y="1456" type="line"/>
      <point x="109" y="1456" type="line"/>
      <point x="109" y="1304" type="line"/>
      <point x="746" y="1304" type="line"/>
      <point x="461" y="981" type="line" smooth="yes"/>
      <point x="288" y="785"/>
      <point x="188" y="554.333"/>
      <point x="188" y="381" type="curve" smooth="yes"/>
      <point x="188" y="209"/>
      <point x="268" y="80"/>
      <point x="411" y="30" type="curve" smooth="yes"/>
      <point x="720" y="-79"/>
      <point x="744" y="-70.667"/>
      <point x="744" y="-116" type="curve" smooth="yes"/>
      <point x="744" y="-176"/>
      <point x="708.667" y="-228.333"/>
      <point x="646" y="-299" type="curve"/>
    </contour>
  </outline>
</glyph>
<glyph name="eta" format="2">
  <advance width="1160"/>
  <unicode hex="03B7"/>
  <note>
uni03B7
</note>
  <outline>
    <contour>
      <point x="823" y="-415" type="line"/>
      <point x="1008" y="-415" type="line"/>
      <point x="1008" y="701" type="line" smooth="yes"/>
      <point x="1006.667" y="973"/>
      <point x="896.333" y="1102"/>
      <point x="643" y="1102" type="curve" smooth="yes"/>
      <point x="509.667" y="1102"/>
      <point x="403" y="1050"/>
      <point x="323" y="946" type="curve"/>
      <point x="312" y="1082" type="line"/>
      <point x="145" y="1082" type="line"/>
      <point x="145" y="0" type="line"/>
      <point x="331" y="0" type="line"/>
      <point x="331" y="785" type="line"/>
      <point x="376.333" y="889"/>
      <point x="464.333" y="950"/>
      <point x="587" y="950" type="curve" smooth="yes"/>
      <point x="757.667" y="950"/>
      <point x="823" y="871.333"/>
      <point x="823" y="690" type="curve" smooth="yes"/>
    </contour>
  </outline>
</glyph>
<glyph name="theta" format="2">
  <advance width="1166"/>
  <unicode hex="03B8"/>
  <note>
uni03B8
</note>
  <outline>
    <contour>
      <point x="583" y="-20" type="curve" smooth="yes"/>
      <point x="880.333" y="-20"/>
      <point x="1042" y="212"/>
      <point x="1042" y="640" type="curve" smooth="yes"/>
      <point x="1042" y="845" type="line" smooth="yes"/>
      <point x="1036.667" y="1254.333"/>
      <point x="877" y="1476"/>
      <point x="581" y="1476" type="curve" smooth="yes"/>
      <point x="283.667" y="1476"/>
      <point x="122" y="1247.667"/>
      <point x="122" y="825" type="curve" smooth="yes"/>
      <point x="122" y="620" type="line" smooth="yes"/>
      <point x="127.333" y="209.333"/>
      <point x="291" y="-20"/>
    </contour>
    <contour>
      <point x="583" y="131" type="curve" smooth="yes"/>
      <point x="409.667" y="131"/>
      <point x="307" y="304.667"/>
      <point x="307" y="610" type="curve" smooth="yes"/>
      <point x="307" y="649" type="line"/>
      <point x="856" y="649" type="line"/>
      <point x="856" y="598" type="line" smooth="yes"/>
      <point x="853.333" y="295.333"/>
      <point x="756.333" y="131"/>
    </contour>
    <contour>
      <point x="307" y="801" type="line"/>
      <point x="307" y="856" type="line" smooth="yes"/>
      <point x="307" y="1158.667"/>
      <point x="402.333" y="1324"/>
      <point x="581" y="1324" type="curve" smooth="yes"/>
      <point x="762.333" y="1324"/>
      <point x="856" y="1158.667"/>
      <point x="856" y="856" type="curve" smooth="yes"/>
      <point x="856" y="801" type="line"/>
    </contour>
  </outline>
</glyph>
<glyph name="iota" format="2">
  <advance width="663"/>
  <unicode hex="03B9"/>
  <note>
uni03B9
</note>
  <outline>
    <contour>
      <point x="444" y="-12" type="curve" smooth="yes"/>
      <point x="492.667" y="-12"/>
      <point x="540.333" y="-5.667"/>
      <point x="587" y="7" type="curve"/>
      <point x="586" y="158" type="line"/>
      <point x="560" y="150"/>
      <point x="531" y="146"/>
      <point x="499" y="146" type="curve" smooth="yes"/>
      <point x="413.667" y="146"/>
      <point x="380" y="189"/>
      <point x="380" y="273" type="curve" smooth="yes"/>
      <point x="380" y="1082" type="line"/>
      <point x="195" y="1082" type="line"/>
      <point x="195" y="282" type="line" smooth="yes"/>
      <point x="195" y="86"/>
      <point x="278" y="-12"/>
    </contour>
  </outline>
</glyph>
<glyph name="lambda" format="2">
  <advance width="1134"/>
  <unicode hex="03BB"/>
  <note>
uni03BB
</note>
  <outline>
    <contour>
      <point x="1005" y="-17" type="curve" smooth="yes"/>
      <point x="1033" y="-17"/>
      <point x="1059" y="-13"/>
      <point x="1083" y="-5" type="curve"/>
      <point x="1077" y="147" type="line"/>
      <point x="1039" y="144" type="line" smooth="yes"/>
      <point x="992" y="140"/>
      <point x="965" y="166"/>
      <point x="939" y="234" type="curve" smooth="yes"/>
      <point x="512" y="1343" type="line" smooth="yes"/>
      <point x="448" y="1509"/>
      <point x="316" y="1506"/>
      <point x="166" y="1506" type="curve"/>
      <point x="167" y="1364" type="line"/>
      <point x="274" y="1366"/>
      <point x="304" y="1339"/>
      <point x="335" y="1264" type="curve" smooth="yes"/>
      <point x="431" y="1029" type="line"/>
      <point x="37" y="0" type="line"/>
      <point x="243" y="0" type="line"/>
      <point x="529" y="779" type="line"/>
      <point x="759" y="186" type="line" smooth="yes"/>
      <point x="814" y="43"/>
      <point x="852" y="-17"/>
    </contour>
  </outline>
</glyph>
<glyph name="xi" format="2">
  <advance width="1004"/>
  <unicode hex="03BE"/>
  <note>
uni03BE
</note>
  <outline>
    <contour>
      <point x="761" y="-393" type="line"/>
      <point x="857" y="-311.667"/>
      <point x="937" y="-186.333"/>
      <point x="937" y="-101" type="curve" smooth="yes"/>
      <point x="937" y="-31"/>
      <point x="917" y="35"/>
      <point x="858" y="53" type="curve" smooth="yes"/>
      <point x="566.5" y="142.5" type="line" smooth="yes"/>
      <point x="373" y="202"/>
      <point x="287" y="294.667"/>
      <point x="287" y="444" type="curve" smooth="yes"/>
      <point x="287" y="661.333"/>
      <point x="425" y="765"/>
      <point x="668" y="765" type="curve" smooth="yes"/>
      <point x="818" y="765" type="line"/>
      <point x="818" y="917" type="line"/>
      <point x="685" y="917" type="line" smooth="yes"/>
      <point x="463" y="917"/>
      <point x="352" y="990"/>
      <point x="352" y="1136" type="curve" smooth="yes"/>
      <point x="352" y="1249.333"/>
      <point x="465" y="1324"/>
      <point x="653" y="1324" type="curve" smooth="yes"/>
      <point x="717.667" y="1324"/>
      <point x="794" y="1312"/>
      <point x="882" y="1288" type="curve"/>
      <point x="909" y="1437" type="line"/>
      <point x="834.333" y="1463"/>
      <point x="748.667" y="1476"/>
      <point x="652" y="1476" type="curve" smooth="yes"/>
      <point x="348" y="1476"/>
      <point x="166" y="1344"/>
      <point x="166" y="1132" type="curve" smooth="yes"/>
      <point x="166" y="1004"/>
      <point x="257.667" y="898"/>
      <point x="415" y="842" type="curve"/>
      <point x="215" y="780.667"/>
      <point x="101" y="641.333"/>
      <point x="101" y="448" type="curve" smooth="yes"/>
      <point x="101" y="300"/>
      <point x="146.167" y="201.5"/>
      <point x="225.5" y="131.5" type="curve" smooth="yes"/>
      <point x="265.167" y="96.5"/>
      <point x="313.167" y="68"/>
      <point x="369.5" y="46" type="curve" smooth="yes"/>
      <point x="497.629" y="-4.039"/>
      <point x="645.624" y="-14.772"/>
      <point x="722" y="-61" type="curve" smooth="yes"/>
      <point x="811" y="-115"/>
      <point x="727" y="-224"/>
      <point x="654" y="-309" type="curve"/>
    </contour>
  </outline>
</glyph>
<glyph name="pi" format="2">
  <advance width="1220"/>
  <unicode hex="03C0"/>
  <note>
uni03C0
</note>
  <outline>
    <contour>
      <point x="1045" y="-12" type="curve" smooth="yes"/>
      <point x="1093.667" y="-12"/>
      <point x="1141.333" y="-5.667"/>
      <point x="1188" y="7" type="curve"/>
      <point x="1187" y="158" type="line"/>
      <point x="1161" y="150"/>
      <point x="1132" y="146"/>
      <point x="1100" y="146" type="curve" smooth="yes"/>
      <point x="1013.333" y="146"/>
      <point x="981" y="189.667"/>
      <point x="981" y="275" type="curve" smooth="yes"/>
      <point x="981" y="929" type="line"/>
      <point x="1137" y="929" type="line"/>
      <point x="1137" y="1082" type="line"/>
      <point x="41" y="1082" type="line"/>
      <point x="41" y="929" type="line"/>
      <point x="210" y="929" type="line"/>
      <point x="210" y="0" type="line"/>
      <point x="395" y="0" type="line"/>
      <point x="395" y="929" type="line"/>
      <point x="796" y="929" type="line"/>
      <point x="796" y="282" type="line" smooth="yes"/>
      <point x="796" y="86"/>
      <point x="879" y="-12"/>
    </contour>
  </outline>
</glyph>
<glyph name="rho" format="2">
  <advance width="1160"/>
  <unicode hex="03C1"/>
  <note>
uni03C1
</note>
  <outline>
    <contour>
      <point x="145" y="-416" type="line"/>
      <point x="331" y="-416" type="line"/>
      <point x="331" y="104" type="line"/>
      <point x="407" y="21.333"/>
      <point x="510" y="-20"/>
      <point x="640" y="-20" type="curve" smooth="yes"/>
      <point x="894.667" y="-20"/>
      <point x="1055" y="180"/>
      <point x="1055" y="500" type="curve" smooth="yes"/>
      <point x="1054" y="566" type="line" smooth="yes"/>
      <point x="1039.333" y="904.667"/>
      <point x="868" y="1102"/>
      <point x="592" y="1102" type="curve" smooth="yes"/>
      <point x="304" y="1102"/>
      <point x="145" y="868"/>
      <point x="145" y="580" type="curve" smooth="yes"/>
    </contour>
    <contour>
      <point x="585" y="131" type="curve" smooth="yes"/>
      <point x="471" y="131"/>
      <point x="386.333" y="180"/>
      <point x="331" y="278" type="curve"/>
      <point x="331" y="565" type="line" smooth="yes"/>
      <point x="331" y="790.333"/>
      <point x="436" y="950"/>
      <point x="592" y="950" type="curve" smooth="yes"/>
      <point x="769.333" y="950"/>
      <point x="870" y="794.333"/>
      <point x="870" y="521" type="curve" smooth="yes"/>
      <point x="870" y="261"/>
      <point x="765" y="131"/>
    </contour>
  </outline>
</glyph>
<glyph name="sigmafinal" format="2">
  <advance width="1101"/>
  <unicode hex="03C2"/>
  <note>
uni03C2
</note>
  <outline>
    <contour>
      <point x="740" y="-374" type="line"/>
      <point x="839" y="-291"/>
      <point x="912" y="-166"/>
      <point x="915" y="-82" type="curve" smooth="yes"/>
      <point x="915" y="25"/>
      <point x="868" y="84"/>
      <point x="603" y="161" type="curve" smooth="yes"/>
      <point x="390" y="227"/>
      <point x="283" y="347"/>
      <point x="283" y="552" type="curve" smooth="yes"/>
      <point x="283" y="791"/>
      <point x="394" y="950"/>
      <point x="570" y="950" type="curve" smooth="yes"/>
      <point x="718" y="950"/>
      <point x="815" y="856"/>
      <point x="815" y="709" type="curve"/>
      <point x="990" y="709" type="line"/>
      <point x="990" y="949"/>
      <point x="822" y="1102"/>
      <point x="570" y="1102" type="curve" smooth="yes"/>
      <point x="254" y="1102"/>
      <point x="98" y="848"/>
      <point x="98" y="520" type="curve" smooth="yes"/>
      <point x="98" y="239"/>
      <point x="267" y="70"/>
      <point x="582" y="0" type="curve" smooth="yes"/>
      <point x="651" y="-15"/>
      <point x="738" y="-33"/>
      <point x="738" y="-105" type="curve" smooth="yes"/>
      <point x="738" y="-152"/>
      <point x="722" y="-195"/>
      <point x="642" y="-289" type="curve"/>
    </contour>
  </outline>
</glyph>
<glyph name="sigma" format="2">
  <advance width="1160"/>
  <unicode hex="03C3"/>
  <note>
uni03C3
</note>
  <outline>
    <contour>
      <point x="582" y="-20" type="curve" smooth="yes"/>
      <point x="769" y="-20"/>
      <point x="923" y="77"/>
      <point x="1004" y="234" type="curve" smooth="yes"/>
      <point x="1045" y="312"/>
      <point x="1065" y="398"/>
      <point x="1065" y="491" type="curve" smooth="yes"/>
      <point x="1065" y="690"/>
      <point x="998" y="830"/>
      <point x="865" y="929" type="curve"/>
      <point x="1149" y="929" type="line"/>
      <point x="1149" y="1082" type="line"/>
      <point x="573" y="1082" type="line"/>
      <point x="286" y="1080"/>
      <point x="98" y="857"/>
      <point x="98" y="538" type="curve" smooth="yes"/>
      <point x="98" y="198"/>
      <point x="291" y="-20"/>
    </contour>
    <contour>
      <point x="582" y="131" type="curve" smooth="yes"/>
      <point x="398" y="131"/>
      <point x="284" y="285"/>
      <point x="284" y="529" type="curve" smooth="yes"/>
      <point x="284" y="790"/>
      <point x="397" y="929"/>
      <point x="580" y="929" type="curve" smooth="yes"/>
      <point x="765" y="929"/>
      <point x="880" y="780"/>
      <point x="880" y="551" type="curve" smooth="yes"/>
      <point x="880" y="280"/>
      <point x="767" y="131"/>
    </contour>
  </outline>
</glyph>
<glyph name="tau" format="2">
  <advance width="1068"/>
  <unicode hex="03C4"/>
  <note>
uni03C4
</note>
  <outline>
    <contour>
      <point x="671" y="-20" type="curve" smooth="yes"/>
      <point x="741.667" y="-20"/>
      <point x="802.333" y="-2.667"/>
      <point x="853" y="32" type="curve"/>
      <point x="811" y="162" type="line"/>
      <point x="778.333" y="144.667"/>
      <point x="747.667" y="136"/>
      <point x="719" y="136" type="curve" smooth="yes"/>
      <point x="649" y="136"/>
      <point x="614" y="180.333"/>
      <point x="614" y="269" type="curve" smooth="yes"/>
      <point x="614" y="932" type="line"/>
      <point x="985" y="932" type="line"/>
      <point x="985" y="1082" type="line"/>
      <point x="81" y="1082" type="line"/>
      <point x="81" y="932" type="line"/>
      <point x="428" y="932" type="line"/>
      <point x="428" y="273" type="line" smooth="yes"/>
      <point x="429.333" y="78.333"/>
      <point x="504.333" y="-20"/>
    </contour>
  </outline>
</glyph>
<glyph name="upsilon" format="2">
  <advance width="1117"/>
  <unicode hex="03C5"/>
  <note>
uni03C5
</note>
  <outline>
    <contour>
      <point x="539" y="-20" type="curve" smooth="yes"/>
      <point x="829.667" y="-20"/>
      <point x="1014" y="211.333"/>
      <point x="1014" y="562" type="curve" smooth="yes"/>
      <point x="1014" y="748"/>
      <point x="976.333" y="921.333"/>
      <point x="901" y="1082" type="curve"/>
      <point x="706" y="1082" type="line"/>
      <point x="784.667" y="889.333"/>
      <point x="825.667" y="716"/>
      <point x="829" y="562" type="curve" smooth="yes"/>
      <point x="829" y="319.333"/>
      <point x="702" y="130"/>
      <point x="530" y="130" type="curve" smooth="yes"/>
      <point x="396" y="130"/>
      <point x="329" y="231.667"/>
      <point x="329" y="435" type="curve" smooth="yes"/>
      <point x="329" y="1082" type="line"/>
      <point x="143" y="1082" type="line"/>
      <point x="143" y="419" type="line" smooth="yes"/>
      <point x="145.667" y="132.333"/>
      <point x="280.333" y="-20"/>
    </contour>
  </outline>
</glyph>
<glyph name="phi" format="2">
  <advance width="1443"/>
  <unicode hex="03C6"/>
  <note>
uni03C6
</note>
  <outline>
    <contour>
      <point x="620" y="-478" type="line"/>
      <point x="805" y="-478" type="line"/>
      <point x="805" y="-17" type="line"/>
      <point x="1153" y="11"/>
      <point x="1356" y="220"/>
      <point x="1356" y="544" type="curve" smooth="yes"/>
      <point x="1356" y="742.667"/>
      <point x="1263.5" y="917.5"/>
      <point x="1113.5" y="1011.5" type="curve" smooth="yes"/>
      <point x="1038.5" y="1058.5"/>
      <point x="957.667" y="1082"/>
      <point x="871" y="1082" type="curve" smooth="yes"/>
      <point x="720.333" y="1082"/>
      <point x="620" y="992"/>
      <point x="620" y="852" type="curve" smooth="yes"/>
      <point x="620" y="136" type="line"/>
      <point x="398.667" y="170.667"/>
      <point x="273" y="333.333"/>
      <point x="273" y="564" type="curve" smooth="yes"/>
      <point x="273" y="727"/>
      <point x="336.667" y="855.667"/>
      <point x="444" y="949" type="curve"/>
      <point x="343" y="1082" type="line"/>
      <point x="173.667" y="966"/>
      <point x="87" y="788"/>
      <point x="87" y="564" type="curve" smooth="yes"/>
      <point x="87" y="229.333"/>
      <point x="278.667" y="13.667"/>
      <point x="620" y="-17" type="curve"/>
    </contour>
    <contour>
      <point x="805" y="136" type="curve"/>
      <point x="805" y="847" type="line" smooth="yes"/>
      <point x="805" y="901.667"/>
      <point x="827" y="929"/>
      <point x="871" y="929" type="curve" smooth="yes"/>
      <point x="1044.333" y="929"/>
      <point x="1164.333" y="769.333"/>
      <point x="1171" y="544" type="curve" smooth="yes"/>
      <point x="1171" y="325.333"/>
      <point x="1031.667" y="165.333"/>
    </contour>
  </outline>
</glyph>
<glyph name="psi" format="2">
  <advance width="1434"/>
  <unicode hex="03C8"/>
  <note>
uni03C8
</note>
  <outline>
    <contour>
      <point x="611" y="-472" type="line"/>
      <point x="796" y="-472" type="line"/>
      <point x="796" y="-17" type="line"/>
      <point x="1150.667" y="11"/>
      <point x="1347" y="221.667"/>
      <point x="1347" y="567" type="curve" smooth="yes"/>
      <point x="1347" y="753"/>
      <point x="1307.667" y="924.667"/>
      <point x="1229" y="1082" type="curve"/>
      <point x="1035" y="1082" type="line"/>
      <point x="1116.333" y="893.333"/>
      <point x="1158.667" y="721.667"/>
      <point x="1162" y="567" type="curve" smooth="yes"/>
      <point x="1162" y="329.667"/>
      <point x="1024" y="168"/>
      <point x="796" y="136" type="curve"/>
      <point x="796" y="1082" type="line"/>
      <point x="611" y="1082" type="line"/>
      <point x="611" y="137" type="line"/>
      <point x="395" y="170.333"/>
      <point x="283.667" y="325.333"/>
      <point x="281" y="584" type="curve" smooth="yes"/>
      <point x="281" y="1082" type="line"/>
      <point x="95" y="1082" type="line"/>
      <point x="95" y="596" type="line" smooth="yes"/>
      <point x="95" y="229.333"/>
      <point x="271" y="19.667"/>
      <point x="611" y="-15" type="curve"/>
    </contour>
  </outline>
</glyph>
<glyph name="omega" format="2">
  <advance width="1687"/>
  <unicode hex="03C9"/>
  <note>
uni03C9
</note>
  <outline>
    <contour>
      <point x="517" y="-20" type="curve" smooth="yes"/>
      <point x="675.667" y="-20"/>
      <point x="786.333" y="62"/>
      <point x="841" y="218" type="curve"/>
      <point x="897.667" y="59.333"/>
      <point x="1006" y="-20"/>
      <point x="1166" y="-20" type="curve" smooth="yes"/>
      <point x="1416.667" y="-20"/>
      <point x="1561" y="193.333"/>
      <point x="1561" y="560" type="curve" smooth="yes"/>
      <point x="1561" y="745.333"/>
      <point x="1516" y="919.333"/>
      <point x="1426" y="1082" type="curve"/>
      <point x="1231" y="1082" type="line"/>
      <point x="1323" y="893.333"/>
      <point x="1371.333" y="719.333"/>
      <point x="1376" y="560" type="curve" smooth="yes"/>
      <point x="1376" y="288"/>
      <point x="1297.333" y="130"/>
      <point x="1156" y="130" type="curve" smooth="yes"/>
      <point x="1013.333" y="130"/>
      <point x="936.333" y="245.333"/>
      <point x="935" y="464" type="curve" smooth="yes"/>
      <point x="935" y="770" type="line"/>
      <point x="748" y="770" type="line"/>
      <point x="748" y="469" type="line" smooth="yes"/>
      <point x="748" y="248"/>
      <point x="671" y="130"/>
      <point x="527" y="130" type="curve" smooth="yes"/>
      <point x="386" y="130"/>
      <point x="307" y="289"/>
      <point x="307" y="560" type="curve" smooth="yes"/>
      <point x="311.667" y="719.333"/>
      <point x="360" y="893.333"/>
      <point x="452" y="1082" type="curve"/>
      <point x="257" y="1082" type="line"/>
      <point x="167" y="925.333"/>
      <point x="122" y="751.333"/>
      <point x="122" y="560" type="curve" smooth="yes"/>
      <point x="122" y="193.333"/>
      <point x="266.333" y="-20"/>
    </contour>
  </outline>
</glyph>
<glyph name="thetaSymbol" format="2">
  <advance width="1185"/>
  <unicode hex="03D1"/>
  <note>
uni03D1
</note>
  <outline>
    <contour>
      <point x="571" y="-20" type="curve" smooth="yes"/>
      <point x="837.667" y="-20"/>
      <point x="999.333" y="147.667"/>
      <point x="1002" y="429" type="curve" smooth="yes"/>
      <point x="1002" y="595" type="line"/>
      <point x="1057.333" y="601"/>
      <point x="1105" y="611.667"/>
      <point x="1145" y="627" type="curve"/>
      <point x="1137" y="776" type="line"/>
      <point x="1089" y="763"/>
      <point x="1044" y="755"/>
      <point x="1002" y="752" type="curve"/>
      <point x="1002" y="1103" type="line" smooth="yes"/>
      <point x="1002" y="1340.333"/>
      <point x="877" y="1478"/>
      <point x="665" y="1478" type="curve" smooth="yes"/>
      <point x="465" y="1478"/>
      <point x="331" y="1344"/>
      <point x="331" y="1131" type="curve" smooth="yes"/>
      <point x="331" y="842"/>
      <point x="528" y="642"/>
      <point x="817" y="601" type="curve"/>
      <point x="817" y="435" type="line" smooth="yes"/>
      <point x="817" y="232.333"/>
      <point x="725.667" y="137"/>
      <point x="571" y="137" type="curve" smooth="yes"/>
      <point x="405.667" y="137"/>
      <point x="307" y="244.333"/>
      <point x="307" y="435" type="curve" smooth="yes"/>
      <point x="307" y="771" type="line"/>
      <point x="121" y="769" type="line"/>
      <point x="121" y="442" type="line" smooth="yes"/>
      <point x="121" y="155.333"/>
      <point x="300.333" y="-20"/>
    </contour>
    <contour>
      <point x="817" y="762" type="line"/>
      <point x="633" y="802"/>
      <point x="517" y="936.667"/>
      <point x="517" y="1124" type="curve" smooth="yes"/>
      <point x="517" y="1254.667"/>
      <point x="566.333" y="1320"/>
      <point x="665" y="1320" type="curve" smooth="yes"/>
      <point x="763" y="1320"/>
      <point x="813.667" y="1254"/>
      <point x="817" y="1122" type="curve" smooth="yes"/>
    </contour>
  </outline>
</glyph>
<glyph name="UpsilonhookSymbol" format="2">
  <advance width="1090"/>
  <unicode hex="03D2"/>
  <note>
uni03D2
</note>
  <outline>
    <contour>
      <point x="452" y="0" type="line"/>
      <point x="643" y="0" type="line"/>
      <point x="643" y="570" type="line"/>
      <point x="940" y="1219" type="line" smooth="yes"/>
      <point x="964" y="1271.667"/>
      <point x="1000" y="1305"/>
      <point x="1046" y="1298" type="curve" smooth="yes"/>
      <point x="1098" y="1290" type="line"/>
      <point x="1134" y="1441" type="line"/>
      <point x="1099.333" y="1459"/>
      <point x="1058" y="1468"/>
      <point x="1010" y="1468" type="curve" smooth="yes"/>
      <point x="894" y="1468"/>
      <point x="830.333" y="1413"/>
      <point x="773" y="1281" type="curve" smooth="yes"/>
      <point x="548" y="774" type="line"/>
      <point x="322" y="1291" type="line" smooth="yes"/>
      <point x="266" y="1415"/>
      <point x="202.333" y="1468"/>
      <point x="85" y="1468" type="curve" smooth="yes"/>
      <point x="37.667" y="1468"/>
      <point x="-3.333" y="1458.667"/>
      <point x="-38" y="1440" type="curve"/>
      <point x="-2" y="1290" type="line"/>
      <point x="50" y="1298" type="line" smooth="yes"/>
      <point x="94" y="1305"/>
      <point x="130" y="1271.667"/>
      <point x="156" y="1219" type="curve" smooth="yes"/>
      <point x="452" y="572" type="line"/>
    </contour>
  </outline>
</glyph>
<glyph name="ho-ethiopic" format="2">
  <advance width="1128"/>
  <unicode hex="1206"/>
  <outline>
    <contour>
      <point x="675" y="788" type="curve" smooth="yes"/>
      <point x="772" y="788"/>
      <point x="844" y="858"/>
      <point x="844" y="951" type="curve" smooth="yes"/>
      <point x="844" y="1046"/>
      <point x="770" y="1118"/>
      <point x="675" y="1118" type="curve" smooth="yes"/>
      <point x="576" y="1118"/>
      <point x="501" y="1044"/>
      <point x="501" y="951" type="curve" smooth="yes"/>
      <point x="501" y="859"/>
      <point x="574" y="788"/>
    </contour>
    <contour>
      <point x="605" y="950" type="curve" smooth="yes"/>
      <point x="605" y="1008"/>
      <point x="653" y="1060"/>
      <point x="716" y="1060" type="curve" smooth="yes"/>
      <point x="775" y="1060"/>
      <point x="821" y="1012"/>
      <point x="821" y="950" type="curve" smooth="yes"/>
      <point x="821" y="882"/>
      <point x="768" y="847"/>
      <point x="713" y="846" type="curve" smooth="yes"/>
      <point x="659" y="846"/>
      <point x="605" y="880"/>
    </contour>
    <component base="ha.base"/>
  </outline>
</glyph>
<glyph name="le-ethiopic" format="2">
  <advance width="1128"/>
  <unicode hex="120D"/>
  <anchor x="924" y="-122" name="_hee"/>
  <anchor x="917" y="12" name="haa"/>
  <anchor x="99" y="585" name="he"/>
  <anchor x="924" y="0" name="hee"/>
  <anchor x="996" y="93" name="hi"/>
  <anchor x="1039" y="667" name="hu"/>
  <anchor x="907" y="2" name="hwa"/>
  <outline>
    <contour>
      <point x="454" y="-23" type="curve" smooth="yes"/>
      <point x="582" y="-23"/>
      <point x="676" y="69"/>
      <point x="676" y="191" type="curve" smooth="yes"/>
      <point x="676" y="316"/>
      <point x="579" y="411"/>
      <point x="454" y="411" type="curve" smooth="yes"/>
      <point x="324" y="411"/>
      <point x="225" y="313"/>
      <point x="225" y="191" type="curve" smooth="yes"/>
      <point x="225" y="71"/>
      <point x="321" y="-23"/>
    </contour>
    <contour>
      <point x="258" y="208" type="curve" smooth="yes"/>
      <point x="258" y="286"/>
      <point x="324" y="356"/>
      <point x="408" y="356" type="curve" smooth="yes"/>
      <point x="490" y="356"/>
      <point x="552" y="291"/>
      <point x="552" y="208" type="curve" smooth="yes"/>
      <point x="552" y="113"/>
      <point x="480" y="68"/>
      <point x="405" y="66" type="curve" smooth="yes"/>
      <point x="332" y="66"/>
      <point x="258" y="112"/>
    </contour>
    <component base="la.base"/>
  </outline>
</glyph>
<glyph name="ro-ethiopic" format="2">
  <advance width="1081"/>
  <unicode hex="122E"/>
  <anchor x="558" y="1278" name="hat"/>
  <anchor x="827" y="-26" name="hwa"/>
  <anchor x="818" y="-75" name="leg"/>
  <outline>
    <contour>
      <point x="830" y="640" type="curve" smooth="yes"/>
      <point x="966" y="640"/>
      <point x="1066" y="738"/>
      <point x="1066" y="868" type="curve" smooth="yes"/>
      <point x="1066" y="1000"/>
      <point x="963" y="1102"/>
      <point x="830" y="1102" type="curve" smooth="yes"/>
      <point x="692" y="1102"/>
      <point x="587" y="998"/>
      <point x="587" y="868" type="curve" smooth="yes"/>
      <point x="587" y="740"/>
      <point x="688" y="640"/>
    </contour>
    <contour>
      <point x="653" y="796" type="curve" smooth="yes"/>
      <point x="653" y="870"/>
      <point x="715" y="937"/>
      <point x="794" y="937" type="curve" smooth="yes"/>
      <point x="870" y="937"/>
      <point x="929" y="874"/>
      <point x="929" y="796" type="curve" smooth="yes"/>
      <point x="929" y="708"/>
      <point x="861" y="663"/>
      <point x="791" y="663" type="curve" smooth="yes"/>
      <point x="723" y="663"/>
      <point x="653" y="707"/>
    </contour>
    <component base="re-ethiopic"/>
  </outline>
</glyph>
<glyph name="qoa-ethiopic" format="2">
  <advance width="1533"/>
  <unicode hex="1247"/>
  <anchor x="787" y="11" name="haa"/>
  <anchor x="758" y="1341" name="hat"/>
  <anchor x="1009" y="-165" name="hee"/>
  <anchor x="1461.454" y="657.0" name="hu"/>
  <anchor x="751.231" y="-25.0" name="hwa"/>
  <anchor x="752.098" y="-25.0" name="leg"/>
  <anchor x="758.499" y="1102.0" name="neck"/>
  <outline>
    <contour>
      <point x="481" y="-256" type="line"/>
      <point x="481" y="-447" type="line"/>
      <point x="670" y="-447" type="line"/>
      <point x="670" y="-256" type="line"/>
    </contour>
    <component base="wa.base"/>
    <component base="_smart.neck" xOffset="757" yOffset="1126"/>
    <component base="_smart.leg" xOffset="750" yOffset="-312"/>
  </outline>
</glyph>
<glyph name="qhwaa-ethiopic" format="2">
  <advance width="1578"/>
  <unicode hex="125B"/>
  <anchor x="771" y="0" name="haa"/>
  <anchor x="689" y="-130" name="haa.acute"/>
  <anchor x="758" y="1363" name="hat"/>
  <anchor x="765.41" y="1232" name="he.acute.top"/>
  <anchor x="820" y="0" name="hee"/>
  <anchor x="803" y="-239" name="hi"/>
  <anchor x="976" y="1150" name="ho.ring"/>
  <anchor x="1415" y="743" name="hu"/>
  <anchor x="751" y="0" name="hwa"/>
  <anchor x="773" y="1082" name="neck"/>
  <outline>
    <contour>
      <point x="520" y="-20" type="curve" smooth="yes"/>
      <point x="574" y="-20"/>
      <point x="622" y="-16"/>
      <point x="666" y="0" type="curve"/>
      <point x="881" y="0" type="line"/>
      <point x="921" y="-13"/>
      <point x="965" y="-20"/>
      <point x="1015" y="-20" type="curve" smooth="yes"/>
      <point x="1266" y="-20"/>
      <point x="1440" y="205"/>
      <point x="1440" y="550" type="curve" smooth="yes"/>
      <point x="1440" y="882"/>
      <point x="1268" y="1102"/>
      <point x="1013" y="1102" type="curve" smooth="yes"/>
      <point x="963" y="1102"/>
      <point x="918" y="1095"/>
      <point x="877" y="1082" type="curve"/>
      <point x="666" y="1082" type="line"/>
      <point x="623" y="1097"/>
      <point x="575" y="1102"/>
      <point x="522" y="1102" type="curve" smooth="yes"/>
      <point x="267" y="1102"/>
      <point x="95" y="882"/>
      <point x="95" y="536" type="curve" smooth="yes"/>
      <point x="95" y="205"/>
      <point x="269" y="-20"/>
    </contour>
    <contour>
      <point x="566" y="137" type="curve" smooth="yes"/>
      <point x="387" y="137"/>
      <point x="280" y="284"/>
      <point x="280" y="529" type="curve" smooth="yes"/>
      <point x="280" y="804"/>
      <point x="387" y="945"/>
      <point x="568" y="945" type="curve" smooth="yes"/>
      <point x="603" y="945"/>
      <point x="656" y="940"/>
      <point x="686" y="931" type="curve"/>
      <point x="686" y="163" type="line"/>
      <point x="653" y="147"/>
      <point x="599" y="137"/>
    </contour>
    <contour>
      <point x="928" y="137" type="curve" smooth="yes"/>
      <point x="911" y="135"/>
      <point x="875" y="151"/>
      <point x="859" y="156" type="curve"/>
      <point x="859" y="942" type="line"/>
      <point x="897" y="944"/>
      <point x="933" y="942"/>
      <point x="966" y="936" type="curve" smooth="yes"/>
      <point x="1149" y="904"/>
      <point x="1255" y="762"/>
      <point x="1255" y="529" type="curve" smooth="yes"/>
      <point x="1255" y="284"/>
      <point x="1106" y="158"/>
    </contour>
    <contour>
      <point x="520" y="-348" type="line"/>
      <point x="900" y="-348" type="line"/>
      <point x="900" y="-465" type="line"/>
      <point x="1000" y="-465" type="line"/>
      <point x="1000" y="-277" type="line"/>
      <point x="841" y="-277" type="line"/>
      <point x="841" y="16" type="line"/>
      <point x="656" y="16" type="line"/>
      <point x="656" y="-277" type="line"/>
      <point x="520" y="-277" type="line"/>
    </contour>
    <contour>
      <point x="438" y="1403" type="line"/>
      <point x="1063" y="1403" type="line"/>
      <point x="1063" y="1485" type="line"/>
      <point x="438" y="1485" type="line"/>
    </contour>
    <contour>
      <point x="731" y="1501" type="curve"/>
      <point x="566" y="1501"/>
      <point x="345" y="1399"/>
      <point x="345" y="1242" type="curve" smooth="yes"/>
      <point x="345" y="1082"/>
      <point x="469" y="960"/>
      <point x="631" y="960" type="curve" smooth="yes"/>
      <point x="798" y="960"/>
      <point x="924" y="1085"/>
      <point x="924" y="1242" type="curve" smooth="yes"/>
      <point x="924" y="1397"/>
      <point x="902" y="1501"/>
    </contour>
    <contour>
      <point x="572" y="1443" type="curve" smooth="yes"/>
      <point x="670" y="1443"/>
      <point x="771" y="1379"/>
      <point x="771" y="1252" type="curve" smooth="yes"/>
      <point x="771" y="1146"/>
      <point x="683" y="1051"/>
      <point x="567" y="1051" type="curve" smooth="yes"/>
      <point x="457" y="1051"/>
      <point x="373" y="1140"/>
      <point x="373" y="1252" type="curve" smooth="yes"/>
      <point x="373" y="1378"/>
      <point x="471" y="1442"/>
    </contour>
  </outline>
</glyph>
<glyph name="xe-ethiopic" format="2">
  <advance width="1077"/>
  <unicode hex="1285"/>
  <anchor x="983" y="10" name="haa"/>
  <anchor x="762" y="0" name="haa.acute"/>
  <anchor x="449" y="1367" name="hat"/>
  <anchor x="391" y="1316" name="hat.left"/>
  <anchor x="1036" y="91" name="he.left.outer"/>
  <anchor x="811" y="40" name="hee"/>
  <anchor x="879" y="110" name="hi"/>
  <anchor x="614" y="691" name="ho.ring"/>
  <anchor x="232" y="1342" name="ho.ring.uniq"/>
  <anchor x="881" y="638" name="hu"/>
  <anchor x="793" y="0" name="hwa"/>
  <anchor x="485" y="1072" name="neck"/>
  <anchor x="281" y="1008" name="neck.left"/>
  <anchor x="175" y="1315" name="nose"/>
  <anchor x="521" y="1030" name="ring"/>
  <anchor x="599.63" y="1.0" name="xwaa"/>
  <outline>
    <contour>
      <point x="-73" y="1009" type="line"/>
      <point x="-73" y="748" type="line"/>
      <point x="38" y="748" type="line"/>
      <point x="38" y="1009" type="line"/>
    </contour>
    <component base="ga.base" xOffset="99"/>
    <component base="_smart.neck.left" xOffset="221" yOffset="1032"/>
    <component base="_smart.nose" xOffset="-177" yOffset="1174"/>
  </outline>
</glyph>
<glyph name="xoa-ethiopic" format="2">
  <advance width="1100"/>
  <unicode hex="1287"/>
  <anchor x="743" y="1278" name="hat"/>
  <anchor x="1012" y="-26" name="hwa"/>
  <anchor x="1003" y="-75" name="leg"/>
  <outline>
    <contour>
      <point x="553" y="-325" type="line"/>
      <point x="553" y="-401" type="line"/>
      <point x="941" y="-401" type="line"/>
      <point x="941" y="-325" type="line"/>
    </contour>
    <component base="xo-ethiopic"/>
  </outline>
</glyph>
<glyph name="xwi-ethiopic" format="2">
  <advance width="1266"/>
  <unicode hex="128A"/>
  <anchor x="489" y="1207" name="hat"/>
  <anchor x="537.6120000000001" y="1173.0" name="hat.002"/>
  <anchor x="1045" y="14" name="hee"/>
  <anchor x="904" y="15" name="hi"/>
  <anchor x="966" y="681" name="hu"/>
  <anchor x="892" y="3" name="hwa"/>
  <anchor x="550" y="968" name="neck"/>
  <anchor x="253" y="1235" name="nose"/>
  <anchor x="407" y="1011" name="shoulder"/>
  <outline>
    <contour>
      <point x="966" y="663" type="line"/>
      <point x="966" y="572" type="line"/>
      <point x="1117" y="572" type="line"/>
      <point x="1117" y="663" type="line"/>
    </contour>
    <contour>
      <point x="1052" y="766" type="line"/>
      <point x="1052" y="371" type="line"/>
      <point x="1118" y="371" type="line"/>
      <point x="1118" y="766" type="line"/>
    </contour>
    <contour>
      <point x="1073" y="471" type="line"/>
      <point x="1073" y="371" type="line"/>
      <point x="1209" y="371" type="line"/>
      <point x="1209" y="471" type="line"/>
    </contour>
    <component base="ga.base" xOffset="251"/>
    <component base="_smart.shoulder" xOffset="331" yOffset="1084"/>
    <component base="_smart.nose" xOffset="-4" yOffset="1134"/>
  </outline>
</glyph>
<glyph name="xwaa-ethiopic" format="2">
  <advance width="1178"/>
  <unicode hex="128B"/>
  <anchor x="489" y="1207" name="hat"/>
  <anchor x="537.6120000000001" y="1173.0" name="hat.002"/>
  <anchor x="1045" y="14" name="hee"/>
  <anchor x="904" y="15" name="hi"/>
  <anchor x="966" y="681" name="hu"/>
  <anchor x="892" y="3" name="hwa"/>
  <anchor x="550" y="968" name="neck"/>
  <anchor x="253" y="1235" name="nose"/>
  <anchor x="407" y="1011" name="shoulder"/>
  <outline>
    <contour>
      <point x="825" y="-345" type="line"/>
      <point x="1045" y="-345" type="line"/>
      <point x="1044" y="19" type="line"/>
      <point x="524" y="19" type="line"/>
      <point x="524" y="-112" type="line"/>
      <point x="825" y="-112" type="line"/>
    </contour>
    <component base="ga.base" xOffset="251"/>
    <component base="_smart.nose" xOffset="-4" yOffset="1134"/>
    <component base="_smart.shoulder" xOffset="331" yOffset="1084"/>
  </outline>
</glyph>
<glyph name="ne-ethiopic" format="2">
  <advance width="941"/>
  <unicode hex="1295"/>
  <outline>
    <contour>
      <point x="622" y="-11" type="line"/>
      <point x="808" y="-11" type="line"/>
      <point x="808" y="357" type="line" smooth="yes"/>
      <point x="808" y="694"/>
      <point x="676" y="882"/>
      <point x="426" y="901" type="curve" smooth="yes"/>
      <point x="320" y="909"/>
      <point x="194" y="849"/>
      <point x="130" y="807" type="curve"/>
      <point x="298" y="743" type="line"/>
      <point x="319" y="754"/>
      <point x="355" y="782"/>
      <point x="426" y="760" type="curve" smooth="yes"/>
      <point x="562" y="718"/>
      <point x="618" y="611"/>
      <point x="623" y="364" type="curve"/>
    </contour>
    <contour>
      <point x="711" y="619" type="line"/>
      <point x="813" y="1066"/>
      <point x="606" y="1262"/>
      <point x="356" y="1281" type="curve" smooth="yes"/>
      <point x="250" y="1289"/>
      <point x="124" y="1229"/>
      <point x="60" y="1187" type="curve"/>
      <point x="228" y="1123" type="line"/>
      <point x="249" y="1134"/>
      <point x="285" y="1162"/>
      <point x="356" y="1140" type="curve" smooth="yes"/>
      <point x="492" y="1098"/>
      <point x="589" y="958"/>
      <point x="548" y="721" type="curve"/>
    </contour>
  </outline>
</glyph>
<glyph name="nye-ethiopic" format="2">
  <advance width="966"/>
  <unicode hex="129D"/>
  <anchor x="853" y="10" name="haa"/>
  <anchor x="632" y="0" name="haa.acute"/>
  <anchor x="319" y="1367" name="hat"/>
  <anchor x="261" y="1316" name="hat.left"/>
  <anchor x="906" y="91" name="he.left.outer"/>
  <anchor x="681" y="40" name="hee"/>
  <anchor x="749" y="110" name="hi"/>
  <anchor x="484" y="691" name="ho.ring"/>
  <anchor x="751" y="638" name="hu"/>
  <anchor x="663" y="0" name="hwa"/>
  <anchor x="355" y="1102" name="neck"/>
  <anchor x="148" y="1007" name="neck.left"/>
  <anchor x="45" y="1235" name="nose"/>
  <outline>
    <contour>
      <point x="738" y="-353" type="line"/>
      <point x="871" y="-353" type="line"/>
      <point x="880" y="355" type="line"/>
      <point x="738" y="208" type="line"/>
    </contour>
    <component base="ga.base" xOffset="28"/>
    <component base="_smart.hat.left" xOffset="356" yOffset="1304"/>
  </outline>
</glyph>
<glyph name="eGlottal-ethiopic" format="2">
  <advance width="1179"/>
  <unicode hex="12A5"/>
  <anchor x="963" y="8" name="haa"/>
  <anchor x="636" y="1382" name="hat"/>
  <anchor x="293" y="1371" name="hat.001"/>
  <anchor x="762" y="329" name="hee"/>
  <anchor x="1100" y="12" name="hi"/>
  <anchor x="304" y="21" name="ho"/>
  <anchor x="1100" y="673" name="hu"/>
  <anchor x="973" y="-6" name="hwa"/>
  <anchor x="651" y="1114" name="neck"/>
  <outline>
    <contour>
      <point x="60" y="1709" type="line"/>
      <point x="60" y="1403" type="line"/>
      <point x="192" y="1403" type="line"/>
      <point x="192" y="1709" type="line"/>
    </contour>
    <component base="ba.base" xOffset="62"/>
    <component base="_aa.neck" xOffset="1192"/>
  </outline>
</glyph>
<glyph name="ge-ethiopic" format="2">
  <advance width="866"/>
  <unicode hex="130D"/>
  <anchor x="332" y="1207" name="hat"/>
  <anchor x="380.612" y="1173.0" name="hat.002"/>
  <anchor x="888" y="14" name="hee"/>
  <anchor x="747" y="15" name="hi"/>
  <anchor x="809" y="681" name="hu"/>
  <anchor x="735" y="3" name="hwa"/>
  <anchor x="393" y="968" name="neck"/>
  <anchor x="96" y="1235" name="nose"/>
  <anchor x="250" y="1011" name="shoulder"/>
  <outline>
    <contour>
      <point x="234" y="701" type="curve" smooth="yes"/>
      <point x="331" y="701"/>
      <point x="403" y="771"/>
      <point x="403" y="864" type="curve" smooth="yes"/>
      <point x="403" y="959"/>
      <point x="329" y="1031"/>
      <point x="234" y="1031" type="curve" smooth="yes"/>
      <point x="135" y="1031"/>
      <point x="60" y="957"/>
      <point x="60" y="864" type="curve" smooth="yes"/>
      <point x="60" y="772"/>
      <point x="133" y="701"/>
    </contour>
    <contour>
      <point x="80" y="872" type="curve" smooth="yes"/>
      <point x="80" y="932"/>
      <point x="130" y="986"/>
      <point x="195" y="986" type="curve" smooth="yes"/>
      <point x="256" y="986"/>
      <point x="304" y="935"/>
      <point x="304" y="872" type="curve" smooth="yes"/>
      <point x="304" y="801"/>
      <point x="248" y="765"/>
      <point x="192" y="764" type="curve" smooth="yes"/>
      <point x="137" y="764"/>
      <point x="80" y="800"/>
    </contour>
    <component base="ga.base" xOffset="94"/>
  </outline>
</glyph>
<glyph name="gwaa-ethiopic" format="2">
  <advance width="987"/>
  <unicode hex="1313"/>
  <anchor x="238" y="1207" name="hat"/>
  <anchor x="286.612" y="1173.0" name="hat.002"/>
  <anchor x="794" y="14" name="hee"/>
  <anchor x="653" y="15" name="hi"/>
  <anchor x="715" y="681" name="hu"/>
  <anchor x="641" y="3" name="hwa"/>
  <anchor x="299" y="968" name="neck"/>
  <anchor x="2" y="1235" name="nose"/>
  <anchor x="156" y="1011" name="shoulder"/>
  <outline>
    <contour>
      <point x="779" y="-401" type="line"/>
      <point x="931" y="-401" type="line"/>
      <point x="931" y="14" type="line"/>
      <point x="373" y="12" type="line"/>
      <point x="373" y="-140" type="line"/>
      <point x="779" y="-140" type="line"/>
    </contour>
    <component base="ga.base"/>
  </outline>
</glyph>
<glyph name="paa-ethiopic" format="2">
  <advance width="679"/>
  <unicode hex="1353"/>
  <anchor x="492" y="42" name="haa"/>
  <anchor x="270" y="0" name="haa.acute"/>
  <anchor x="282" y="1339" name="hat"/>
  <anchor x="275" y="1167" name="he.acute.top"/>
  <anchor x="331" y="40" name="hee"/>
  <anchor x="404" y="110" name="hi"/>
  <anchor x="549" y="1274" name="ho.ring"/>
  <anchor x="393" y="669" name="hu"/>
  <anchor x="301" y="-40" name="hwa"/>
  <anchor x="293" y="1082" name="neck"/>
  <outline>
    <contour>
      <point x="65" y="0" type="line"/>
      <point x="337" y="0" type="line"/>
      <point x="337" y="112" type="line"/>
      <point x="65" y="112" type="line"/>
    </contour>
    <component base="pa.base"/>
  </outline>
</glyph>
<glyph name="po-ethiopic" format="2">
  <advance width="679"/>
  <unicode hex="1356"/>
  <outline>
    <contour>
      <point x="24" y="0" type="line"/>
      <point x="209" y="0" type="line"/>
      <point x="439" y="939" type="line"/>
      <point x="641" y="939" type="line"/>
      <point x="641" y="1082" type="line"/>
      <point x="57" y="1082" type="line"/>
      <point x="57" y="939" type="line"/>
      <point x="254" y="939" type="line"/>
    </contour>
  </outline>
</glyph>
<glyph name="rya-ethiopic" format="2">
  <advance width="984"/>
  <unicode hex="1358"/>
  <anchor x="712" y="101" name="fa"/>
  <anchor x="583.102" y="-13.0" name="haa"/>
  <anchor x="558.174" y="-11.0" name="haa.acute"/>
  <anchor x="583" y="961" name="hat"/>
  <anchor x="1058" y="759" name="hee"/>
  <anchor x="887" y="830" name="ho.ring"/>
  <anchor x="665" y="4" name="hwa"/>
  <outline>
    <contour>
      <point x="8" y="1082" type="line"/>
      <point x="560" y="1082" type="line"/>
      <point x="560" y="1194" type="line"/>
      <point x="8" y="1194" type="line"/>
    </contour>
    <component base="ra.base"/>
    <component base="acute" xScale="-1" xOffset="1147" yOffset="-930"/>
  </outline>
</glyph>
<glyph name="period-ethiopic" format="2">
  <advance width="965"/>
  <unicode hex="1362"/>
  <outline>
    <contour>
      <point x="679" y="532" type="curve" smooth="yes"/>
      <point x="755" y="532"/>
      <point x="795" y="579"/>
      <point x="795" y="640" type="curve" smooth="yes"/>
      <point x="795" y="704"/>
      <point x="755" y="752"/>
      <point x="679" y="752" type="curve" smooth="yes"/>
      <point x="603" y="752"/>
      <point x="565" y="704"/>
      <point x="565" y="640" type="curve" smooth="yes"/>
      <point x="565" y="579"/>
      <point x="603" y="532"/>
    </contour>
    <contour>
      <point x="278" y="-11" type="curve" smooth="yes"/>
      <point x="354" y="-11"/>
      <point x="394" y="36"/>
      <point x="394" y="97" type="curve" smooth="yes"/>
      <point x="394" y="161"/>
      <point x="354" y="209"/>
      <point x="278" y="209" type="curve" smooth="yes"/>
      <point x="202" y="209"/>
      <point x="164" y="161"/>
      <point x="164" y="97" type="curve" smooth="yes"/>
      <point x="164" y="36"/>
      <point x="202" y="-11"/>
    </contour>
    <contour>
      <point x="678" y="-11" type="curve" smooth="yes"/>
      <point x="754" y="-11"/>
      <point x="794" y="36"/>
      <point x="794" y="97" type="curve" smooth="yes"/>
      <point x="794" y="161"/>
      <point x="754" y="209"/>
      <point x="678" y="209" type="curve" smooth="yes"/>
      <point x="602" y="209"/>
      <point x="564" y="161"/>
      <point x="564" y="97" type="curve" smooth="yes"/>
      <point x="564" y="36"/>
      <point x="602" y="-11"/>
    </contour>
    <contour>
      <point x="279" y="532" type="curve" smooth="yes"/>
      <point x="355" y="532"/>
      <point x="395" y="579"/>
      <point x="395" y="640" type="curve" smooth="yes"/>
      <point x="395" y="704"/>
      <point x="355" y="752"/>
      <point x="279" y="752" type="curve" smooth="yes"/>
      <point x="203" y="752"/>
      <point x="165" y="704"/>
      <point x="165" y="640" type="curve" smooth="yes"/>
      <point x="165" y="579"/>
      <point x="203" y="532"/>
    </contour>
  </outline>
</glyph>
<glyph name="comma-ethiopic" format="2">
  <advance width="556"/>
  <unicode hex="1363"/>
  <outline>
    <contour>
      <point x="98" y="1312" type="line"/>
      <point x="437" y="1312" type="line"/>
      <point x="437" y="1439" type="line"/>
      <point x="98" y="1439" type="line"/>
    </contour>
    <component base="colon" xOffset="30"/>
  </outline>
</glyph>
<glyph name="colon-ethiopic" format="2">
  <advance width="556"/>
  <unicode hex="1365"/>
  <outline>
    <contour>
      <point x="154" y="512" type="line"/>
      <point x="453" y="512" type="line"/>
      <point x="453" y="641" type="line"/>
      <point x="154" y="641" type="line"/>
    </contour>
    <component base="colon" xOffset="30"/>
  </outline>
</glyph>
<glyph name="paragraphseparator-ethiopic" format="2">
  <advance width="1337"/>
  <unicode hex="1368"/>
  <outline>
    <contour>
      <point x="644" y="439" type="curve" smooth="yes"/>
      <point x="711" y="439"/>
      <point x="768" y="494"/>
      <point x="768" y="562" type="curve" smooth="yes"/>
      <point x="768" y="629"/>
      <point x="711" y="686"/>
      <point x="644" y="686" type="curve" smooth="yes"/>
      <point x="576" y="686"/>
      <point x="521" y="629"/>
      <point x="521" y="562" type="curve" smooth="yes"/>
      <point x="521" y="494"/>
      <point x="576" y="439"/>
    </contour>
    <component base="period" xScale="0.64279" xyScale="-0.76604" yxScale="0.76604" yScale="0.64279" xOffset="85" yOffset="392"/>
    <component base="period" xScale="0.64279" xyScale="-0.76604" yxScale="0.76604" yScale="0.64279" xOffset="762" yOffset="958"/>
    <component base="period" xScale="-0.48481" xyScale="-0.87462" yxScale="0.87462" yScale="-0.48481" xOffset="319" yOffset="1029"/>
    <component base="period" xScale="-0.48481" xyScale="-0.87462" yxScale="0.87462" yScale="-0.48481" xOffset="1091" yOffset="600"/>
    <component base="period" xOffset="406"/>
    <component base="period" xOffset="407" yOffset="883"/>
  </outline>
</glyph>
<glyph name="two-ethiopic" format="2">
  <advance width="1353"/>
  <unicode hex="136A"/>
  <outline>
    <contour>
      <point x="780" y="-58" type="curve" smooth="yes"/>
      <point x="1053" y="-58"/>
      <point x="1241" y="107"/>
      <point x="1241" y="368" type="curve" smooth="yes"/>
      <point x="1241" y="537"/>
      <point x="1150" y="658"/>
      <point x="990" y="709" type="curve"/>
      <point x="1131" y="768"/>
      <point x="1219" y="899"/>
      <point x="1219" y="1026" type="curve" smooth="yes"/>
      <point x="1219" y="1285"/>
      <point x="1054" y="1438"/>
      <point x="779" y="1438" type="curve" smooth="yes"/>
      <point x="519" y="1438"/>
      <point x="331" y="1267"/>
      <point x="331" y="1036" type="curve"/>
      <point x="318" y="346" type="line" smooth="yes"/>
      <point x="313" y="103"/>
      <point x="507" y="-58"/>
    </contour>
    <contour>
      <point x="780" y="93" type="curve" smooth="yes"/>
      <point x="612" y="93"/>
      <point x="504" y="193"/>
      <point x="504" y="346" type="curve" smooth="yes"/>
      <point x="515" y="1036" type="line"/>
      <point x="516" y="1187"/>
      <point x="619" y="1286"/>
      <point x="779" y="1286" type="curve" smooth="yes"/>
      <point x="949" y="1286"/>
      <point x="1034" y="1201"/>
      <point x="1034" y="1030" type="curve" smooth="yes"/>
      <point x="1034" y="878"/>
      <point x="928" y="783"/>
      <point x="753" y="780" type="curve" smooth="yes"/>
      <point x="614" y="780" type="line"/>
      <point x="614" y="629" type="line"/>
      <point x="753" y="629" type="line" smooth="yes"/>
      <point x="949" y="626"/>
      <point x="1056" y="533"/>
      <point x="1056" y="364" type="curve" smooth="yes"/>
      <point x="1056" y="189"/>
      <point x="959" y="93"/>
    </contour>
    <component base="_num.bar" xOffset="112"/>
  </outline>
</glyph>
<glyph name="three-ethiopic" format="2">
  <advance width="1150"/>
  <unicode hex="136B"/>
  <outline>
    <contour>
      <point x="285" y="0" type="line"/>
      <point x="285" y="1304" type="line"/>
      <point x="1073" y="1304" type="line"/>
      <point x="1073" y="1456" type="line"/>
      <point x="89" y="1456" type="line"/>
      <point x="89" y="0" type="line"/>
    </contour>
    <component base="_num.bar"/>
  </outline>
</glyph>
<glyph name="four-ethiopic" format="2">
  <advance width="1357"/>
  <unicode hex="136C"/>
  <outline>
    <contour>
      <point x="641" y="-20" type="curve" smooth="yes"/>
      <point x="956" y="-20"/>
      <point x="1099" y="188"/>
      <point x="1099" y="621" type="curve" smooth="yes"/>
      <point x="1099" y="861" type="line" smooth="yes"/>
      <point x="1095" y="1280"/>
      <point x="952" y="1476"/>
      <point x="639" y="1476" type="curve" smooth="yes"/>
      <point x="323" y="1476"/>
      <point x="180" y="1271"/>
      <point x="180" y="843" type="curve" smooth="yes"/>
      <point x="180" y="596" type="line" smooth="yes"/>
      <point x="185" y="187"/>
      <point x="330" y="-20"/>
    </contour>
    <contour>
      <point x="641" y="131" type="curve" smooth="yes"/>
      <point x="456" y="131"/>
      <point x="365" y="277"/>
      <point x="365" y="592" type="curve" smooth="yes"/>
      <point x="365" y="888" type="line" smooth="yes"/>
      <point x="368" y="1184"/>
      <point x="450" y="1324"/>
      <point x="639" y="1324" type="curve" smooth="yes"/>
      <point x="830" y="1324"/>
      <point x="914" y="1187"/>
      <point x="914" y="874" type="curve" smooth="yes"/>
      <point x="914" y="571" type="line" smooth="yes"/>
      <point x="910" y="267"/>
      <point x="824" y="131"/>
    </contour>
    <component base="_num.bar" xOffset="115"/>
  </outline>
</glyph>
<glyph name="five-ethiopic" format="2">
  <advance width="1225"/>
  <unicode hex="136D"/>
  <outline>
    <contour>
      <point x="132" y="-30" type="line"/>
      <point x="1116" y="-30" type="line"/>
      <point x="1116" y="122" type="line"/>
      <point x="328" y="122" type="line"/>
      <point x="328" y="1426" type="line"/>
      <point x="132" y="1426" type="line"/>
    </contour>
    <component base="_num.bar" xOffset="53"/>
  </outline>
</glyph>
<glyph name="eight-ethiopic" format="2">
  <advance width="1292"/>
  <unicode hex="1370"/>
  <outline>
    <contour>
      <point x="718" y="-30" type="line"/>
      <point x="1133" y="-30" type="line"/>
      <point x="1133" y="122" type="line"/>
      <point x="718" y="122" type="line"/>
    </contour>
    <contour>
      <point x="533" y="-30" type="line"/>
      <point x="719" y="-30" type="line"/>
      <point x="719" y="1433" type="line"/>
      <point x="160" y="1433" type="line"/>
      <point x="160" y="1266" type="line"/>
      <point x="533" y="1266" type="line"/>
    </contour>
    <component base="_num.bar" xOffset="77"/>
  </outline>
</glyph>
<glyph name="thirty-ethiopic" format="2">
  <advance width="1150"/>
  <unicode hex="1374"/>
  <outline>
    <contour>
      <point x="55" y="-31" type="line"/>
      <point x="240" y="-31" type="line"/>
      <point x="240" y="838" type="line" smooth="yes"/>
      <point x="240" y="1134"/>
      <point x="175" y="1274"/>
      <point x="364" y="1274" type="curve" smooth="yes"/>
      <point x="472" y="1274"/>
      <point x="499" y="1137"/>
      <point x="499" y="824" type="curve" smooth="yes"/>
      <point x="499" y="584" type="line" smooth="yes"/>
      <point x="499" y="165"/>
      <point x="616" y="-31"/>
      <point x="929" y="-31" type="curve" smooth="yes"/>
      <point x="1135" y="-31"/>
      <point x="1128" y="174"/>
      <point x="1128" y="602" type="curve" smooth="yes"/>
      <point x="1128" y="1426" type="line"/>
      <point x="943" y="1426" type="line"/>
      <point x="943" y="557" type="line" smooth="yes"/>
      <point x="943" y="261"/>
      <point x="1008" y="121"/>
      <point x="819" y="121" type="curve" smooth="yes"/>
      <point x="711" y="121"/>
      <point x="684" y="258"/>
      <point x="684" y="571" type="curve" smooth="yes"/>
      <point x="684" y="811" type="line" smooth="yes"/>
      <point x="684" y="1230"/>
      <point x="567" y="1426"/>
      <point x="254" y="1426" type="curve" smooth="yes"/>
      <point x="48" y="1426"/>
      <point x="55" y="1221"/>
      <point x="55" y="793" type="curve" smooth="yes"/>
    </contour>
    <component base="_num.bar"/>
  </outline>
</glyph>
<glyph name="forty-ethiopic" format="2">
  <advance width="1150"/>
  <unicode hex="1375"/>
  <outline>
    <contour>
      <point x="475" y="510" type="line"/>
      <point x="624" y="510" type="line"/>
      <point x="624" y="1296" type="line"/>
      <point x="475" y="1296" type="line"/>
    </contour>
    <component base="fifty-ethiopic"/>
  </outline>
</glyph>
<glyph name="sixty-ethiopic" format="2">
  <advance width="1150"/>
  <unicode hex="1377"/>
  <outline>
    <contour>
      <point x="590" y="10" type="line"/>
      <point x="619" y="10" type="line"/>
      <point x="1149" y="209" type="line"/>
      <point x="1149" y="377" type="line"/>
      <point x="776" y="240" type="line"/>
      <point x="776" y="809" type="line"/>
      <point x="609" y="809" type="line"/>
      <point x="609" y="1463" type="line"/>
      <point x="580" y="1463" type="line"/>
      <point x="50" y="1264" type="line"/>
      <point x="50" y="1096" type="line"/>
      <point x="423" y="1233" type="line"/>
      <point x="425" y="639" type="line"/>
      <point x="590" y="639" type="line"/>
    </contour>
    <component base="_num.bar"/>
  </outline>
</glyph>
<glyph name="seventy-ethiopic" format="2">
  <advance width="1150"/>
  <unicode hex="1378"/>
  <outline>
    <contour>
      <point x="751" y="1258" type="curve"/>
      <point x="911" y="1337" type="line"/>
      <point x="836" y="1431"/>
      <point x="725" y="1476"/>
      <point x="574" y="1476" type="curve" smooth="yes"/>
      <point x="258" y="1476"/>
      <point x="115" y="1271"/>
      <point x="115" y="843" type="curve" smooth="yes"/>
      <point x="115" y="596" type="line" smooth="yes"/>
      <point x="115" y="187"/>
      <point x="265.333" y="-20"/>
      <point x="576" y="-20" type="curve" smooth="yes"/>
      <point x="732" y="-20"/>
      <point x="845" y="31"/>
      <point x="921" y="135" type="curve"/>
      <point x="748" y="196" type="line"/>
      <point x="705" y="152"/>
      <point x="648" y="131"/>
      <point x="576" y="131" type="curve" smooth="yes"/>
      <point x="390.667" y="131"/>
      <point x="300" y="277.333"/>
      <point x="300" y="592" type="curve" smooth="yes"/>
      <point x="300" y="888" type="line" smooth="yes"/>
      <point x="300" y="1184"/>
      <point x="384.667" y="1324"/>
      <point x="574" y="1324" type="curve" smooth="yes"/>
      <point x="649" y="1324"/>
      <point x="708" y="1303"/>
    </contour>
    <component base="ring" xOffset="499" yOffset="-154"/>
    <component base="_num.bar"/>
  </outline>
</glyph>
<glyph name="ninety-ethiopic" format="2">
  <advance width="1150"/>
  <unicode hex="137A"/>
  <outline>
    <contour>
      <point x="821" y="-4" type="line"/>
      <point x="985" y="-4" type="line"/>
      <point x="750" y="635" type="line"/>
      <point x="1061" y="1331" type="line"/>
      <point x="1061" y="1435" type="line"/>
      <point x="77" y="1435" type="line"/>
      <point x="77" y="1283" type="line"/>
      <point x="865" y="1283" type="line"/>
      <point x="567" y="637" type="line"/>
    </contour>
    <component base="_num.bar"/>
  </outline>
</glyph>
<glyph name="hundred-ethiopic" format="2">
  <advance width="1391"/>
  <unicode hex="137B"/>
  <outline>
    <contour>
      <point x="264" y="0" type="line"/>
      <point x="453" y="0" type="line"/>
      <point x="453" y="561" type="line"/>
      <point x="530" y="473"/>
      <point x="634" y="429"/>
      <point x="767" y="429" type="curve" smooth="yes"/>
      <point x="1020" y="429"/>
      <point x="1184" y="626"/>
      <point x="1184" y="909" type="curve" smooth="yes"/>
      <point x="1184" y="1209"/>
      <point x="1008" y="1404"/>
      <point x="733" y="1404" type="curve" smooth="yes"/>
      <point x="454" y="1404"/>
      <point x="264" y="1167"/>
      <point x="264" y="830" type="curve" smooth="yes"/>
      <point x="264" y="759" type="line"/>
    </contour>
    <contour>
      <point x="736" y="583" type="curve" smooth="yes"/>
      <point x="609" y="583"/>
      <point x="491" y="668"/>
      <point x="450" y="783" type="curve"/>
      <point x="450" y="851" type="line" smooth="yes"/>
      <point x="450" y="1091"/>
      <point x="572" y="1251"/>
      <point x="733" y="1251" type="curve" smooth="yes"/>
      <point x="900" y="1251"/>
      <point x="1001" y="1117"/>
      <point x="1001" y="918" type="curve" smooth="yes"/>
      <point x="1001" y="718"/>
      <point x="896" y="583"/>
    </contour>
    <component base="_num.bar" yScale="-1" xOffset="132" yOffset="1384"/>
  </outline>
</glyph>
<glyph name="quoteright" format="2">
  <advance width="409"/>
  <unicode hex="2019"/>
  <note>
uni2019
</note>
  <outline>
    <contour>
      <point x="153" y="1046" type="line"/>
      <point x="254.333" y="1127.333"/>
      <point x="325.667" y="1272.667"/>
      <point x="327" y="1406" type="curve" smooth="yes"/>
      <point x="327" y="1536" type="line"/>
      <point x="144" y="1536" type="line"/>
      <point x="144" y="1392" type="line" smooth="yes"/>
      <point x="142" y="1296"/>
      <point x="110" y="1204.667"/>
      <point x="48" y="1118" type="curve"/>
    </contour>
  </outline>
</glyph>
<glyph name="quotesinglbase" format="2">
  <advance width="407"/>
  <unicode hex="201A"/>
  <note>
uni201A
</note>
  <outline>
    <contour>
      <point x="141" y="-283" type="line"/>
      <point x="241" y="-201.667"/>
      <point x="315" y="-53.667"/>
      <point x="315" y="81" type="curve" smooth="yes"/>
      <point x="315" y="181" type="line"/>
      <point x="130" y="181" type="line"/>
      <point x="130" y="63" type="line" smooth="yes"/>
      <point x="128" y="-34.333"/>
      <point x="96.667" y="-125.333"/>
      <point x="36" y="-210" type="curve"/>
    </contour>
  </outline>
</glyph>
<glyph name="dagger" format="2">
  <advance width="1129"/>
  <unicode hex="2020"/>
  <note>
uni2020
</note>
  <outline>
    <contour>
      <point x="470" y="0" type="line"/>
      <point x="656" y="0" type="line"/>
      <point x="656" y="929" type="line"/>
      <point x="1060" y="929" type="line"/>
      <point x="1060" y="1082" type="line"/>
      <point x="656" y="1082" type="line"/>
      <point x="656" y="1456" type="line"/>
      <point x="470" y="1456" type="line"/>
      <point x="470" y="1082" type="line"/>
      <point x="70" y="1082" type="line"/>
      <point x="70" y="929" type="line"/>
      <point x="470" y="929" type="line"/>
    </contour>
  </outline>
</glyph>
<glyph name="bullet" format="2">
  <advance width="690"/>
  <unicode hex="2022"/>
  <note>
uni2022
</note>
  <outline>
    <contour>
      <point x="342" y="535" type="curve" smooth="yes"/>
      <point x="467.333" y="535"/>
      <point x="546" y="616"/>
      <point x="546" y="732" type="curve" smooth="yes"/>
      <point x="546" y="769" type="line" smooth="yes"/>
      <point x="546" y="893"/>
      <point x="462.333" y="971"/>
      <point x="341" y="971" type="curve" smooth="yes"/>
      <point x="218.333" y="971"/>
      <point x="138" y="888"/>
      <point x="138" y="772" type="curve" smooth="yes"/>
      <point x="138" y="734" type="line" smooth="yes"/>
      <point x="138" y="616.667"/>
      <point x="218" y="535"/>
    </contour>
  </outline>
</glyph>
<glyph name="guilsinglright" format="2">
  <advance width="614"/>
  <unicode hex="203A"/>
  <note>
uni203A
</note>
  <outline>
    <contour>
      <point x="89" y="152" type="line"/>
      <point x="231" y="152" type="line"/>
      <point x="526" y="541" type="line"/>
      <point x="526" y="560" type="line"/>
      <point x="231" y="949" type="line"/>
      <point x="89" y="949" type="line"/>
      <point x="347" y="550" type="line"/>
    </contour>
  </outline>
</glyph>
<glyph name="Ohm" format="2">
  <advance width="1266"/>
  <unicode hex="2126"/>
  <outline>
    <contour>
      <point x="118" y="0" type="line"/>
      <point x="610" y="0" type="line"/>
      <point x="610" y="162" type="line"/>
      <point x="417" y="199"/>
      <point x="308" y="406"/>
      <point x="308" y="726" type="curve" smooth="yes"/>
      <point x="308" y="839" type="line" smooth="yes"/>
      <point x="308" y="1144"/>
      <point x="444" y="1318"/>
      <point x="669" y="1318" type="curve" smooth="yes"/>
      <point x="894" y="1318"/>
      <point x="1032" y="1149"/>
      <point x="1032" y="841" type="curve" smooth="yes"/>
      <point x="1032" y="707" type="line" smooth="yes"/>
      <point x="1028" y="395"/>
      <point x="921" y="198"/>
      <point x="737" y="162" type="curve"/>
      <point x="737" y="0" type="line"/>
      <point x="1221" y="0" type="line"/>
      <point x="1221" y="157" type="line"/>
      <point x="1001" y="157" type="line"/>
      <point x="1142" y="293"/>
      <point x="1227" y="513"/>
      <point x="1227" y="726" type="curve" smooth="yes"/>
      <point x="1227" y="856" type="line" smooth="yes"/>
      <point x="1223" y="1096"/>
      <point x="1124" y="1294"/>
      <point x="956" y="1398" type="curve" smooth="yes"/>
      <point x="871" y="1450"/>
      <point x="776" y="1476"/>
      <point x="669" y="1476" type="curve" smooth="yes"/>
      <point x="454" y="1476"/>
      <point x="278" y="1366"/>
      <point x="184" y="1171" type="curve" smooth="yes"/>
      <point x="137" y="1074"/>
      <point x="113" y="963"/>
      <point x="113" y="839" type="curve" smooth="yes"/>
      <point x="113" y="728" type="line" smooth="yes"/>
      <point x="113" y="512"/>
      <point x="198" y="293"/>
      <point x="339" y="157" type="curve"/>
      <point x="118" y="157" type="line"/>
    </contour>
  </outline>
</glyph>
<glyph name="integral" format="2">
  <advance width="524"/>
  <unicode hex="222B"/>
  <note>
uni222B
</note>
  <outline>
    <contour>
      <point x="35" y="-437" type="curve" smooth="yes"/>
      <point x="245.667" y="-437"/>
      <point x="357" y="-323"/>
      <point x="357" y="-107" type="curve" smooth="yes"/>
      <point x="357" y="1186" type="line" smooth="yes"/>
      <point x="357" y="1332"/>
      <point x="417.667" y="1405"/>
      <point x="539" y="1405" type="curve" smooth="yes"/>
      <point x="575" y="1405"/>
      <point x="605.333" y="1401.333"/>
      <point x="630" y="1394" type="curve"/>
      <point x="654" y="1536" type="line"/>
      <point x="598" y="1550"/>
      <point x="550" y="1557"/>
      <point x="510" y="1557" type="curve" smooth="yes"/>
      <point x="295.333" y="1557"/>
      <point x="172" y="1423.667"/>
      <point x="172" y="1197" type="curve" smooth="yes"/>
      <point x="172" y="-108" type="line" smooth="yes"/>
      <point x="172" y="-226"/>
      <point x="120.333" y="-285"/>
      <point x="17" y="-285" type="curve" smooth="yes"/>
      <point x="-5" y="-285"/>
      <point x="-31.333" y="-280.667"/>
      <point x="-62" y="-272" type="curve"/>
      <point x="-80" y="-417" type="line"/>
      <point x="-41.333" y="-430.333"/>
      <point x="-3" y="-437"/>
    </contour>
  </outline>
</glyph>
<glyph name="_aa.neck" format="2">
  <outline>
    <contour>
      <point x="-983" y="1556" type="line"/>
      <point x="-983" y="1275" type="line"/>
      <point x="-667" y="1275" type="line"/>
      <point x="-974" y="1160" type="line"/>
      <point x="-987" y="751" type="line"/>
      <point x="-805" y="751" type="line"/>
      <point x="-805" y="1082" type="line"/>
      <point x="-561" y="1203" type="line"/>
      <point x="-561" y="1357" type="line"/>
      <point x="-821" y="1357" type="line"/>
      <point x="-821" y="1556" type="line"/>
    </contour>
  </outline>
</glyph>
<glyph name="_bar.part" format="2">
  <advance width="1094"/>
  <outline>
    <contour>
      <point x="355" y="110" type="line"/>
      <point x="770" y="110" type="line"/>
      <point x="770" y="262" type="line"/>
      <point x="355" y="262" type="line"/>
    </contour>
  </outline>
</glyph>
<glyph name="_da.arms.caps" format="2">
  <advance width="1292"/>
  <outline>
    <contour>
      <point x="1072" y="-2" type="line"/>
      <point x="1068" y="112"/>
      <point x="979" y="342"/>
      <point x="850" y="342" type="curve" smooth="yes"/>
      <point x="210" y="342" type="line"/>
      <point x="210" y="247" type="line"/>
      <point x="728" y="247" type="line" smooth="yes"/>
      <point x="857" y="247"/>
      <point x="893" y="121.333"/>
      <point x="893" y="0" type="curve" smooth="yes"/>
      <point x="893" y="-1" type="line"/>
    </contour>
  </outline>
</glyph>
<glyph name="_da.flat" format="2">
  <outline>
    <contour>
      <point x="-833" y="-3" type="line"/>
      <point x="-165" y="-3" type="line"/>
      <point x="-165" y="148" type="line"/>
      <point x="-833" y="148" type="line"/>
    </contour>
  </outline>
</glyph>
<glyph name="_hha.neck.cap" format="2">
  <advance width="1788"/>
  <outline>
    <contour>
      <point x="806" y="678" type="line"/>
      <point x="975" y="678" type="line"/>
      <point x="973" y="1572" type="line"/>
      <point x="809" y="1572" type="line"/>
    </contour>
  </outline>
</glyph>
<glyph name="_ka.hat.part" format="2">
  <outline>
    <contour>
      <point x="-1184" y="1402" type="line"/>
      <point x="-755" y="1412" type="line"/>
      <point x="-755" y="1474" type="line"/>
      <point x="-1032" y="1474" type="line"/>
      <point x="-989" y="1732" type="line"/>
      <point x="-1185" y="1732" type="line"/>
      <point x="-1185" y="1443" type="line"/>
    </contour>
    <component base="_smart.hu"/>
  </outline>
</glyph>
<glyph name="_ka.part" format="2">
  <outline>
    <contour>
      <point x="-1043" y="1027" type="line"/>
      <point x="-614" y="1037" type="line"/>
      <point x="-614" y="1099" type="line"/>
      <point x="-891" y="1099" type="line"/>
      <point x="-848" y="1357" type="line"/>
      <point x="-1044" y="1357" type="line"/>
    </contour>
  </outline>
</glyph>
<glyph name="_kxa.hat.cap" format="2">
  <anchor x="641" y="1703" name="_hat.cap"/>
  <outline>
    <contour>
      <point x="-24" y="1785" type="line"/>
      <point x="-24" y="1642" type="line"/>
      <point x="650" y="1642" type="line"/>
      <point x="650" y="1785" type="line"/>
    </contour>
  </outline>
</glyph>
<glyph name="_leg.part" format="2">
  <outline>
    <contour>
      <point x="-80" y="-408" type="line"/>
      <point x="39" y="-408" type="line"/>
      <point x="57" y="-54" type="line"/>
      <point x="-97" y="-54" type="line"/>
    </contour>
  </outline>
</glyph>
<glyph name="_num.bar" format="2">
  <advance width="1126"/>
  <outline>
    <contour>
      <point x="1126" y="1458" type="line"/>
      <point x="1126" y="1607" type="line"/>
      <point x="0" y="1607" type="line"/>
      <point x="0" y="1458" type="line"/>
    </contour>
    <contour>
      <point x="1126" y="-222" type="line"/>
      <point x="1126" y="-73" type="line"/>
      <point x="0" y="-73" type="line"/>
      <point x="0" y="-222" type="line"/>
    </contour>
  </outline>
</glyph>
<glyph name="_nya.hat" format="2">
  <anchor x="845" y="1085" name="_hu"/>
  <outline>
    <contour>
      <point x="-33" y="1628" type="line"/>
      <point x="-33" y="1492" type="line"/>
      <point x="442" y="1492" type="line"/>
      <point x="442" y="1628" type="line"/>
    </contour>
  </outline>
</glyph>
<glyph name="_smart.aGl" format="2">
  <anchor x="-877" y="753" name="_aGl"/>
  <outline>
    <contour>
      <point x="-987" y="751" type="line"/>
      <point x="-805" y="751" type="line"/>
      <point x="-805" y="1112" type="line"/>
      <point x="-561" y="1213" type="line"/>
      <point x="-561" y="1357" type="line"/>
      <point x="-881" y="1357" type="line"/>
      <point x="-881" y="1556" type="line"/>
      <point x="-1053" y="1556" type="line"/>
      <point x="-1053" y="1275" type="line"/>
      <point x="-667" y="1275" type="line"/>
      <point x="-987" y="1160" type="line"/>
    </contour>
  </outline>
</glyph>
<glyph name="_smart.cha" format="2">
  <anchor x="-5" y="34" name="_cha"/>
  <outline>
    <contour>
      <point x="-436" y="19" type="curve" smooth="yes"/>
      <point x="-364" y="19"/>
      <point x="-326" y="64"/>
      <point x="-326" y="124" type="curve" smooth="yes"/>
      <point x="-326" y="184"/>
      <point x="-364" y="231"/>
      <point x="-436" y="231" type="curve" smooth="yes"/>
      <point x="-508" y="231"/>
      <point x="-545" y="184"/>
      <point x="-545" y="124" type="curve" smooth="yes"/>
      <point x="-545" y="64"/>
      <point x="-508" y="19"/>
    </contour>
    <contour>
      <point x="461" y="12" type="curve" smooth="yes"/>
      <point x="533" y="12"/>
      <point x="571" y="57"/>
      <point x="571" y="117" type="curve" smooth="yes"/>
      <point x="571" y="177"/>
      <point x="533" y="224"/>
      <point x="461" y="224" type="curve" smooth="yes"/>
      <point x="389" y="224"/>
      <point x="352" y="177"/>
      <point x="352" y="117" type="curve" smooth="yes"/>
      <point x="352" y="57"/>
      <point x="389" y="12"/>
    </contour>
  </outline>
</glyph>
<glyph name="_smart.da" format="2">
  <anchor x="4" y="156" name="_da"/>
  <outline>
    <contour>
      <point x="-93" y="-3" type="line" name="❌"/>
      <point x="575" y="-3" type="line" name="❌"/>
      <point x="575" y="148" type="line"/>
      <point x="-93" y="148" type="line"/>
    </contour>
  </outline>
</glyph>
<glyph name="_smart.di" format="2">
  <anchor x="-173" y="224" name="_di"/>
  <outline>
    <contour>
      <point x="-139" y="58" type="line"/>
      <point x="213" y="54" type="line"/>
      <point x="338" y="240" type="line"/>
      <point x="-55" y="182" type="line"/>
    </contour>
    <contour>
      <point x="-58" y="434" type="line"/>
      <point x="-58" y="156" type="line"/>
      <point x="73" y="156" type="line"/>
      <point x="73" y="434" type="line"/>
    </contour>
  </outline>
</glyph>
<glyph name="_smart.eGl" format="2">
  <anchor x="231" y="1360" name="_eGl"/>
  <anchor x="769.667" y="73.333" name="_hee"/>
  <anchor x="1055" y="673" name="_hu"/>
  <outline>
    <contour>
      <point x="27" y="1342" type="line"/>
      <point x="141" y="1438" type="line"/>
      <point x="157" y="1836" type="line"/>
      <point x="-14" y="1692" type="line"/>
    </contour>
  </outline>
</glyph>
<glyph name="_smart.fa" format="2">
  <anchor x="433" y="54" name="_fa"/>
  <outline>
    <contour>
      <point x="294" y="551" type="line"/>
      <point x="136" y="549" type="line"/>
      <point x="325" y="55" type="line"/>
      <point x="484" y="55" type="line"/>
    </contour>
  </outline>
</glyph>
<glyph name="_smart.haa.caps" format="2">
  <anchor x="0" y="354" name="_haa.caps"/>
  <outline>
    <contour>
      <point x="-130" y="-1" type="line" name="❌"/>
      <point x="62" y="-1" type="line" name="❌"/>
      <point x="62" y="354" type="line"/>
      <point x="-130" y="354" type="line"/>
    </contour>
  </outline>
</glyph>
<glyph name="_smart.haa" format="2">
  <anchor x="0" y="344" name="_haa"/>
  <outline>
    <contour>
      <point x="-123" y="-11" type="line" name="❌"/>
      <point x="62" y="-11" type="line" name="❌"/>
      <point x="62" y="344" type="line"/>
      <point x="-123" y="344" type="line"/>
    </contour>
  </outline>
</glyph>
<glyph name="_smart.hat.001" format="2">
  <anchor x="551" y="152" name="_hat.001"/>
  <outline>
    <contour>
      <point x="235" y="52" type="line"/>
      <point x="860" y="52" type="line"/>
      <point x="860" y="134" type="line"/>
      <point x="235" y="134" type="line"/>
    </contour>
  </outline>
</glyph>
<glyph name="_smart.hat.002" format="2">
  <anchor x="541" y="8" name="_hat.002"/>
  <outline>
    <contour>
      <point x="235" y="52" type="line"/>
      <point x="860" y="52" type="line"/>
      <point x="860" y="134" type="line"/>
      <point x="235" y="134" type="line"/>
    </contour>
  </outline>
</glyph>
<glyph name="_smart.hat.cap" format="2">
  <advance width="1328"/>
  <anchor x="640" y="1692" name="_hat.cap"/>
  <outline>
    <contour>
      <point x="334" y="1689" type="line"/>
      <point x="939" y="1689" type="line"/>
      <point x="939" y="1783" type="line"/>
      <point x="334" y="1783" type="line"/>
    </contour>
  </outline>
</glyph>
<glyph name="_smart.hat.caps" format="2">
  <anchor x="303" y="1638" name="_hat.cap"/>
  <anchor x="294" y="1637" name="_hat.caps"/>
  <outline>
    <contour>
      <point x="-334" y="1642" type="line"/>
      <point x="340" y="1642" type="line"/>
      <point x="340" y="1785" type="line"/>
      <point x="-334" y="1785" type="line"/>
    </contour>
  </outline>
</glyph>
<glyph name="_smart.he.acute.top" format="2">
  <anchor x="0" y="1086" name="_he.acute.top"/>
  <outline>
    <contour>
      <point x="100" y="1082" type="line"/>
      <point x="-93" y="1376" type="line"/>
      <point x="-317" y="1376" type="line"/>
      <point x="-49" y="1082" type="line"/>
    </contour>
  </outline>
</glyph>
<glyph name="_smart.he.left.inner" format="2">
  <anchor x="0" y="-41" name="_he.left.inner"/>
  <outline>
    <contour>
      <point x="110" y="-146" type="curve" smooth="yes"/>
      <point x="182" y="-146"/>
      <point x="220" y="-101"/>
      <point x="220" y="-41" type="curve" smooth="yes"/>
      <point x="220" y="19"/>
      <point x="182" y="66"/>
      <point x="110" y="66" type="curve" smooth="yes"/>
      <point x="38" y="66"/>
      <point x="1" y="19"/>
      <point x="1" y="-41" type="curve" smooth="yes"/>
      <point x="1" y="-101"/>
      <point x="38" y="-146"/>
    </contour>
  </outline>
</glyph>
<glyph name="_smart.hee" format="2">
  <anchor x="1" y="320" name="_hee"/>
  <outline>
    <contour>
      <point x="0" y="-33" type="curve" smooth="yes"/>
      <point x="110" y="-33"/>
      <point x="191" y="46"/>
      <point x="191" y="151" type="curve" smooth="yes"/>
      <point x="191" y="258"/>
      <point x="108" y="339"/>
      <point x="0" y="339" type="curve" smooth="yes"/>
      <point x="-112" y="339"/>
      <point x="-196" y="256"/>
      <point x="-196" y="151" type="curve" smooth="yes"/>
      <point x="-196" y="47"/>
      <point x="-114" y="-33"/>
    </contour>
    <contour>
      <point x="-75" y="150" type="curve" smooth="yes"/>
      <point x="-75" y="215"/>
      <point x="-20" y="274"/>
      <point x="51" y="274" type="curve" smooth="yes"/>
      <point x="119" y="274"/>
      <point x="171" y="219"/>
      <point x="171" y="150" type="curve" smooth="yes"/>
      <point x="171" y="72"/>
      <point x="110" y="33"/>
      <point x="48" y="32" type="curve" smooth="yes"/>
      <point x="-13" y="32"/>
      <point x="-75" y="71"/>
    </contour>
  </outline>
</glyph>
<glyph name="_smart.hi" format="2">
  <anchor x="-16" y="115" name="_hi"/>
  <outline>
    <contour>
      <point x="107" y="-8" type="curve" smooth="yes"/>
      <point x="174" y="-8"/>
      <point x="231" y="47"/>
      <point x="231" y="115" type="curve" smooth="yes"/>
      <point x="231" y="182"/>
      <point x="174" y="239"/>
      <point x="107" y="239" type="curve" smooth="yes"/>
      <point x="39" y="239"/>
      <point x="-16" y="182"/>
      <point x="-16" y="115" type="curve" smooth="yes"/>
      <point x="-16" y="47"/>
      <point x="39" y="-8"/>
    </contour>
  </outline>
</glyph>
<glyph name="_smart.ho.caps" format="2">
  <anchor x="4" y="350" name="_ho.caps"/>
  <outline>
    <contour>
      <point x="-80" y="-5" type="line"/>
      <point x="112" y="-5" type="line"/>
      <point x="112" y="349" type="line"/>
      <point x="-80" y="349" type="line"/>
    </contour>
  </outline>
</glyph>
<glyph name="_smart.ho" format="2">
  <anchor x="4" y="350" name="_ho"/>
  <outline>
    <contour>
      <point x="-58" y="-5" type="line"/>
      <point x="61" y="-5" type="line"/>
      <point x="79" y="349" type="line"/>
      <point x="-75" y="349" type="line"/>
    </contour>
  </outline>
</glyph>
<glyph name="_smart.ho.ring" format="2">
  <anchor x="91" y="1111" name="_ho.ring"/>
  <outline>
    <contour>
      <point x="-154" y="1462" type="curve"/>
      <point x="-319" y="1462"/>
      <point x="-540" y="1360"/>
      <point x="-540" y="1203" type="curve" smooth="yes"/>
      <point x="-540" y="1043"/>
      <point x="-416" y="921"/>
      <point x="-254" y="921" type="curve" smooth="yes"/>
      <point x="-87" y="921"/>
      <point x="39" y="1046"/>
      <point x="39" y="1203" type="curve" smooth="yes"/>
      <point x="39" y="1358"/>
      <point x="17" y="1462"/>
    </contour>
    <contour>
      <point x="-313" y="1404" type="curve" smooth="yes"/>
      <point x="-215" y="1404"/>
      <point x="-114" y="1340"/>
      <point x="-114" y="1213" type="curve" smooth="yes"/>
      <point x="-114" y="1107"/>
      <point x="-202" y="1012"/>
      <point x="-318" y="1012" type="curve" smooth="yes"/>
      <point x="-428" y="1012"/>
      <point x="-512" y="1101"/>
      <point x="-512" y="1213" type="curve" smooth="yes"/>
      <point x="-512" y="1339"/>
      <point x="-414" y="1403"/>
    </contour>
  </outline>
</glyph>
<glyph name="_smart.ho.ring.uniq" format="2">
  <anchor x="-876" y="151" name="_ho.ring.uniq"/>
  <outline>
    <contour>
      <point x="-743" y="-711" type="curve" smooth="yes"/>
      <point x="-581" y="-682"/>
      <point x="-482" y="-544"/>
      <point x="-510" y="-389" type="curve" smooth="yes"/>
      <point x="-537" y="-232"/>
      <point x="-681" y="-133"/>
      <point x="-840" y="-161" type="curve" smooth="yes"/>
      <point x="-1005" y="-190"/>
      <point x="-1107" y="-335"/>
      <point x="-1080" y="-490" type="curve" smooth="yes"/>
      <point x="-1053" y="-643"/>
      <point x="-912" y="-741"/>
    </contour>
    <contour>
      <point x="-685" y="-642" type="curve" smooth="yes"/>
      <point x="-765" y="-664"/>
      <point x="-862" y="-633"/>
      <point x="-891" y="-529" type="curve" smooth="yes"/>
      <point x="-914" y="-442"/>
      <point x="-863" y="-344"/>
      <point x="-767" y="-318" type="curve" smooth="yes"/>
      <point x="-677" y="-295"/>
      <point x="-589" y="-350"/>
      <point x="-563" y="-441" type="curve" smooth="yes"/>
      <point x="-535" y="-545"/>
      <point x="-602" y="-618"/>
    </contour>
  </outline>
</glyph>
<glyph name="_smart.hu" format="2">
  <anchor x="-4" y="1206" name="_hu"/>
  <outline>
    <contour>
      <point x="119" y="843" type="curve" smooth="yes"/>
      <point x="186" y="843"/>
      <point x="243" y="898"/>
      <point x="243" y="966" type="curve" smooth="yes"/>
      <point x="243" y="1033"/>
      <point x="186" y="1090"/>
      <point x="119" y="1090" type="curve" smooth="yes"/>
      <point x="51" y="1090"/>
      <point x="-4" y="1033"/>
      <point x="-4" y="966" type="curve" smooth="yes"/>
      <point x="-4" y="898"/>
      <point x="51" y="843"/>
    </contour>
  </outline>
</glyph>
<glyph name="_smart.hwa" format="2">
  <anchor x="0" y="368" name="_hwa"/>
  <outline>
    <contour>
      <point x="-231" y="-40" type="line"/>
      <point x="119" y="-40" type="line"/>
      <point x="119" y="-157" type="line"/>
      <point x="249" y="-157" type="line"/>
      <point x="249" y="91" type="line"/>
      <point x="90" y="91" type="line"/>
      <point x="90" y="384" type="line"/>
      <point x="-95" y="384" type="line"/>
      <point x="-95" y="91" type="line"/>
      <point x="-231" y="91" type="line"/>
    </contour>
  </outline>
</glyph>
<glyph name="_smart.ka.caps" format="2">
  <anchor x="-1031" y="1459" name="_ka.caps"/>
  <outline>
    <contour>
      <point x="-1254" y="1387" type="line"/>
      <point x="-824" y="1397" type="line"/>
      <point x="-824" y="1459" type="line" name="❌"/>
      <point x="-1021" y="1459" type="line" name="❌"/>
      <point x="-1021" y="1717" type="line"/>
      <point x="-1254" y="1717" type="line"/>
    </contour>
  </outline>
</glyph>
<glyph name="_smart.ka" format="2">
  <anchor x="-620" y="1035" name="_ka"/>
  <outline>
    <contour>
      <point x="-1044" y="1027" type="line"/>
      <point x="-614" y="1027" type="line"/>
      <point x="-614" y="1099" type="line"/>
      <point x="-891" y="1099" type="line"/>
      <point x="-891" y="1357" type="line"/>
      <point x="-1044" y="1357" type="line"/>
    </contour>
  </outline>
</glyph>
<glyph name="_smart.leg" format="2">
  <anchor x="2" y="287" name="_leg"/>
  <outline>
    <contour>
      <point x="-81" y="-24" type="line"/>
      <point x="88" y="-24" type="line"/>
      <point x="86" y="340" type="line"/>
      <point x="-78" y="340" type="line"/>
    </contour>
  </outline>
</glyph>
<glyph name="_smart.neck.cap" format="2">
  <advance width="1328"/>
  <anchor x="627" y="1462" name="_neck.cap"/>
  <outline>
    <contour>
      <point x="561" y="1713" type="line"/>
      <point x="561" y="1456" type="line"/>
      <point x="708" y="1456" type="line"/>
      <point x="708" y="1713" type="line"/>
    </contour>
  </outline>
</glyph>
<glyph name="_smart.neck.hha.caps" format="2">
  <anchor x="-869" y="680" name="_smart..neck.hha.caps"/>
  <anchor x="-909" y="680.5" name="_smart.neck.hha.caps"/>
  <outline>
    <contour>
      <point x="-1015" y="678" type="line"/>
      <point x="-846" y="678" type="line"/>
      <point x="-846" y="1572" type="line"/>
      <point x="-1015" y="1572" type="line"/>
    </contour>
  </outline>
</glyph>
<glyph name="_smart.nose" format="2">
  <anchor x="253" y="101" name="_nose"/>
  <outline>
    <contour>
      <point x="187" y="-148" type="curve" smooth="yes"/>
      <point x="254" y="-148"/>
      <point x="311" y="-93"/>
      <point x="311" y="-25" type="curve" smooth="yes"/>
      <point x="311" y="42"/>
      <point x="254" y="99"/>
      <point x="187" y="99" type="curve" smooth="yes"/>
      <point x="119" y="99"/>
      <point x="64" y="42"/>
      <point x="64" y="-25" type="curve" smooth="yes"/>
      <point x="64" y="-93"/>
      <point x="119" y="-148"/>
    </contour>
  </outline>
</glyph>
<glyph name="_smart.raa" format="2">
  <anchor x="-527" y="220" name="_raa"/>
  <outline>
    <contour>
      <point x="-527" y="242" type="line"/>
      <point x="-378" y="242" type="line"/>
      <point x="-110" y="536" type="line"/>
      <point x="-334" y="536" type="line"/>
    </contour>
  </outline>
</glyph>
<glyph name="_smart.ri" format="2">
  <anchor x="-101" y="260" name="_ri"/>
  <outline>
    <contour>
      <point x="-90" y="332" type="line"/>
      <point x="-283" y="626" type="line"/>
      <point x="-507" y="626" type="line"/>
      <point x="-239" y="332" type="line"/>
    </contour>
  </outline>
</glyph>
<glyph name="_smart.shoulder" format="2">
  <anchor x="72" y="-73" name="_shoulder"/>
  <outline>
    <contour>
      <point x="-38" y="-82" type="line"/>
      <point x="112" y="-45" type="line"/>
      <point x="140" y="249" type="line"/>
      <point x="-54" y="249" type="line"/>
    </contour>
  </outline>
</glyph>
<glyph name="_smart.tsa.belt.caps" format="2">
  <anchor x="17" y="755" name="_tsa.belt.caps"/>
  <outline>
    <contour>
      <point x="-312" y="681" type="line"/>
      <point x="443" y="681" type="line"/>
      <point x="443" y="832" type="line"/>
      <point x="-312" y="832" type="line"/>
    </contour>
  </outline>
</glyph>
<glyph name="_smart.tsa.belt" format="2">
  <anchor x="-7" y="602" name="_tsa.belt"/>
  <outline>
    <contour>
      <point x="-275" y="500" type="line"/>
      <point x="300" y="500" type="line"/>
      <point x="300" y="652" type="line"/>
      <point x="-275" y="652" type="line"/>
    </contour>
  </outline>
</glyph>
<glyph name="_smart.ye" format="2">
  <advance width="927"/>
  <anchor x="340" y="44" name="_ye"/>
  <outline>
    <contour>
      <point x="43" y="-209" type="curve"/>
      <point x="167" y="-209" type="line"/>
      <point x="167" y="-144"/>
      <point x="211" y="-97"/>
      <point x="266" y="-97" type="curve" smooth="yes"/>
      <point x="393" y="-97"/>
      <point x="488" y="-203"/>
      <point x="635" y="-192" type="curve" smooth="yes"/>
      <point x="768" y="-182"/>
      <point x="870" y="56"/>
      <point x="870" y="200" type="curve"/>
      <point x="746" y="222" type="line"/>
      <point x="726" y="162"/>
      <point x="693" y="-41"/>
      <point x="626" y="-51" type="curve" smooth="yes"/>
      <point x="516" y="-67"/>
      <point x="377" y="45"/>
      <point x="257" y="45" type="curve" smooth="yes"/>
      <point x="133" y="45"/>
      <point x="43" y="-59"/>
    </contour>
  </outline>
</glyph>
<glyph name="_smart.zha.caps" format="2">
  <anchor x="-7" y="956" name="_zha.caps"/>
  <outline>
    <contour>
      <point x="-1010" y="759" type="curve" smooth="yes"/>
      <point x="-938" y="759"/>
      <point x="-900" y="804"/>
      <point x="-900" y="864" type="curve" smooth="yes"/>
      <point x="-900" y="924"/>
      <point x="-938" y="971"/>
      <point x="-1010" y="971" type="curve" smooth="yes"/>
      <point x="-1082" y="971"/>
      <point x="-1119" y="924"/>
      <point x="-1119" y="864" type="curve" smooth="yes"/>
      <point x="-1119" y="804"/>
      <point x="-1082" y="759"/>
    </contour>
    <contour>
      <point x="290" y="752" type="curve" smooth="yes"/>
      <point x="362" y="752"/>
      <point x="400" y="797"/>
      <point x="400" y="857" type="curve" smooth="yes"/>
      <point x="400" y="917"/>
      <point x="362" y="964"/>
      <point x="290" y="964" type="curve" smooth="yes"/>
      <point x="218" y="964"/>
      <point x="181" y="917"/>
      <point x="181" y="857" type="curve" smooth="yes"/>
      <point x="181" y="797"/>
      <point x="218" y="752"/>
    </contour>
  </outline>
</glyph>
<glyph name="_tsa.belt" format="2">
  <outline>
    <contour>
      <point x="-1005" y="500" type="line"/>
      <point x="-190" y="500" type="line"/>
      <point x="-190" y="652" type="line"/>
      <point x="-1005" y="652" type="line"/>
    </contour>
  </outline>
</glyph>
<glyph name="_va.hat" format="2">
  <outline>
    <contour>
      <point x="-898" y="1160" type="line"/>
      <point x="-183" y="1160" type="line"/>
      <point x="-183" y="1312" type="line"/>
      <point x="-898" y="1312" type="line"/>
    </contour>
  </outline>
</glyph>
<glyph name="aGl.base.cap" format="2">
  <advance width="1304"/>
  <outline>
    <contour>
      <point x="31" y="0" type="line"/>
      <point x="241" y="0" type="line"/>
      <point x="657" y="1041" type="line"/>
      <point x="1071" y="0" type="line"/>
      <point x="1280" y="0" type="line"/>
      <point x="741.832" y="1294" type="line"/>
      <point x="740" y="1446" type="line"/>
      <point x="318" y="1446" type="line"/>
      <point x="318" y="1673" type="line"/>
      <point x="158" y="1673" type="line"/>
      <point x="158" y="1294" type="line"/>
      <point x="570.167" y="1294" type="line"/>
    </contour>
  </outline>
</glyph>
<glyph name="aGlottal-ethiopic.etcp" format="2">
  <advance width="1304"/>
  <outline>
    <contour>
      <point x="31" y="0" type="line"/>
      <point x="241" y="0" type="line"/>
      <point x="657" y="1041" type="line"/>
      <point x="1071" y="0" type="line"/>
      <point x="1280" y="0" type="line"/>
      <point x="741.832" y="1294" type="line"/>
      <point x="740" y="1446" type="line"/>
      <point x="318" y="1446" type="line"/>
      <point x="318" y="1673" type="line"/>
      <point x="158" y="1673" type="line"/>
      <point x="158" y="1294" type="line"/>
      <point x="570.167" y="1294" type="line"/>
    </contour>
  </outline>
</glyph>
<glyph name="abesha.base" format="2">
  <advance width="1251"/>
  <anchor x="222" y="1302" name="aGlhat"/>
  <anchor x="989" y="-26" name="haa"/>
  <anchor x="402.178" y="598" name="he.left.inner"/>
  <anchor x="906" y="67" name="hee"/>
  <anchor x="1051" y="110" name="hi"/>
  <anchor x="297.434" y="-21" name="ho"/>
  <anchor x="1142" y="468" name="ho.ring"/>
  <anchor x="406" y="600" name="ho.ring.uniq"/>
  <anchor x="1059" y="667" name="hu"/>
  <anchor x="961" y="-30" name="hwa"/>
  <outline>
    <contour>
      <point x="200" y="0" type="line"/>
      <point x="385" y="0" type="line"/>
      <point x="385" y="771" type="line"/>
      <point x="436" y="875"/>
      <point x="529" y="945"/>
      <point x="649" y="945" type="curve" smooth="yes"/>
      <point x="797" y="945"/>
      <point x="866" y="872"/>
      <point x="866" y="716" type="curve" smooth="yes"/>
      <point x="866" y="0" type="line"/>
      <point x="1051" y="0" type="line"/>
      <point x="1051" y="715" type="line" smooth="yes"/>
      <point x="1051" y="973"/>
      <point x="934" y="1102"/>
      <point x="705" y="1102" type="curve" smooth="yes"/>
      <point x="574" y="1102"/>
      <point x="467" y="1052"/>
      <point x="385" y="951" type="curve"/>
      <point x="385" y="1094" type="line"/>
      <point x="565" y="1536" type="line"/>
      <point x="380" y="1536" type="line"/>
      <point x="200" y="1091" type="line"/>
    </contour>
    <contour>
      <point x="308" y="1372" type="line"/>
      <point x="115" y="1666" type="line"/>
      <point x="-109" y="1666" type="line"/>
      <point x="159" y="1372" type="line"/>
    </contour>
  </outline>
</glyph>
<glyph name="ba-ethiopic.etcp" format="2">
  <advance width="1328"/>
  <anchor x="1134" y="24" name="haa"/>
  <anchor x="641" y="1703" name="hat.cap"/>
  <anchor x="1118" y="-47" name="hee"/>
  <anchor x="1228" y="6" name="hi"/>
  <anchor x="231" y="14" name="ho"/>
  <anchor x="1192" y="1079" name="hu"/>
  <anchor x="1093" y="21" name="hwa"/>
  <anchor x="662" y="1468" name="neck.cap"/>
  <outline>
    <contour>
      <point x="665" y="1476" type="curve" smooth="yes"/>
      <point x="347" y="1476"/>
      <point x="140" y="1293"/>
      <point x="140" y="992" type="curve" smooth="yes"/>
      <point x="140" y="0" type="line"/>
      <point x="330" y="0" type="line"/>
      <point x="330" y="986" type="line" smooth="yes"/>
      <point x="330" y="1197"/>
      <point x="450" y="1319"/>
      <point x="665" y="1319" type="curve" smooth="yes"/>
      <point x="882" y="1319"/>
      <point x="1001" y="1198"/>
      <point x="1001" y="987" type="curve" smooth="yes"/>
      <point x="1001" y="0" type="line"/>
      <point x="1194" y="0" type="line"/>
      <point x="1194" y="990" type="line" smooth="yes"/>
      <point x="1194" y="1265"/>
      <point x="969" y="1476"/>
    </contour>
  </outline>
</glyph>
<glyph name="ba.base.cap" format="2">
  <advance width="1340"/>
  <anchor x="1138" y="-25" name="haa"/>
  <anchor x="940" y="1648" name="hat.caps"/>
  <anchor x="257" y="1595" name="hat.left"/>
  <anchor x="619" y="1481" name="he.acute.top"/>
  <anchor x="313" y="772" name="he.left.inner"/>
  <anchor x="76.942" y="764" name="he.left.outer"/>
  <anchor x="1070" y="49" name="hee"/>
  <anchor x="1170" y="93" name="hi"/>
  <anchor x="225" y="-29" name="ho"/>
  <anchor x="213.086" y="26" name="ho.caps"/>
  <anchor x="1142.14" y="866" name="hu"/>
  <anchor x="1115" y="-22" name="hwa"/>
  <anchor x="283" y="1456" name="ka.caps"/>
  <anchor x="661.045" y="1475" name="neck.caps"/>
  <outline>
    <contour>
      <point x="140" y="0" type="line"/>
      <point x="332" y="0" type="line"/>
      <point x="332" y="986" type="line" smooth="yes"/>
      <point x="332" y="1197"/>
      <point x="450" y="1319"/>
      <point x="665" y="1319" type="curve" smooth="yes"/>
      <point x="882" y="1319"/>
      <point x="1001" y="1198"/>
      <point x="1001" y="987" type="curve" smooth="yes"/>
      <point x="1001" y="0" type="line"/>
      <point x="1206" y="0" type="line"/>
      <point x="1206" y="990" type="line" smooth="yes"/>
      <point x="1206" y="1265"/>
      <point x="969" y="1476"/>
      <point x="665" y="1476" type="curve" smooth="yes"/>
      <point x="347" y="1476"/>
      <point x="140" y="1293"/>
      <point x="140" y="992" type="curve" smooth="yes"/>
    </contour>
  </outline>
</glyph>
<glyph name="ba.base" format="2">
  <advance width="1130"/>
  <anchor x="901" y="8" name="haa"/>
  <anchor x="574" y="1382" name="hat"/>
  <anchor x="231" y="1371" name="hat.001"/>
  <anchor x="700" y="329" name="hee"/>
  <anchor x="1038" y="12" name="hi"/>
  <anchor x="242" y="21" name="ho"/>
  <anchor x="1038" y="673" name="hu"/>
  <anchor x="911" y="-6" name="hwa"/>
  <anchor x="589" y="1114" name="neck"/>
  <outline>
    <contour>
      <point x="140" y="0" type="line"/>
      <point x="325" y="0" type="line"/>
      <point x="325" y="716" type="line" smooth="yes"/>
      <point x="325" y="862"/>
      <point x="427" y="945"/>
      <point x="589" y="945" type="curve" smooth="yes"/>
      <point x="737" y="945"/>
      <point x="806" y="872"/>
      <point x="806" y="716" type="curve" smooth="yes"/>
      <point x="806" y="0" type="line"/>
      <point x="991" y="0" type="line"/>
      <point x="991" y="715" type="line" smooth="yes"/>
      <point x="991" y="973"/>
      <point x="812" y="1102"/>
      <point x="583" y="1102" type="curve" smooth="yes"/>
      <point x="319" y="1102"/>
      <point x="140" y="957"/>
      <point x="140" y="748" type="curve" smooth="yes"/>
    </contour>
  </outline>
</glyph>
<glyph name="bar.mulat" format="2">
  <advance width="642"/>
  <outline>
    <contour>
      <point x="1388" y="-288" type="line"/>
      <point x="1537" y="-288" type="line"/>
      <point x="1567" y="6" type="line"/>
      <point x="1381" y="6" type="line"/>
    </contour>
  </outline>
</glyph>
